M48
; DRILL file {KiCad 5.1.5+dfsg1-2build2} date Di 24 Nov 2020 14:56:26
; FORMAT={-:-/ absolute / inch / decimal}
; #@! TF.CreationDate,2020-11-24T14:56:26+01:00
; #@! TF.GenerationSoftware,Kicad,Pcbnew,5.1.5+dfsg1-2build2
; #@! TF.FileFunction,Plated,1,2,PTH
FMAT,2
INCH
T1C0.0079
T2C0.0157
T3C0.0236
T4C0.0394
T5C0.0433
%
G90
G05
T1
X5.8814Y-2.9275
X5.8916Y-2.9857
X5.9053Y-2.8933
X5.9156Y-2.9515
X5.9258Y-3.0096
X5.9395Y-2.9173
X5.9498Y-2.9754
X5.9635Y-2.883
X5.9737Y-2.9412
X5.984Y-2.9994
X5.9977Y-2.907
X6.0079Y-2.9652
T2
X4.9988Y-2.878
X5.0118Y-2.7614
X5.07Y-3.08
X5.072Y-3.5264
X5.0988Y-3.3701
X5.1099Y-3.2912
X5.1598Y-2.8213
X5.19Y-2.47
X5.198Y-2.5772
X5.198Y-2.7421
X5.2272Y-2.3862
X5.2465Y-3.3941
X5.2675Y-3.0927
X5.2675Y-3.2386
X5.2819Y-2.9677
X5.2988Y-3.1465
X5.3039Y-3.2122
X5.3398Y-2.2969
X5.374Y-3.5402
X5.3866Y-2.5059
X5.4209Y-2.6425
X5.4567Y-2.3055
X5.4829Y-3.1186
X5.4829Y-3.3408
X5.4992Y-2.526
X5.5067Y-4.1374
X5.513Y-3.7531
X5.5157Y-3.9976
X5.5228Y-3.8602
X5.5291Y-2.9134
X5.5346Y-3.7035
X5.5476Y-2.4063
X5.5732Y-2.1236
X5.5972Y-2.6268
X5.6197Y-3.2846
X5.6295Y-3.6071
X5.6335Y-2.5039
X5.6402Y-2.1409
X5.6461Y-3.5665
X5.674Y-3.5244
X5.6809Y-3.1762
X5.6874Y-5.785
X5.698Y-2.976
X5.7065Y-3.122
X5.7094Y-3.2098
X5.7098Y-3.4969
X5.7331Y-3.0083
X5.7362Y-3.0839
X5.748Y-3.2417
X5.7583Y-3.4862
X5.7772Y-3.1469
X5.7843Y-2.5957
X5.79Y-3.23
X5.7949Y-3.5063
X5.83Y-3.22
X5.8382Y-3.5047
X5.8392Y-3.5705
X5.8429Y-3.6484
X5.87Y-3.21
X5.8795Y-3.6965
X5.8876Y-2.5356
X5.9Y-3.66
X5.92Y-3.2
X5.92Y-3.62
X5.93Y-3.58
X5.94Y-3.54
X5.9494Y-3.4955
X5.9622Y-3.1602
X5.9886Y-3.4917
X5.9964Y-3.1841
X6.0106Y-3.2209
X6.0331Y-4.0087
X6.0335Y-2.4957
X6.0335Y-3.485
X6.0362Y-3.0846
X6.0536Y-3.2182
X6.0687Y-3.4478
X6.0929Y-3.2157
X6.1063Y-3.4193
X6.1327Y-3.2071
X6.1406Y-3.3921
X6.174Y-3.1862
X6.1827Y-3.3886
X6.1949Y-3.2217
X6.2228Y-3.378
X6.2323Y-3.8894
X6.2421Y-2.4114
X6.2431Y-3.1783
X6.2717Y-3.0496
X6.2957Y-3.2169
X6.3366Y-2.2866
X6.4409Y-3.622
X6.5661Y-3.3201
T4
X5.3662Y-2.0957
X5.4528Y-2.0457
X5.5394Y-1.9957
X5.626Y-1.9457
X5.7126Y-1.8957
X5.7992Y-1.8457
X5.5Y-4.2866
X5.5Y-4.3866
X5.5Y-4.4866
X5.5Y-4.5866
X5.5Y-4.6866
X5.5Y-4.7866
X5.5Y-4.8866
X5.5Y-4.9866
X5.5Y-5.0866
X5.5Y-5.1866
X5.5Y-5.2866
X5.5Y-5.3866
X5.5Y-5.4866
X5.5Y-5.5866
X5.5Y-5.6866
X5.5Y-5.7866
X5.8996Y-4.2862
X5.8996Y-4.3862
X5.8996Y-4.4862
X5.8996Y-4.5862
X5.8996Y-4.6862
X5.8996Y-4.7862
X5.8996Y-4.8862
X5.8996Y-4.9862
X5.8996Y-5.0862
X5.8996Y-5.1862
X5.8996Y-5.2862
X5.8996Y-5.3862
X5.8996Y-5.4862
X5.8996Y-5.5862
X5.8996Y-5.6862
X5.8996Y-5.7862
T5
X6.2409Y-3.6708
X6.3284Y-3.4304
X6.4074Y-3.7314
X6.4949Y-3.4909
X5.9413Y-2.1752
X6.043Y-2.3203
X6.151Y-2.0284
X6.2526Y-2.1735
T3
G00X5.0051Y-2.9827
M15
G01X4.9461Y-2.9827
M16
G05
G00X5.0051Y-3.3228
M15
G01X4.9461Y-3.3228
M16
G05
G00X5.2063Y-2.9827
M15
G01X5.1669Y-2.9827
M16
G05
G00X5.2063Y-3.3228
M15
G01X5.1669Y-3.3228
M16
G05
T0
M30
