G04 #@! TF.GenerationSoftware,KiCad,Pcbnew,5.1.5+dfsg1-2build2*
G04 #@! TF.CreationDate,2020-11-24T14:56:23+01:00*
G04 #@! TF.ProjectId,GreenEggs_and_Clem,47726565-6e45-4676-9773-5f616e645f43,v0.1*
G04 #@! TF.SameCoordinates,Original*
G04 #@! TF.FileFunction,Legend,Top*
G04 #@! TF.FilePolarity,Positive*
%FSLAX46Y46*%
G04 Gerber Fmt 4.6, Leading zero omitted, Abs format (unit mm)*
G04 Created by KiCad (PCBNEW 5.1.5+dfsg1-2build2) date 2020-11-24 14:56:23*
%MOMM*%
%LPD*%
G04 APERTURE LIST*
%ADD10C,0.150000*%
%ADD11C,0.100000*%
%ADD12C,0.500000*%
%ADD13C,0.127000*%
%ADD14C,0.300000*%
%ADD15C,0.120000*%
%ADD16C,0.015000*%
G04 APERTURE END LIST*
D10*
X135910000Y-102057142D02*
X135862380Y-102104761D01*
X135719523Y-102152380D01*
X135624285Y-102152380D01*
X135481428Y-102104761D01*
X135386190Y-102009523D01*
X135338571Y-101914285D01*
X135290952Y-101723809D01*
X135290952Y-101580952D01*
X135338571Y-101390476D01*
X135386190Y-101295238D01*
X135481428Y-101200000D01*
X135624285Y-101152380D01*
X135719523Y-101152380D01*
X135862380Y-101200000D01*
X135910000Y-101247619D01*
X136910000Y-102057142D02*
X136862380Y-102104761D01*
X136719523Y-102152380D01*
X136624285Y-102152380D01*
X136481428Y-102104761D01*
X136386190Y-102009523D01*
X136338571Y-101914285D01*
X136290952Y-101723809D01*
X136290952Y-101580952D01*
X136338571Y-101390476D01*
X136386190Y-101295238D01*
X136481428Y-101200000D01*
X136624285Y-101152380D01*
X136719523Y-101152380D01*
X136862380Y-101200000D01*
X136910000Y-101247619D01*
X137338571Y-101771428D02*
X138100476Y-101771428D01*
X138910000Y-101628571D02*
X139052857Y-101676190D01*
X139100476Y-101723809D01*
X139148095Y-101819047D01*
X139148095Y-101961904D01*
X139100476Y-102057142D01*
X139052857Y-102104761D01*
X138957619Y-102152380D01*
X138576666Y-102152380D01*
X138576666Y-101152380D01*
X138910000Y-101152380D01*
X139005238Y-101200000D01*
X139052857Y-101247619D01*
X139100476Y-101342857D01*
X139100476Y-101438095D01*
X139052857Y-101533333D01*
X139005238Y-101580952D01*
X138910000Y-101628571D01*
X138576666Y-101628571D01*
X139767142Y-101676190D02*
X139767142Y-102152380D01*
X139433809Y-101152380D02*
X139767142Y-101676190D01*
X140100476Y-101152380D01*
X140433809Y-101771428D02*
X141195714Y-101771428D01*
X141624285Y-102104761D02*
X141767142Y-102152380D01*
X142005238Y-102152380D01*
X142100476Y-102104761D01*
X142148095Y-102057142D01*
X142195714Y-101961904D01*
X142195714Y-101866666D01*
X142148095Y-101771428D01*
X142100476Y-101723809D01*
X142005238Y-101676190D01*
X141814761Y-101628571D01*
X141719523Y-101580952D01*
X141671904Y-101533333D01*
X141624285Y-101438095D01*
X141624285Y-101342857D01*
X141671904Y-101247619D01*
X141719523Y-101200000D01*
X141814761Y-101152380D01*
X142052857Y-101152380D01*
X142195714Y-101200000D01*
X142576666Y-101866666D02*
X143052857Y-101866666D01*
X142481428Y-102152380D02*
X142814761Y-101152380D01*
X143148095Y-102152380D01*
X144195714Y-101247619D02*
X144243333Y-101200000D01*
X144338571Y-101152380D01*
X144576666Y-101152380D01*
X144671904Y-101200000D01*
X144719523Y-101247619D01*
X144767142Y-101342857D01*
X144767142Y-101438095D01*
X144719523Y-101580952D01*
X144148095Y-102152380D01*
X144767142Y-102152380D01*
X145386190Y-101152380D02*
X145481428Y-101152380D01*
X145576666Y-101200000D01*
X145624285Y-101247619D01*
X145671904Y-101342857D01*
X145719523Y-101533333D01*
X145719523Y-101771428D01*
X145671904Y-101961904D01*
X145624285Y-102057142D01*
X145576666Y-102104761D01*
X145481428Y-102152380D01*
X145386190Y-102152380D01*
X145290952Y-102104761D01*
X145243333Y-102057142D01*
X145195714Y-101961904D01*
X145148095Y-101771428D01*
X145148095Y-101533333D01*
X145195714Y-101342857D01*
X145243333Y-101247619D01*
X145290952Y-101200000D01*
X145386190Y-101152380D01*
X146100476Y-101247619D02*
X146148095Y-101200000D01*
X146243333Y-101152380D01*
X146481428Y-101152380D01*
X146576666Y-101200000D01*
X146624285Y-101247619D01*
X146671904Y-101342857D01*
X146671904Y-101438095D01*
X146624285Y-101580952D01*
X146052857Y-102152380D01*
X146671904Y-102152380D01*
X147290952Y-101152380D02*
X147386190Y-101152380D01*
X147481428Y-101200000D01*
X147529047Y-101247619D01*
X147576666Y-101342857D01*
X147624285Y-101533333D01*
X147624285Y-101771428D01*
X147576666Y-101961904D01*
X147529047Y-102057142D01*
X147481428Y-102104761D01*
X147386190Y-102152380D01*
X147290952Y-102152380D01*
X147195714Y-102104761D01*
X147148095Y-102057142D01*
X147100476Y-101961904D01*
X147052857Y-101771428D01*
X147052857Y-101533333D01*
X147100476Y-101342857D01*
X147148095Y-101247619D01*
X147195714Y-101200000D01*
X147290952Y-101152380D01*
X149290952Y-102152380D02*
X148814761Y-102152380D01*
X148814761Y-101152380D01*
X149767142Y-102152380D02*
X149671904Y-102104761D01*
X149624285Y-102057142D01*
X149576666Y-101961904D01*
X149576666Y-101676190D01*
X149624285Y-101580952D01*
X149671904Y-101533333D01*
X149767142Y-101485714D01*
X149910000Y-101485714D01*
X150005238Y-101533333D01*
X150052857Y-101580952D01*
X150100476Y-101676190D01*
X150100476Y-101961904D01*
X150052857Y-102057142D01*
X150005238Y-102104761D01*
X149910000Y-102152380D01*
X149767142Y-102152380D01*
X150957619Y-102104761D02*
X150862380Y-102152380D01*
X150671904Y-102152380D01*
X150576666Y-102104761D01*
X150529047Y-102057142D01*
X150481428Y-101961904D01*
X150481428Y-101676190D01*
X150529047Y-101580952D01*
X150576666Y-101533333D01*
X150671904Y-101485714D01*
X150862380Y-101485714D01*
X150957619Y-101533333D01*
X151386190Y-102152380D02*
X151386190Y-101152380D01*
X151481428Y-101771428D02*
X151767142Y-102152380D01*
X151767142Y-101485714D02*
X151386190Y-101866666D01*
X152624285Y-102152380D02*
X152624285Y-101152380D01*
X152624285Y-102104761D02*
X152529047Y-102152380D01*
X152338571Y-102152380D01*
X152243333Y-102104761D01*
X152195714Y-102057142D01*
X152148095Y-101961904D01*
X152148095Y-101676190D01*
X152195714Y-101580952D01*
X152243333Y-101533333D01*
X152338571Y-101485714D01*
X152529047Y-101485714D01*
X152624285Y-101533333D01*
X153243333Y-102152380D02*
X153148095Y-102104761D01*
X153100476Y-102057142D01*
X153052857Y-101961904D01*
X153052857Y-101676190D01*
X153100476Y-101580952D01*
X153148095Y-101533333D01*
X153243333Y-101485714D01*
X153386190Y-101485714D01*
X153481428Y-101533333D01*
X153529047Y-101580952D01*
X153576666Y-101676190D01*
X153576666Y-101961904D01*
X153529047Y-102057142D01*
X153481428Y-102104761D01*
X153386190Y-102152380D01*
X153243333Y-102152380D01*
X153909999Y-101485714D02*
X154100476Y-102152380D01*
X154290952Y-101676190D01*
X154481428Y-102152380D01*
X154671904Y-101485714D01*
X155052857Y-101485714D02*
X155052857Y-102152380D01*
X155052857Y-101580952D02*
X155100476Y-101533333D01*
X155195714Y-101485714D01*
X155338571Y-101485714D01*
X155433809Y-101533333D01*
X155481428Y-101628571D01*
X155481428Y-102152380D01*
D11*
X138761927Y-99608638D02*
X138692467Y-99214715D01*
X138949509Y-99575562D02*
X138880050Y-99181639D01*
X138973841Y-99165101D01*
X139033423Y-99173937D01*
X139077555Y-99204838D01*
X139102929Y-99239047D01*
X139134917Y-99310772D01*
X139144840Y-99367047D01*
X139139312Y-99445388D01*
X139127169Y-99486212D01*
X139096268Y-99530343D01*
X139043300Y-99559024D01*
X138949509Y-99575562D01*
X139307049Y-99299762D02*
X139438357Y-99276609D01*
X139531015Y-99473027D02*
X139343432Y-99506103D01*
X139273973Y-99112180D01*
X139461555Y-99079104D01*
X139661235Y-99334017D02*
X139848818Y-99300941D01*
X139643564Y-99453182D02*
X139705413Y-99036106D01*
X139906180Y-99406876D01*
X140015421Y-99368272D02*
X140075004Y-99377107D01*
X140168795Y-99360569D01*
X140203004Y-99335196D01*
X140218455Y-99313130D01*
X140230598Y-99272306D01*
X140223982Y-99234790D01*
X140198609Y-99200581D01*
X140176543Y-99185130D01*
X140135719Y-99172987D01*
X140057379Y-99167459D01*
X140016555Y-99155316D01*
X139994489Y-99139865D01*
X139969115Y-99105656D01*
X139962500Y-99068140D01*
X139974643Y-99027316D01*
X139990094Y-99005250D01*
X140024303Y-98979877D01*
X140118094Y-98963339D01*
X140177676Y-98972174D01*
X140829728Y-99379419D02*
X140730501Y-98816672D01*
X141388081Y-99145576D02*
X141318622Y-98751653D01*
X141468687Y-98725193D01*
X141509512Y-98737336D01*
X141531577Y-98752786D01*
X141556951Y-98786995D01*
X141566874Y-98843270D01*
X141554730Y-98884094D01*
X141539280Y-98906160D01*
X141505071Y-98931533D01*
X141355005Y-98957994D01*
X142007103Y-99036426D02*
X141842719Y-98871997D01*
X141782004Y-99076117D02*
X141712545Y-98682194D01*
X141862611Y-98655733D01*
X141903435Y-98667876D01*
X141925500Y-98683327D01*
X141950874Y-98717536D01*
X141960797Y-98773811D01*
X141948654Y-98814635D01*
X141933203Y-98836701D01*
X141898994Y-98862074D01*
X141748928Y-98888535D01*
X142181501Y-98599504D02*
X142256534Y-98586274D01*
X142297358Y-98598417D01*
X142341489Y-98629318D01*
X142373478Y-98701044D01*
X142396631Y-98832352D01*
X142391103Y-98910692D01*
X142360202Y-98954824D01*
X142325993Y-98980197D01*
X142250960Y-98993428D01*
X142210136Y-98981284D01*
X142166004Y-98950383D01*
X142134016Y-98878658D01*
X142110863Y-98747350D01*
X142116390Y-98669009D01*
X142147292Y-98624878D01*
X142181501Y-98599504D01*
X142588608Y-98933891D02*
X142519149Y-98539968D01*
X142612940Y-98523430D01*
X142672523Y-98532265D01*
X142716654Y-98563167D01*
X142742028Y-98597376D01*
X142774016Y-98669101D01*
X142783939Y-98725376D01*
X142778411Y-98803716D01*
X142766268Y-98844540D01*
X142735367Y-98888672D01*
X142682400Y-98917353D01*
X142588608Y-98933891D01*
X142913072Y-98470509D02*
X142969301Y-98789399D01*
X142994674Y-98823608D01*
X143016740Y-98839058D01*
X143057564Y-98851201D01*
X143132597Y-98837971D01*
X143166806Y-98812598D01*
X143182257Y-98790532D01*
X143194400Y-98749708D01*
X143138171Y-98430818D01*
X143613697Y-98714457D02*
X143598246Y-98736523D01*
X143545279Y-98765204D01*
X143507762Y-98771819D01*
X143448180Y-98762984D01*
X143404048Y-98732083D01*
X143378675Y-98697874D01*
X143346686Y-98626148D01*
X143336764Y-98569874D01*
X143342291Y-98491533D01*
X143354434Y-98450709D01*
X143385336Y-98406577D01*
X143438303Y-98377896D01*
X143475819Y-98371281D01*
X143535402Y-98380117D01*
X143557468Y-98395567D01*
X143663402Y-98338205D02*
X143888501Y-98298514D01*
X143845411Y-98712283D02*
X143775951Y-98318360D01*
X144067202Y-98653834D02*
X144126784Y-98662669D01*
X144220575Y-98646131D01*
X144254784Y-98620758D01*
X144270235Y-98598692D01*
X144282378Y-98557868D01*
X144275763Y-98520351D01*
X144250390Y-98486142D01*
X144228324Y-98470692D01*
X144187500Y-98458549D01*
X144109159Y-98453021D01*
X144068335Y-98440878D01*
X144046269Y-98425427D01*
X144020896Y-98391218D01*
X144014281Y-98353702D01*
X144026424Y-98312878D01*
X144041874Y-98290812D01*
X144076083Y-98265438D01*
X144169874Y-98248900D01*
X144229457Y-98257736D01*
X144881509Y-98664981D02*
X144782281Y-98102234D01*
X145658345Y-98353931D02*
X145642894Y-98375997D01*
X145589927Y-98404678D01*
X145552411Y-98411293D01*
X145492828Y-98402457D01*
X145448697Y-98371556D01*
X145423323Y-98337347D01*
X145391335Y-98265622D01*
X145381412Y-98209347D01*
X145386940Y-98131006D01*
X145399083Y-98090182D01*
X145429984Y-98046051D01*
X145482951Y-98017370D01*
X145520468Y-98010754D01*
X145580050Y-98019590D01*
X145602116Y-98035041D01*
X145839358Y-97954525D02*
X145914391Y-97941295D01*
X145955215Y-97953438D01*
X145999347Y-97984340D01*
X146031335Y-98056065D01*
X146054488Y-98187373D01*
X146048961Y-98265713D01*
X146018059Y-98309845D01*
X145983850Y-98335218D01*
X145908817Y-98348449D01*
X145867993Y-98336306D01*
X145823862Y-98305404D01*
X145791873Y-98233679D01*
X145768720Y-98102371D01*
X145774248Y-98024031D01*
X145805149Y-97979899D01*
X145839358Y-97954525D01*
X146246466Y-98288912D02*
X146177006Y-97894989D01*
X146471565Y-98249221D01*
X146402105Y-97855298D01*
X146533413Y-97832145D02*
X146758512Y-97792454D01*
X146715422Y-98206222D02*
X146645962Y-97812299D01*
X146922895Y-97956883D02*
X147054203Y-97933730D01*
X147146861Y-98130148D02*
X146959279Y-98163224D01*
X146889820Y-97769301D01*
X147077402Y-97736225D01*
X147315686Y-98100380D02*
X147246226Y-97706457D01*
X147540784Y-98060689D01*
X147471325Y-97666766D01*
X147602633Y-97643613D02*
X147827732Y-97603922D01*
X147784642Y-98017690D02*
X147715182Y-97623767D01*
D12*
X138232621Y-95071809D02*
X137885325Y-93102193D01*
X138789932Y-94393296D01*
X139198402Y-92870662D01*
X139545698Y-94840278D01*
X140290592Y-94128689D02*
X141228504Y-93963310D01*
X140202237Y-94724512D02*
X140511479Y-92639131D01*
X141515314Y-94492981D01*
X142381638Y-93373152D02*
X142547017Y-94311064D01*
X141543182Y-92457214D02*
X142381638Y-93373152D01*
X142856259Y-92225683D01*
X143678177Y-93047830D02*
X144334715Y-92932064D01*
X144798006Y-93914154D02*
X143860094Y-94079533D01*
X143512798Y-92109918D01*
X144450710Y-91944538D01*
X146767622Y-93566858D02*
X145945704Y-92744711D01*
X145642127Y-93765313D02*
X145294831Y-91795697D01*
X146045160Y-91663394D01*
X146249281Y-91724109D01*
X146359610Y-91801362D01*
X146486477Y-91972407D01*
X146536091Y-92253781D01*
X146475375Y-92457901D01*
X146398122Y-92568230D01*
X146227078Y-92695097D01*
X145476748Y-92827401D01*
X138746599Y-98535173D02*
X138399303Y-96565558D01*
X139303910Y-97856661D01*
X139712380Y-96334027D01*
X140059676Y-98303643D01*
X140804569Y-97592054D02*
X141742481Y-97426675D01*
X140716214Y-98187877D02*
X141025457Y-96102496D01*
X142029291Y-97956346D01*
X142685830Y-97840581D02*
X142338534Y-95870965D01*
X143811324Y-97642126D02*
X142768748Y-96665472D01*
X143464028Y-95672510D02*
X142536989Y-96996460D01*
X144473528Y-96461581D02*
X145130067Y-96345816D01*
X145593358Y-97327905D02*
X144655445Y-97493284D01*
X144308149Y-95523669D01*
X145246061Y-95358290D01*
X146327149Y-97101811D02*
X146625061Y-97145988D01*
X147094017Y-97063298D01*
X147265061Y-96936431D01*
X147342315Y-96826102D01*
X147403030Y-96621982D01*
X147369954Y-96434399D01*
X147243087Y-96263355D01*
X147132758Y-96186102D01*
X146928638Y-96125386D01*
X146536935Y-96097747D01*
X146332815Y-96037031D01*
X146222485Y-95959778D01*
X146095618Y-95788734D01*
X146062543Y-95601151D01*
X146123258Y-95397031D01*
X146200511Y-95286702D01*
X146371556Y-95159835D01*
X146840512Y-95077145D01*
X147138423Y-95121322D01*
D10*
X128219767Y-94610100D02*
X128570010Y-95225294D01*
X128688723Y-94527410D01*
X129546549Y-95004750D02*
X129461027Y-95068183D01*
X129273445Y-95101259D01*
X129171384Y-95070901D01*
X129107951Y-94985379D01*
X129041799Y-94610214D01*
X129072157Y-94508154D01*
X129157679Y-94444721D01*
X129345262Y-94411645D01*
X129447322Y-94442003D01*
X129510755Y-94527525D01*
X129527293Y-94621316D01*
X129074875Y-94797797D01*
X130023774Y-94968956D02*
X129908009Y-94312417D01*
X129941085Y-94500000D02*
X129971442Y-94397940D01*
X130010069Y-94342775D01*
X130095591Y-94279341D01*
X130189382Y-94262804D01*
X130578253Y-94822833D02*
X130680313Y-94853190D01*
X130867895Y-94820115D01*
X130953417Y-94756681D01*
X130983775Y-94654621D01*
X130975506Y-94607725D01*
X130912073Y-94522203D01*
X130810012Y-94491845D01*
X130669326Y-94516652D01*
X130567265Y-94486294D01*
X130503832Y-94400772D01*
X130495563Y-94353877D01*
X130525921Y-94251816D01*
X130611443Y-94188383D01*
X130752130Y-94163576D01*
X130854190Y-94193934D01*
X131430642Y-94720887D02*
X131314877Y-94064348D01*
X131256994Y-93736079D02*
X131218368Y-93791244D01*
X131273532Y-93829870D01*
X131312159Y-93774706D01*
X131256994Y-93736079D01*
X131273532Y-93829870D01*
X132040285Y-94613390D02*
X131938225Y-94583033D01*
X131883061Y-94544406D01*
X131819627Y-94458884D01*
X131770013Y-94177510D01*
X131800371Y-94075450D01*
X131838998Y-94020286D01*
X131924520Y-93956852D01*
X132065207Y-93932045D01*
X132167267Y-93962403D01*
X132222431Y-94001029D01*
X132285865Y-94086552D01*
X132335479Y-94367925D01*
X132305121Y-94469986D01*
X132266494Y-94525150D01*
X132180972Y-94588584D01*
X132040285Y-94613390D01*
X132674850Y-93824549D02*
X132790615Y-94481087D01*
X132691388Y-93918340D02*
X132730014Y-93863175D01*
X132815536Y-93799742D01*
X132956223Y-93774935D01*
X133058283Y-93805293D01*
X133121717Y-93890815D01*
X133212676Y-94406666D01*
X134445896Y-93173790D02*
X134539687Y-93157252D01*
X134641747Y-93187610D01*
X134696912Y-93226236D01*
X134760345Y-93311759D01*
X134840317Y-93491072D01*
X134881661Y-93725550D01*
X134867842Y-93921401D01*
X134837484Y-94023462D01*
X134798857Y-94078626D01*
X134713335Y-94142060D01*
X134619544Y-94158598D01*
X134517484Y-94128240D01*
X134462319Y-94089613D01*
X134398886Y-94004091D01*
X134318914Y-93824778D01*
X134277569Y-93590300D01*
X134291389Y-93394448D01*
X134321747Y-93292388D01*
X134360373Y-93237223D01*
X134445896Y-93173790D01*
X135353336Y-93932503D02*
X135408500Y-93971130D01*
X135369873Y-94026294D01*
X135314709Y-93987668D01*
X135353336Y-93932503D01*
X135369873Y-94026294D01*
X136354681Y-93852646D02*
X135791934Y-93951874D01*
X136073308Y-93902260D02*
X135899659Y-92917452D01*
X135830675Y-93074677D01*
X135753422Y-93185006D01*
X135667900Y-93248440D01*
X128892222Y-93639772D02*
X128801263Y-93123921D01*
X128737829Y-93038398D01*
X128635769Y-93008041D01*
X128448187Y-93041116D01*
X128362665Y-93104550D01*
X128883953Y-93592877D02*
X128798430Y-93656310D01*
X128563952Y-93697655D01*
X128461892Y-93667297D01*
X128398459Y-93581775D01*
X128381921Y-93487984D01*
X128412278Y-93385924D01*
X128497801Y-93322490D01*
X128732279Y-93281145D01*
X128817801Y-93217712D01*
X129306013Y-93518456D02*
X129408073Y-93548814D01*
X129595656Y-93515738D01*
X129681178Y-93452304D01*
X129711536Y-93350244D01*
X129703267Y-93303348D01*
X129639833Y-93217826D01*
X129537773Y-93187469D01*
X129397086Y-93212275D01*
X129295026Y-93181918D01*
X129231592Y-93096395D01*
X129223323Y-93049500D01*
X129253681Y-92947440D01*
X129339203Y-92884006D01*
X129479890Y-92859199D01*
X129581950Y-92889557D01*
X130853568Y-93245580D02*
X130955628Y-93275938D01*
X131143211Y-93242862D01*
X131228733Y-93179429D01*
X131259091Y-93077368D01*
X131250822Y-93030473D01*
X131187388Y-92944951D01*
X131085328Y-92914593D01*
X130944641Y-92939400D01*
X130842581Y-92909042D01*
X130779147Y-92823520D01*
X130770878Y-92776624D01*
X130801236Y-92674564D01*
X130886758Y-92611130D01*
X131027445Y-92586324D01*
X131129505Y-92616681D01*
X132072854Y-93030587D02*
X131987332Y-93094021D01*
X131799749Y-93127097D01*
X131697689Y-93096739D01*
X131634255Y-93011217D01*
X131568104Y-92636052D01*
X131598461Y-92533992D01*
X131683984Y-92470558D01*
X131871566Y-92437482D01*
X131973626Y-92467840D01*
X132037060Y-92553362D01*
X132053598Y-92647153D01*
X131601180Y-92823634D01*
X132916975Y-92881746D02*
X132831453Y-92945179D01*
X132643870Y-92978255D01*
X132541810Y-92947898D01*
X132478376Y-92862375D01*
X132412225Y-92487211D01*
X132442582Y-92385150D01*
X132528105Y-92321717D01*
X132715687Y-92288641D01*
X132817747Y-92318999D01*
X132881181Y-92404521D01*
X132897719Y-92498312D01*
X132445301Y-92674793D01*
X133278434Y-92189413D02*
X133394200Y-92845952D01*
X133294972Y-92283205D02*
X133333599Y-92228040D01*
X133419121Y-92164607D01*
X133559808Y-92139800D01*
X133661868Y-92170157D01*
X133725302Y-92255680D01*
X133816260Y-92771531D01*
X135176233Y-92531731D02*
X135074173Y-92501374D01*
X135019008Y-92462747D01*
X134955575Y-92377225D01*
X134905961Y-92095851D01*
X134936319Y-91993791D01*
X134974945Y-91938626D01*
X135060467Y-91875193D01*
X135201154Y-91850386D01*
X135303214Y-91880744D01*
X135358379Y-91919370D01*
X135421813Y-92004893D01*
X135471426Y-92286266D01*
X135441069Y-92388326D01*
X135402442Y-92443491D01*
X135316920Y-92506925D01*
X135176233Y-92531731D01*
X135810797Y-91742890D02*
X135926563Y-92399428D01*
X135827335Y-91836681D02*
X135865962Y-91781516D01*
X135951484Y-91718083D01*
X136092171Y-91693276D01*
X136194231Y-91723633D01*
X136257665Y-91809156D01*
X136348623Y-92325007D01*
X137934805Y-91996967D02*
X137849283Y-92060401D01*
X137661700Y-92093477D01*
X137559640Y-92063119D01*
X137496206Y-91977597D01*
X137430055Y-91602432D01*
X137460412Y-91500372D01*
X137545935Y-91436938D01*
X137733517Y-91403862D01*
X137835577Y-91434220D01*
X137899011Y-91519742D01*
X137915549Y-91613533D01*
X137463131Y-91790014D01*
X138552717Y-91936366D02*
X138450656Y-91906009D01*
X138387223Y-91820486D01*
X138238382Y-90976365D01*
X139294777Y-91757167D02*
X139209255Y-91820601D01*
X139021673Y-91853677D01*
X138919613Y-91823319D01*
X138856179Y-91737797D01*
X138790027Y-91362632D01*
X138820385Y-91260572D01*
X138905907Y-91197138D01*
X139093490Y-91164062D01*
X139195550Y-91194420D01*
X139258983Y-91279942D01*
X139275521Y-91373733D01*
X138823103Y-91550214D01*
X139772002Y-91721373D02*
X139656237Y-91064835D01*
X139672775Y-91158626D02*
X139711402Y-91103461D01*
X139796924Y-91040028D01*
X139937611Y-91015221D01*
X140039671Y-91045579D01*
X140103104Y-91131101D01*
X140194063Y-91646953D01*
X140103104Y-91131101D02*
X140133462Y-91029041D01*
X140218984Y-90965607D01*
X140359671Y-90940800D01*
X140461731Y-90971158D01*
X140525165Y-91056680D01*
X140616123Y-91572532D01*
X141451975Y-91376795D02*
X141366453Y-91440229D01*
X141178871Y-91473304D01*
X141076810Y-91442947D01*
X141013377Y-91357425D01*
X140947225Y-90982260D01*
X140977583Y-90880199D01*
X141063105Y-90816766D01*
X141250688Y-90783690D01*
X141352748Y-90814048D01*
X141416181Y-90899570D01*
X141432719Y-90993361D01*
X140980301Y-91169842D01*
X141813435Y-90684463D02*
X141929200Y-91341001D01*
X141829973Y-90778254D02*
X141868599Y-90723089D01*
X141954122Y-90659656D01*
X142094809Y-90634849D01*
X142196869Y-90665207D01*
X142260302Y-90750729D01*
X142351261Y-91266580D01*
X142563765Y-90552159D02*
X142938929Y-90486008D01*
X142646569Y-90199083D02*
X142795410Y-91043204D01*
X142858844Y-91128726D01*
X142960904Y-91159084D01*
X143054695Y-91142546D01*
X143898816Y-90993705D02*
X143336069Y-91092932D01*
X143617442Y-91043318D02*
X143443794Y-90058511D01*
X143374810Y-90215735D01*
X143297556Y-90326065D01*
X143212034Y-90389498D01*
X144627171Y-90188325D02*
X144742937Y-90844863D01*
X144326542Y-89854505D02*
X144216098Y-90599284D01*
X144825741Y-90491787D01*
X145143023Y-90097366D02*
X145316671Y-91082174D01*
X145151292Y-90144262D02*
X145236814Y-90080828D01*
X145424397Y-90047753D01*
X145526457Y-90078110D01*
X145581621Y-90116737D01*
X145645055Y-90202259D01*
X145694669Y-90483633D01*
X145664311Y-90585693D01*
X145625684Y-90640858D01*
X145540162Y-90704291D01*
X145352580Y-90737367D01*
X145250520Y-90707009D01*
X146149805Y-90596795D02*
X146034040Y-89940256D01*
X146067115Y-90127839D02*
X146097473Y-90025778D01*
X146136100Y-89970614D01*
X146221622Y-89907180D01*
X146315413Y-89890642D01*
X147126344Y-90376251D02*
X147040822Y-90439684D01*
X146853239Y-90472760D01*
X146751179Y-90442403D01*
X146687745Y-90356880D01*
X146621594Y-89981715D01*
X146651951Y-89879655D01*
X146737474Y-89816222D01*
X146925056Y-89783146D01*
X147027116Y-89813504D01*
X147090550Y-89899026D01*
X147107088Y-89992817D01*
X146654670Y-90169298D01*
X147548404Y-90301830D02*
X147650464Y-90332188D01*
X147838047Y-90299112D01*
X147923569Y-90235678D01*
X147953927Y-90133618D01*
X147945658Y-90086723D01*
X147882224Y-90001200D01*
X147780164Y-89970843D01*
X147639477Y-89995650D01*
X147537417Y-89965292D01*
X147473984Y-89879770D01*
X147465715Y-89832874D01*
X147496072Y-89730814D01*
X147581595Y-89667380D01*
X147722281Y-89642574D01*
X147824342Y-89672931D01*
X148767690Y-90086837D02*
X148682168Y-90150271D01*
X148494585Y-90183347D01*
X148392525Y-90152989D01*
X148329092Y-90067467D01*
X148262940Y-89692302D01*
X148293298Y-89590242D01*
X148378820Y-89526808D01*
X148566402Y-89493732D01*
X148668463Y-89524090D01*
X148731896Y-89609612D01*
X148748434Y-89703403D01*
X148296016Y-89879884D01*
X149129150Y-89394505D02*
X149244915Y-90051043D01*
X149145688Y-89488296D02*
X149184314Y-89433131D01*
X149269836Y-89369698D01*
X149410523Y-89344891D01*
X149512583Y-89375249D01*
X149576017Y-89460771D01*
X149666976Y-89976623D01*
X149879479Y-89262201D02*
X150254644Y-89196050D01*
X149962283Y-88909125D02*
X150111125Y-89753246D01*
X150174558Y-89838768D01*
X150276618Y-89869126D01*
X150370410Y-89852588D01*
X150643514Y-89756079D02*
X150745575Y-89786436D01*
X150933157Y-89753361D01*
X151018679Y-89689927D01*
X151049037Y-89587867D01*
X151040768Y-89540971D01*
X150977334Y-89455449D01*
X150875274Y-89425091D01*
X150734587Y-89449898D01*
X150632527Y-89419541D01*
X150569094Y-89334018D01*
X150560825Y-89287123D01*
X150591182Y-89185063D01*
X150676705Y-89121629D01*
X150817392Y-89096822D01*
X150919452Y-89127180D01*
X127092747Y-91699171D02*
X127208512Y-92355710D01*
X127109285Y-91792962D02*
X127147912Y-91737798D01*
X127233434Y-91674364D01*
X127374121Y-91649557D01*
X127476181Y-91679915D01*
X127539614Y-91765437D01*
X127630573Y-92281289D01*
X128521589Y-92124179D02*
X128430631Y-91608327D01*
X128367197Y-91522805D01*
X128265137Y-91492447D01*
X128077555Y-91525523D01*
X127992033Y-91588957D01*
X128513321Y-92077283D02*
X128427798Y-92140717D01*
X128193320Y-92182062D01*
X128091260Y-92151704D01*
X128027827Y-92066182D01*
X128011289Y-91972390D01*
X128041646Y-91870330D01*
X128127169Y-91806897D01*
X128361647Y-91765552D01*
X128447169Y-91702118D01*
X128734093Y-91409758D02*
X129109258Y-91343606D01*
X128816897Y-91056681D02*
X128965739Y-91900802D01*
X129029172Y-91986325D01*
X129131232Y-92016682D01*
X129225024Y-92000144D01*
X129553293Y-91942262D02*
X129437527Y-91285723D01*
X129379645Y-90957454D02*
X129341018Y-91012618D01*
X129396183Y-91051245D01*
X129434809Y-90996081D01*
X129379645Y-90957454D01*
X129396183Y-91051245D01*
X129812692Y-91219571D02*
X130162936Y-91834765D01*
X130281648Y-91136882D01*
X131139475Y-91614221D02*
X131053952Y-91677655D01*
X130866370Y-91710731D01*
X130764310Y-91680373D01*
X130700876Y-91594851D01*
X130634724Y-91219686D01*
X130665082Y-91117626D01*
X130750604Y-91054192D01*
X130938187Y-91021116D01*
X131040247Y-91051474D01*
X131103681Y-91136996D01*
X131120218Y-91230788D01*
X130667800Y-91407268D01*
X132193381Y-90461316D02*
X132333953Y-91258542D01*
X132397387Y-91344064D01*
X132452552Y-91382690D01*
X132554612Y-91413048D01*
X132742194Y-91379972D01*
X132827716Y-91316539D01*
X132866343Y-91261374D01*
X132896701Y-91159314D01*
X132756128Y-90362089D01*
X133343568Y-91225580D02*
X133492524Y-91247669D01*
X133727002Y-91206324D01*
X133812524Y-91142891D01*
X133851151Y-91087726D01*
X133881508Y-90985666D01*
X133864971Y-90891875D01*
X133801537Y-90806352D01*
X133746372Y-90767726D01*
X133644312Y-90737368D01*
X133448461Y-90723548D01*
X133346401Y-90693191D01*
X133291236Y-90654564D01*
X133227803Y-90569042D01*
X133211265Y-90475251D01*
X133241622Y-90373190D01*
X133280249Y-90318026D01*
X133365771Y-90254592D01*
X133600249Y-90213247D01*
X133749205Y-90235336D01*
X134573955Y-90525093D02*
X134722911Y-90547182D01*
X134778076Y-90585809D01*
X134841509Y-90671331D01*
X134866316Y-90812018D01*
X134835959Y-90914078D01*
X134797332Y-90969242D01*
X134711810Y-91032676D01*
X134336645Y-91098828D01*
X134162997Y-90114020D01*
X134491266Y-90056137D01*
X134593326Y-90086495D01*
X134648491Y-90125122D01*
X134711924Y-90210644D01*
X134728462Y-90304435D01*
X134698104Y-90406495D01*
X134659478Y-90461660D01*
X134573955Y-90525093D01*
X134245686Y-90582976D01*
X135255301Y-90550015D02*
X136005631Y-90417711D01*
X137086948Y-90517168D02*
X137048321Y-90572332D01*
X136915903Y-90644035D01*
X136822112Y-90660573D01*
X136673156Y-90638484D01*
X136562827Y-90561231D01*
X136499394Y-90475708D01*
X136419422Y-90296395D01*
X136394615Y-90155708D01*
X136408435Y-89959857D01*
X136438793Y-89857797D01*
X136516046Y-89747467D01*
X136648464Y-89675765D01*
X136742255Y-89659227D01*
X136891211Y-89681316D01*
X136946375Y-89719942D01*
X138184917Y-89888383D02*
X138513186Y-89830501D01*
X138744832Y-90321545D02*
X138275876Y-90404235D01*
X138102228Y-89419427D01*
X138571184Y-89336738D01*
X139111728Y-90208498D02*
X139213788Y-90238856D01*
X139401370Y-90205780D01*
X139486893Y-90142346D01*
X139517250Y-90040286D01*
X139508981Y-89993391D01*
X139445548Y-89907868D01*
X139343488Y-89877511D01*
X139202801Y-89902318D01*
X139100741Y-89871960D01*
X139037307Y-89786438D01*
X139029038Y-89739542D01*
X139059396Y-89637482D01*
X139144918Y-89574048D01*
X139285605Y-89549241D01*
X139387665Y-89579599D01*
X139848352Y-89450014D02*
X140022000Y-90434822D01*
X139856621Y-89496909D02*
X139942143Y-89433476D01*
X140129726Y-89400400D01*
X140231786Y-89430758D01*
X140286951Y-89469384D01*
X140350384Y-89554907D01*
X140399998Y-89836280D01*
X140369640Y-89938341D01*
X140331014Y-89993505D01*
X140245491Y-90056939D01*
X140057909Y-90090014D01*
X139955849Y-90059657D01*
X140587695Y-88981172D02*
X141197338Y-88873676D01*
X140935220Y-89306723D01*
X141075907Y-89281916D01*
X141177967Y-89312274D01*
X141233132Y-89350901D01*
X141296565Y-89436423D01*
X141337910Y-89670901D01*
X141307552Y-89772961D01*
X141268926Y-89828126D01*
X141183403Y-89891559D01*
X140902030Y-89941173D01*
X140799970Y-89910815D01*
X140744805Y-89872189D01*
X141589040Y-88901315D02*
X141627667Y-88846151D01*
X141713189Y-88782717D01*
X141947667Y-88741372D01*
X142049728Y-88771730D01*
X142104892Y-88810357D01*
X142168326Y-88895879D01*
X142184864Y-88989670D01*
X142162775Y-89138626D01*
X141699255Y-89800601D01*
X142308898Y-89693104D01*
X142664807Y-89243519D02*
X143415137Y-89111215D01*
X143895080Y-89365064D02*
X144044036Y-89387153D01*
X144278514Y-89345808D01*
X144364036Y-89282374D01*
X144402662Y-89227210D01*
X144433020Y-89125150D01*
X144416482Y-89031358D01*
X144353049Y-88945836D01*
X144297884Y-88907210D01*
X144195824Y-88876852D01*
X143999973Y-88863032D01*
X143897912Y-88832674D01*
X143842748Y-88794048D01*
X143779314Y-88708526D01*
X143762776Y-88614734D01*
X143793134Y-88512674D01*
X143831761Y-88457510D01*
X143917283Y-88394076D01*
X144151761Y-88352731D01*
X144300717Y-88374820D01*
X144684151Y-88355564D02*
X144722777Y-88300399D01*
X144808299Y-88236966D01*
X145042778Y-88195621D01*
X145144838Y-88225979D01*
X145200002Y-88264605D01*
X145263436Y-88350128D01*
X145279974Y-88443919D01*
X145257885Y-88592875D01*
X144794365Y-89254849D01*
X145404008Y-89147353D01*
X146485440Y-88424777D02*
X146813709Y-88366894D01*
X147045354Y-88857939D02*
X146576398Y-88940629D01*
X146402750Y-87955821D01*
X146871706Y-87873132D01*
X147257858Y-88143518D02*
X147608102Y-88758712D01*
X147726814Y-88060828D01*
X148639805Y-88576795D02*
X148548846Y-88060943D01*
X148485413Y-87975421D01*
X148383353Y-87945063D01*
X148195770Y-87978139D01*
X148110248Y-88041572D01*
X148631536Y-88529899D02*
X148546014Y-88593333D01*
X148311536Y-88634677D01*
X148209476Y-88604320D01*
X148146042Y-88518797D01*
X148129504Y-88425006D01*
X148159862Y-88322946D01*
X148245384Y-88259512D01*
X148479862Y-88218168D01*
X148565384Y-88154734D01*
X149249448Y-88469298D02*
X149147388Y-88438940D01*
X149083954Y-88353418D01*
X148935113Y-87509297D01*
X149930908Y-87672187D02*
X150046673Y-88328726D01*
X149508847Y-87746608D02*
X149599806Y-88262460D01*
X149663239Y-88347982D01*
X149765300Y-88378340D01*
X149905986Y-88353533D01*
X149991509Y-88290099D01*
X150030135Y-88234935D01*
X150937690Y-88171616D02*
X150846731Y-87655764D01*
X150783298Y-87570242D01*
X150681238Y-87539884D01*
X150493655Y-87572960D01*
X150408133Y-87636393D01*
X150929421Y-88124720D02*
X150843899Y-88188153D01*
X150609421Y-88229498D01*
X150507360Y-88199141D01*
X150443927Y-88113618D01*
X150427389Y-88019827D01*
X150457747Y-87917767D01*
X150543269Y-87854333D01*
X150777747Y-87812989D01*
X150863269Y-87749555D01*
X151150194Y-87457194D02*
X151525358Y-87391043D01*
X151232998Y-87104118D02*
X151381839Y-87948239D01*
X151445272Y-88033761D01*
X151547333Y-88064119D01*
X151641124Y-88047581D01*
X151969393Y-87989698D02*
X151853628Y-87333160D01*
X151795745Y-87004891D02*
X151757118Y-87060055D01*
X151812283Y-87098682D01*
X151850910Y-87043517D01*
X151795745Y-87004891D01*
X151812283Y-87098682D01*
X152579036Y-87882202D02*
X152476976Y-87851844D01*
X152421811Y-87813218D01*
X152358378Y-87727695D01*
X152308764Y-87446322D01*
X152339122Y-87344261D01*
X152377748Y-87289097D01*
X152463271Y-87225663D01*
X152603957Y-87200857D01*
X152706018Y-87231214D01*
X152761182Y-87269841D01*
X152824616Y-87355363D01*
X152874229Y-87636737D01*
X152843872Y-87738797D01*
X152805245Y-87793961D01*
X152719723Y-87857395D01*
X152579036Y-87882202D01*
X153213600Y-87093360D02*
X153329366Y-87749899D01*
X153230138Y-87187151D02*
X153268765Y-87131987D01*
X153354287Y-87068553D01*
X153494974Y-87043746D01*
X153597034Y-87074104D01*
X153660468Y-87159626D01*
X153751426Y-87675478D01*
X154970712Y-87460485D02*
X154797064Y-86475677D01*
X155533459Y-87361257D02*
X155012171Y-86872931D01*
X155359811Y-86376450D02*
X154896291Y-87038424D01*
X155955520Y-87286837D02*
X155839754Y-86630298D01*
X155781872Y-86302029D02*
X155743245Y-86357194D01*
X155798410Y-86395820D01*
X155837036Y-86340656D01*
X155781872Y-86302029D01*
X155798410Y-86395820D01*
X156168024Y-86572415D02*
X156543188Y-86506264D01*
X156250828Y-86219339D02*
X156399669Y-87063460D01*
X156463102Y-87148983D01*
X156565163Y-87179340D01*
X156658954Y-87162802D01*
X140367772Y-53193843D02*
X140903882Y-52884319D01*
X140805684Y-53380900D01*
X140929401Y-53309471D01*
X141035690Y-53303092D01*
X141100738Y-53320521D01*
X141189597Y-53379191D01*
X141308644Y-53585387D01*
X141315024Y-53691675D01*
X141297594Y-53756724D01*
X141238925Y-53845582D01*
X140991489Y-53988440D01*
X140885201Y-53994819D01*
X140820152Y-53977390D01*
X141792466Y-53471010D02*
X141816276Y-53512249D01*
X141822655Y-53618537D01*
X141805225Y-53683586D01*
X141604951Y-52479557D02*
X142141062Y-52170033D01*
X142042863Y-52666614D01*
X142166581Y-52595186D01*
X142272869Y-52588806D01*
X142337918Y-52606236D01*
X142426776Y-52664905D01*
X142545824Y-52871101D01*
X142552203Y-52977390D01*
X142534774Y-53042438D01*
X142476104Y-53131297D01*
X142228669Y-53274154D01*
X142122380Y-53280534D01*
X142057332Y-53263104D01*
X142388497Y-52027176D02*
X143177173Y-52726535D01*
X142965848Y-51693843D01*
X136490171Y-55437939D02*
X136383882Y-55444319D01*
X136260165Y-55515747D01*
X136160256Y-55628415D01*
X136125397Y-55758513D01*
X136131776Y-55864801D01*
X136185775Y-56053568D01*
X136257204Y-56177286D01*
X136393681Y-56318434D01*
X136482539Y-56377103D01*
X136612637Y-56411962D01*
X136760165Y-56381773D01*
X136842643Y-56334154D01*
X136942552Y-56221486D01*
X136959981Y-56156437D01*
X136793315Y-55867762D01*
X136628357Y-55963000D01*
X137378754Y-56024630D02*
X136878754Y-55158605D01*
X137873626Y-55738916D01*
X137373626Y-54872890D01*
X138286019Y-55500821D02*
X137786019Y-54634795D01*
X137992215Y-54515747D01*
X138139743Y-54485558D01*
X138269840Y-54520418D01*
X138358699Y-54579087D01*
X138495176Y-54720235D01*
X138566605Y-54843952D01*
X138620604Y-55032719D01*
X138626983Y-55139007D01*
X138592124Y-55269105D01*
X138492215Y-55381773D01*
X138286019Y-55500821D01*
X146361852Y-50825106D02*
X145835082Y-50579380D01*
X145866981Y-51110821D02*
X145366981Y-50244795D01*
X145696895Y-50054319D01*
X145803183Y-50047939D01*
X145868232Y-50065369D01*
X145957091Y-50124038D01*
X146028519Y-50247756D01*
X146034899Y-50354044D01*
X146017469Y-50419093D01*
X145958800Y-50507951D01*
X145628886Y-50698427D01*
X146150528Y-49792414D02*
X147227878Y-50325106D01*
X146727878Y-49459081D02*
X146650528Y-50658440D01*
X143216361Y-51576700D02*
X143711233Y-51290986D01*
X143963797Y-52299868D02*
X143463797Y-51433843D01*
X143917429Y-51171938D02*
X144994780Y-51704630D01*
X144494780Y-50838605D02*
X144417429Y-52037963D01*
X141623809Y-146522380D02*
X142242857Y-146522380D01*
X141909523Y-146903333D01*
X142052380Y-146903333D01*
X142147619Y-146950952D01*
X142195238Y-146998571D01*
X142242857Y-147093809D01*
X142242857Y-147331904D01*
X142195238Y-147427142D01*
X142147619Y-147474761D01*
X142052380Y-147522380D01*
X141766666Y-147522380D01*
X141671428Y-147474761D01*
X141623809Y-147427142D01*
X142719047Y-147474761D02*
X142719047Y-147522380D01*
X142671428Y-147617619D01*
X142623809Y-147665238D01*
X143052380Y-146522380D02*
X143671428Y-146522380D01*
X143338095Y-146903333D01*
X143480952Y-146903333D01*
X143576190Y-146950952D01*
X143623809Y-146998571D01*
X143671428Y-147093809D01*
X143671428Y-147331904D01*
X143623809Y-147427142D01*
X143576190Y-147474761D01*
X143480952Y-147522380D01*
X143195238Y-147522380D01*
X143100000Y-147474761D01*
X143052380Y-147427142D01*
X143957142Y-146522380D02*
X144290476Y-147522380D01*
X144623809Y-146522380D01*
X142054285Y-144095714D02*
X142054285Y-144762380D01*
X141816190Y-143714761D02*
X141578095Y-144429047D01*
X142197142Y-144429047D01*
X142530476Y-143857619D02*
X142578095Y-143810000D01*
X142673333Y-143762380D01*
X142911428Y-143762380D01*
X143006666Y-143810000D01*
X143054285Y-143857619D01*
X143101904Y-143952857D01*
X143101904Y-144048095D01*
X143054285Y-144190952D01*
X142482857Y-144762380D01*
X143101904Y-144762380D01*
X142054285Y-141635714D02*
X142054285Y-142302380D01*
X141816190Y-141254761D02*
X141578095Y-141969047D01*
X142197142Y-141969047D01*
X143101904Y-142302380D02*
X142530476Y-142302380D01*
X142816190Y-142302380D02*
X142816190Y-141302380D01*
X142720952Y-141445238D01*
X142625714Y-141540476D01*
X142530476Y-141588095D01*
X142084285Y-139135714D02*
X142084285Y-139802380D01*
X141846190Y-138754761D02*
X141608095Y-139469047D01*
X142227142Y-139469047D01*
X142798571Y-138802380D02*
X142893809Y-138802380D01*
X142989047Y-138850000D01*
X143036666Y-138897619D01*
X143084285Y-138992857D01*
X143131904Y-139183333D01*
X143131904Y-139421428D01*
X143084285Y-139611904D01*
X143036666Y-139707142D01*
X142989047Y-139754761D01*
X142893809Y-139802380D01*
X142798571Y-139802380D01*
X142703333Y-139754761D01*
X142655714Y-139707142D01*
X142608095Y-139611904D01*
X142560476Y-139421428D01*
X142560476Y-139183333D01*
X142608095Y-138992857D01*
X142655714Y-138897619D01*
X142703333Y-138850000D01*
X142798571Y-138802380D01*
X141630476Y-136332380D02*
X142249523Y-136332380D01*
X141916190Y-136713333D01*
X142059047Y-136713333D01*
X142154285Y-136760952D01*
X142201904Y-136808571D01*
X142249523Y-136903809D01*
X142249523Y-137141904D01*
X142201904Y-137237142D01*
X142154285Y-137284761D01*
X142059047Y-137332380D01*
X141773333Y-137332380D01*
X141678095Y-137284761D01*
X141630476Y-137237142D01*
X142725714Y-137332380D02*
X142916190Y-137332380D01*
X143011428Y-137284761D01*
X143059047Y-137237142D01*
X143154285Y-137094285D01*
X143201904Y-136903809D01*
X143201904Y-136522857D01*
X143154285Y-136427619D01*
X143106666Y-136380000D01*
X143011428Y-136332380D01*
X142820952Y-136332380D01*
X142725714Y-136380000D01*
X142678095Y-136427619D01*
X142630476Y-136522857D01*
X142630476Y-136760952D01*
X142678095Y-136856190D01*
X142725714Y-136903809D01*
X142820952Y-136951428D01*
X143011428Y-136951428D01*
X143106666Y-136903809D01*
X143154285Y-136856190D01*
X143201904Y-136760952D01*
X141600476Y-133622380D02*
X142219523Y-133622380D01*
X141886190Y-134003333D01*
X142029047Y-134003333D01*
X142124285Y-134050952D01*
X142171904Y-134098571D01*
X142219523Y-134193809D01*
X142219523Y-134431904D01*
X142171904Y-134527142D01*
X142124285Y-134574761D01*
X142029047Y-134622380D01*
X141743333Y-134622380D01*
X141648095Y-134574761D01*
X141600476Y-134527142D01*
X142790952Y-134050952D02*
X142695714Y-134003333D01*
X142648095Y-133955714D01*
X142600476Y-133860476D01*
X142600476Y-133812857D01*
X142648095Y-133717619D01*
X142695714Y-133670000D01*
X142790952Y-133622380D01*
X142981428Y-133622380D01*
X143076666Y-133670000D01*
X143124285Y-133717619D01*
X143171904Y-133812857D01*
X143171904Y-133860476D01*
X143124285Y-133955714D01*
X143076666Y-134003333D01*
X142981428Y-134050952D01*
X142790952Y-134050952D01*
X142695714Y-134098571D01*
X142648095Y-134146190D01*
X142600476Y-134241428D01*
X142600476Y-134431904D01*
X142648095Y-134527142D01*
X142695714Y-134574761D01*
X142790952Y-134622380D01*
X142981428Y-134622380D01*
X143076666Y-134574761D01*
X143124285Y-134527142D01*
X143171904Y-134431904D01*
X143171904Y-134241428D01*
X143124285Y-134146190D01*
X143076666Y-134098571D01*
X142981428Y-134050952D01*
X141600476Y-131102380D02*
X142219523Y-131102380D01*
X141886190Y-131483333D01*
X142029047Y-131483333D01*
X142124285Y-131530952D01*
X142171904Y-131578571D01*
X142219523Y-131673809D01*
X142219523Y-131911904D01*
X142171904Y-132007142D01*
X142124285Y-132054761D01*
X142029047Y-132102380D01*
X141743333Y-132102380D01*
X141648095Y-132054761D01*
X141600476Y-132007142D01*
X142552857Y-131102380D02*
X143219523Y-131102380D01*
X142790952Y-132102380D01*
X141620476Y-128562380D02*
X142239523Y-128562380D01*
X141906190Y-128943333D01*
X142049047Y-128943333D01*
X142144285Y-128990952D01*
X142191904Y-129038571D01*
X142239523Y-129133809D01*
X142239523Y-129371904D01*
X142191904Y-129467142D01*
X142144285Y-129514761D01*
X142049047Y-129562380D01*
X141763333Y-129562380D01*
X141668095Y-129514761D01*
X141620476Y-129467142D01*
X143096666Y-128562380D02*
X142906190Y-128562380D01*
X142810952Y-128610000D01*
X142763333Y-128657619D01*
X142668095Y-128800476D01*
X142620476Y-128990952D01*
X142620476Y-129371904D01*
X142668095Y-129467142D01*
X142715714Y-129514761D01*
X142810952Y-129562380D01*
X143001428Y-129562380D01*
X143096666Y-129514761D01*
X143144285Y-129467142D01*
X143191904Y-129371904D01*
X143191904Y-129133809D01*
X143144285Y-129038571D01*
X143096666Y-128990952D01*
X143001428Y-128943333D01*
X142810952Y-128943333D01*
X142715714Y-128990952D01*
X142668095Y-129038571D01*
X142620476Y-129133809D01*
X141640476Y-126002380D02*
X142259523Y-126002380D01*
X141926190Y-126383333D01*
X142069047Y-126383333D01*
X142164285Y-126430952D01*
X142211904Y-126478571D01*
X142259523Y-126573809D01*
X142259523Y-126811904D01*
X142211904Y-126907142D01*
X142164285Y-126954761D01*
X142069047Y-127002380D01*
X141783333Y-127002380D01*
X141688095Y-126954761D01*
X141640476Y-126907142D01*
X143164285Y-126002380D02*
X142688095Y-126002380D01*
X142640476Y-126478571D01*
X142688095Y-126430952D01*
X142783333Y-126383333D01*
X143021428Y-126383333D01*
X143116666Y-126430952D01*
X143164285Y-126478571D01*
X143211904Y-126573809D01*
X143211904Y-126811904D01*
X143164285Y-126907142D01*
X143116666Y-126954761D01*
X143021428Y-127002380D01*
X142783333Y-127002380D01*
X142688095Y-126954761D01*
X142640476Y-126907142D01*
X141620476Y-123582380D02*
X142239523Y-123582380D01*
X141906190Y-123963333D01*
X142049047Y-123963333D01*
X142144285Y-124010952D01*
X142191904Y-124058571D01*
X142239523Y-124153809D01*
X142239523Y-124391904D01*
X142191904Y-124487142D01*
X142144285Y-124534761D01*
X142049047Y-124582380D01*
X141763333Y-124582380D01*
X141668095Y-124534761D01*
X141620476Y-124487142D01*
X143096666Y-123915714D02*
X143096666Y-124582380D01*
X142858571Y-123534761D02*
X142620476Y-124249047D01*
X143239523Y-124249047D01*
X141650476Y-121042380D02*
X142269523Y-121042380D01*
X141936190Y-121423333D01*
X142079047Y-121423333D01*
X142174285Y-121470952D01*
X142221904Y-121518571D01*
X142269523Y-121613809D01*
X142269523Y-121851904D01*
X142221904Y-121947142D01*
X142174285Y-121994761D01*
X142079047Y-122042380D01*
X141793333Y-122042380D01*
X141698095Y-121994761D01*
X141650476Y-121947142D01*
X142602857Y-121042380D02*
X143221904Y-121042380D01*
X142888571Y-121423333D01*
X143031428Y-121423333D01*
X143126666Y-121470952D01*
X143174285Y-121518571D01*
X143221904Y-121613809D01*
X143221904Y-121851904D01*
X143174285Y-121947142D01*
X143126666Y-121994761D01*
X143031428Y-122042380D01*
X142745714Y-122042380D01*
X142650476Y-121994761D01*
X142602857Y-121947142D01*
X141658095Y-118547619D02*
X141705714Y-118500000D01*
X141800952Y-118452380D01*
X142039047Y-118452380D01*
X142134285Y-118500000D01*
X142181904Y-118547619D01*
X142229523Y-118642857D01*
X142229523Y-118738095D01*
X142181904Y-118880952D01*
X141610476Y-119452380D01*
X142229523Y-119452380D01*
X142848571Y-118452380D02*
X142943809Y-118452380D01*
X143039047Y-118500000D01*
X143086666Y-118547619D01*
X143134285Y-118642857D01*
X143181904Y-118833333D01*
X143181904Y-119071428D01*
X143134285Y-119261904D01*
X143086666Y-119357142D01*
X143039047Y-119404761D01*
X142943809Y-119452380D01*
X142848571Y-119452380D01*
X142753333Y-119404761D01*
X142705714Y-119357142D01*
X142658095Y-119261904D01*
X142610476Y-119071428D01*
X142610476Y-118833333D01*
X142658095Y-118642857D01*
X142705714Y-118547619D01*
X142753333Y-118500000D01*
X142848571Y-118452380D01*
X142249523Y-116892380D02*
X141678095Y-116892380D01*
X141963809Y-116892380D02*
X141963809Y-115892380D01*
X141868571Y-116035238D01*
X141773333Y-116130476D01*
X141678095Y-116178095D01*
X142725714Y-116892380D02*
X142916190Y-116892380D01*
X143011428Y-116844761D01*
X143059047Y-116797142D01*
X143154285Y-116654285D01*
X143201904Y-116463809D01*
X143201904Y-116082857D01*
X143154285Y-115987619D01*
X143106666Y-115940000D01*
X143011428Y-115892380D01*
X142820952Y-115892380D01*
X142725714Y-115940000D01*
X142678095Y-115987619D01*
X142630476Y-116082857D01*
X142630476Y-116320952D01*
X142678095Y-116416190D01*
X142725714Y-116463809D01*
X142820952Y-116511428D01*
X143011428Y-116511428D01*
X143106666Y-116463809D01*
X143154285Y-116416190D01*
X143201904Y-116320952D01*
X142169523Y-114272380D02*
X141598095Y-114272380D01*
X141883809Y-114272380D02*
X141883809Y-113272380D01*
X141788571Y-113415238D01*
X141693333Y-113510476D01*
X141598095Y-113558095D01*
X142740952Y-113700952D02*
X142645714Y-113653333D01*
X142598095Y-113605714D01*
X142550476Y-113510476D01*
X142550476Y-113462857D01*
X142598095Y-113367619D01*
X142645714Y-113320000D01*
X142740952Y-113272380D01*
X142931428Y-113272380D01*
X143026666Y-113320000D01*
X143074285Y-113367619D01*
X143121904Y-113462857D01*
X143121904Y-113510476D01*
X143074285Y-113605714D01*
X143026666Y-113653333D01*
X142931428Y-113700952D01*
X142740952Y-113700952D01*
X142645714Y-113748571D01*
X142598095Y-113796190D01*
X142550476Y-113891428D01*
X142550476Y-114081904D01*
X142598095Y-114177142D01*
X142645714Y-114224761D01*
X142740952Y-114272380D01*
X142931428Y-114272380D01*
X143026666Y-114224761D01*
X143074285Y-114177142D01*
X143121904Y-114081904D01*
X143121904Y-113891428D01*
X143074285Y-113796190D01*
X143026666Y-113748571D01*
X142931428Y-113700952D01*
X142239523Y-111752380D02*
X141668095Y-111752380D01*
X141953809Y-111752380D02*
X141953809Y-110752380D01*
X141858571Y-110895238D01*
X141763333Y-110990476D01*
X141668095Y-111038095D01*
X142572857Y-110752380D02*
X143239523Y-110752380D01*
X142810952Y-111752380D01*
X142269523Y-109252380D02*
X141698095Y-109252380D01*
X141983809Y-109252380D02*
X141983809Y-108252380D01*
X141888571Y-108395238D01*
X141793333Y-108490476D01*
X141698095Y-108538095D01*
X143126666Y-108252380D02*
X142936190Y-108252380D01*
X142840952Y-108300000D01*
X142793333Y-108347619D01*
X142698095Y-108490476D01*
X142650476Y-108680952D01*
X142650476Y-109061904D01*
X142698095Y-109157142D01*
X142745714Y-109204761D01*
X142840952Y-109252380D01*
X143031428Y-109252380D01*
X143126666Y-109204761D01*
X143174285Y-109157142D01*
X143221904Y-109061904D01*
X143221904Y-108823809D01*
X143174285Y-108728571D01*
X143126666Y-108680952D01*
X143031428Y-108633333D01*
X142840952Y-108633333D01*
X142745714Y-108680952D01*
X142698095Y-108728571D01*
X142650476Y-108823809D01*
X146759523Y-147612380D02*
X146188095Y-147612380D01*
X146473809Y-147612380D02*
X146473809Y-146612380D01*
X146378571Y-146755238D01*
X146283333Y-146850476D01*
X146188095Y-146898095D01*
X147664285Y-146612380D02*
X147188095Y-146612380D01*
X147140476Y-147088571D01*
X147188095Y-147040952D01*
X147283333Y-146993333D01*
X147521428Y-146993333D01*
X147616666Y-147040952D01*
X147664285Y-147088571D01*
X147711904Y-147183809D01*
X147711904Y-147421904D01*
X147664285Y-147517142D01*
X147616666Y-147564761D01*
X147521428Y-147612380D01*
X147283333Y-147612380D01*
X147188095Y-147564761D01*
X147140476Y-147517142D01*
X146709523Y-144932380D02*
X146138095Y-144932380D01*
X146423809Y-144932380D02*
X146423809Y-143932380D01*
X146328571Y-144075238D01*
X146233333Y-144170476D01*
X146138095Y-144218095D01*
X147566666Y-144265714D02*
X147566666Y-144932380D01*
X147328571Y-143884761D02*
X147090476Y-144599047D01*
X147709523Y-144599047D01*
X146689523Y-142382380D02*
X146118095Y-142382380D01*
X146403809Y-142382380D02*
X146403809Y-141382380D01*
X146308571Y-141525238D01*
X146213333Y-141620476D01*
X146118095Y-141668095D01*
X147022857Y-141382380D02*
X147641904Y-141382380D01*
X147308571Y-141763333D01*
X147451428Y-141763333D01*
X147546666Y-141810952D01*
X147594285Y-141858571D01*
X147641904Y-141953809D01*
X147641904Y-142191904D01*
X147594285Y-142287142D01*
X147546666Y-142334761D01*
X147451428Y-142382380D01*
X147165714Y-142382380D01*
X147070476Y-142334761D01*
X147022857Y-142287142D01*
X146659523Y-139912380D02*
X146088095Y-139912380D01*
X146373809Y-139912380D02*
X146373809Y-138912380D01*
X146278571Y-139055238D01*
X146183333Y-139150476D01*
X146088095Y-139198095D01*
X147040476Y-139007619D02*
X147088095Y-138960000D01*
X147183333Y-138912380D01*
X147421428Y-138912380D01*
X147516666Y-138960000D01*
X147564285Y-139007619D01*
X147611904Y-139102857D01*
X147611904Y-139198095D01*
X147564285Y-139340952D01*
X146992857Y-139912380D01*
X147611904Y-139912380D01*
X146739523Y-137252380D02*
X146168095Y-137252380D01*
X146453809Y-137252380D02*
X146453809Y-136252380D01*
X146358571Y-136395238D01*
X146263333Y-136490476D01*
X146168095Y-136538095D01*
X147691904Y-137252380D02*
X147120476Y-137252380D01*
X147406190Y-137252380D02*
X147406190Y-136252380D01*
X147310952Y-136395238D01*
X147215714Y-136490476D01*
X147120476Y-136538095D01*
X146659523Y-134742380D02*
X146088095Y-134742380D01*
X146373809Y-134742380D02*
X146373809Y-133742380D01*
X146278571Y-133885238D01*
X146183333Y-133980476D01*
X146088095Y-134028095D01*
X147278571Y-133742380D02*
X147373809Y-133742380D01*
X147469047Y-133790000D01*
X147516666Y-133837619D01*
X147564285Y-133932857D01*
X147611904Y-134123333D01*
X147611904Y-134361428D01*
X147564285Y-134551904D01*
X147516666Y-134647142D01*
X147469047Y-134694761D01*
X147373809Y-134742380D01*
X147278571Y-134742380D01*
X147183333Y-134694761D01*
X147135714Y-134647142D01*
X147088095Y-134551904D01*
X147040476Y-134361428D01*
X147040476Y-134123333D01*
X147088095Y-133932857D01*
X147135714Y-133837619D01*
X147183333Y-133790000D01*
X147278571Y-133742380D01*
X145609523Y-132164761D02*
X145752380Y-132212380D01*
X145990476Y-132212380D01*
X146085714Y-132164761D01*
X146133333Y-132117142D01*
X146180952Y-132021904D01*
X146180952Y-131926666D01*
X146133333Y-131831428D01*
X146085714Y-131783809D01*
X145990476Y-131736190D01*
X145800000Y-131688571D01*
X145704761Y-131640952D01*
X145657142Y-131593333D01*
X145609523Y-131498095D01*
X145609523Y-131402857D01*
X145657142Y-131307619D01*
X145704761Y-131260000D01*
X145800000Y-131212380D01*
X146038095Y-131212380D01*
X146180952Y-131260000D01*
X147180952Y-132117142D02*
X147133333Y-132164761D01*
X146990476Y-132212380D01*
X146895238Y-132212380D01*
X146752380Y-132164761D01*
X146657142Y-132069523D01*
X146609523Y-131974285D01*
X146561904Y-131783809D01*
X146561904Y-131640952D01*
X146609523Y-131450476D01*
X146657142Y-131355238D01*
X146752380Y-131260000D01*
X146895238Y-131212380D01*
X146990476Y-131212380D01*
X147133333Y-131260000D01*
X147180952Y-131307619D01*
X148085714Y-132212380D02*
X147609523Y-132212380D01*
X147609523Y-131212380D01*
X145465714Y-129714761D02*
X145608571Y-129762380D01*
X145846666Y-129762380D01*
X145941904Y-129714761D01*
X145989523Y-129667142D01*
X146037142Y-129571904D01*
X146037142Y-129476666D01*
X145989523Y-129381428D01*
X145941904Y-129333809D01*
X145846666Y-129286190D01*
X145656190Y-129238571D01*
X145560952Y-129190952D01*
X145513333Y-129143333D01*
X145465714Y-129048095D01*
X145465714Y-128952857D01*
X145513333Y-128857619D01*
X145560952Y-128810000D01*
X145656190Y-128762380D01*
X145894285Y-128762380D01*
X146037142Y-128810000D01*
X146465714Y-129762380D02*
X146465714Y-128762380D01*
X146703809Y-128762380D01*
X146846666Y-128810000D01*
X146941904Y-128905238D01*
X146989523Y-129000476D01*
X147037142Y-129190952D01*
X147037142Y-129333809D01*
X146989523Y-129524285D01*
X146941904Y-129619523D01*
X146846666Y-129714761D01*
X146703809Y-129762380D01*
X146465714Y-129762380D01*
X147418095Y-129476666D02*
X147894285Y-129476666D01*
X147322857Y-129762380D02*
X147656190Y-128762380D01*
X147989523Y-129762380D01*
X146566190Y-126132380D02*
X146661428Y-126132380D01*
X146756666Y-126180000D01*
X146804285Y-126227619D01*
X146851904Y-126322857D01*
X146899523Y-126513333D01*
X146899523Y-126751428D01*
X146851904Y-126941904D01*
X146804285Y-127037142D01*
X146756666Y-127084761D01*
X146661428Y-127132380D01*
X146566190Y-127132380D01*
X146470952Y-127084761D01*
X146423333Y-127037142D01*
X146375714Y-126941904D01*
X146328095Y-126751428D01*
X146328095Y-126513333D01*
X146375714Y-126322857D01*
X146423333Y-126227619D01*
X146470952Y-126180000D01*
X146566190Y-126132380D01*
X147232857Y-126132380D02*
X147899523Y-126132380D01*
X147470952Y-127132380D01*
X146526190Y-123522380D02*
X146621428Y-123522380D01*
X146716666Y-123570000D01*
X146764285Y-123617619D01*
X146811904Y-123712857D01*
X146859523Y-123903333D01*
X146859523Y-124141428D01*
X146811904Y-124331904D01*
X146764285Y-124427142D01*
X146716666Y-124474761D01*
X146621428Y-124522380D01*
X146526190Y-124522380D01*
X146430952Y-124474761D01*
X146383333Y-124427142D01*
X146335714Y-124331904D01*
X146288095Y-124141428D01*
X146288095Y-123903333D01*
X146335714Y-123712857D01*
X146383333Y-123617619D01*
X146430952Y-123570000D01*
X146526190Y-123522380D01*
X147716666Y-123522380D02*
X147526190Y-123522380D01*
X147430952Y-123570000D01*
X147383333Y-123617619D01*
X147288095Y-123760476D01*
X147240476Y-123950952D01*
X147240476Y-124331904D01*
X147288095Y-124427142D01*
X147335714Y-124474761D01*
X147430952Y-124522380D01*
X147621428Y-124522380D01*
X147716666Y-124474761D01*
X147764285Y-124427142D01*
X147811904Y-124331904D01*
X147811904Y-124093809D01*
X147764285Y-123998571D01*
X147716666Y-123950952D01*
X147621428Y-123903333D01*
X147430952Y-123903333D01*
X147335714Y-123950952D01*
X147288095Y-123998571D01*
X147240476Y-124093809D01*
X146606190Y-121152380D02*
X146701428Y-121152380D01*
X146796666Y-121200000D01*
X146844285Y-121247619D01*
X146891904Y-121342857D01*
X146939523Y-121533333D01*
X146939523Y-121771428D01*
X146891904Y-121961904D01*
X146844285Y-122057142D01*
X146796666Y-122104761D01*
X146701428Y-122152380D01*
X146606190Y-122152380D01*
X146510952Y-122104761D01*
X146463333Y-122057142D01*
X146415714Y-121961904D01*
X146368095Y-121771428D01*
X146368095Y-121533333D01*
X146415714Y-121342857D01*
X146463333Y-121247619D01*
X146510952Y-121200000D01*
X146606190Y-121152380D01*
X147844285Y-121152380D02*
X147368095Y-121152380D01*
X147320476Y-121628571D01*
X147368095Y-121580952D01*
X147463333Y-121533333D01*
X147701428Y-121533333D01*
X147796666Y-121580952D01*
X147844285Y-121628571D01*
X147891904Y-121723809D01*
X147891904Y-121961904D01*
X147844285Y-122057142D01*
X147796666Y-122104761D01*
X147701428Y-122152380D01*
X147463333Y-122152380D01*
X147368095Y-122104761D01*
X147320476Y-122057142D01*
X146546190Y-118512380D02*
X146641428Y-118512380D01*
X146736666Y-118560000D01*
X146784285Y-118607619D01*
X146831904Y-118702857D01*
X146879523Y-118893333D01*
X146879523Y-119131428D01*
X146831904Y-119321904D01*
X146784285Y-119417142D01*
X146736666Y-119464761D01*
X146641428Y-119512380D01*
X146546190Y-119512380D01*
X146450952Y-119464761D01*
X146403333Y-119417142D01*
X146355714Y-119321904D01*
X146308095Y-119131428D01*
X146308095Y-118893333D01*
X146355714Y-118702857D01*
X146403333Y-118607619D01*
X146450952Y-118560000D01*
X146546190Y-118512380D01*
X147736666Y-118845714D02*
X147736666Y-119512380D01*
X147498571Y-118464761D02*
X147260476Y-119179047D01*
X147879523Y-119179047D01*
X146486190Y-116022380D02*
X146581428Y-116022380D01*
X146676666Y-116070000D01*
X146724285Y-116117619D01*
X146771904Y-116212857D01*
X146819523Y-116403333D01*
X146819523Y-116641428D01*
X146771904Y-116831904D01*
X146724285Y-116927142D01*
X146676666Y-116974761D01*
X146581428Y-117022380D01*
X146486190Y-117022380D01*
X146390952Y-116974761D01*
X146343333Y-116927142D01*
X146295714Y-116831904D01*
X146248095Y-116641428D01*
X146248095Y-116403333D01*
X146295714Y-116212857D01*
X146343333Y-116117619D01*
X146390952Y-116070000D01*
X146486190Y-116022380D01*
X147152857Y-116022380D02*
X147771904Y-116022380D01*
X147438571Y-116403333D01*
X147581428Y-116403333D01*
X147676666Y-116450952D01*
X147724285Y-116498571D01*
X147771904Y-116593809D01*
X147771904Y-116831904D01*
X147724285Y-116927142D01*
X147676666Y-116974761D01*
X147581428Y-117022380D01*
X147295714Y-117022380D01*
X147200476Y-116974761D01*
X147152857Y-116927142D01*
X146336190Y-113402380D02*
X146431428Y-113402380D01*
X146526666Y-113450000D01*
X146574285Y-113497619D01*
X146621904Y-113592857D01*
X146669523Y-113783333D01*
X146669523Y-114021428D01*
X146621904Y-114211904D01*
X146574285Y-114307142D01*
X146526666Y-114354761D01*
X146431428Y-114402380D01*
X146336190Y-114402380D01*
X146240952Y-114354761D01*
X146193333Y-114307142D01*
X146145714Y-114211904D01*
X146098095Y-114021428D01*
X146098095Y-113783333D01*
X146145714Y-113592857D01*
X146193333Y-113497619D01*
X146240952Y-113450000D01*
X146336190Y-113402380D01*
X147050476Y-113497619D02*
X147098095Y-113450000D01*
X147193333Y-113402380D01*
X147431428Y-113402380D01*
X147526666Y-113450000D01*
X147574285Y-113497619D01*
X147621904Y-113592857D01*
X147621904Y-113688095D01*
X147574285Y-113830952D01*
X147002857Y-114402380D01*
X147621904Y-114402380D01*
X146456190Y-110812380D02*
X146551428Y-110812380D01*
X146646666Y-110860000D01*
X146694285Y-110907619D01*
X146741904Y-111002857D01*
X146789523Y-111193333D01*
X146789523Y-111431428D01*
X146741904Y-111621904D01*
X146694285Y-111717142D01*
X146646666Y-111764761D01*
X146551428Y-111812380D01*
X146456190Y-111812380D01*
X146360952Y-111764761D01*
X146313333Y-111717142D01*
X146265714Y-111621904D01*
X146218095Y-111431428D01*
X146218095Y-111193333D01*
X146265714Y-111002857D01*
X146313333Y-110907619D01*
X146360952Y-110860000D01*
X146456190Y-110812380D01*
X147741904Y-111812380D02*
X147170476Y-111812380D01*
X147456190Y-111812380D02*
X147456190Y-110812380D01*
X147360952Y-110955238D01*
X147265714Y-111050476D01*
X147170476Y-111098095D01*
X146188095Y-108320000D02*
X146092857Y-108272380D01*
X145950000Y-108272380D01*
X145807142Y-108320000D01*
X145711904Y-108415238D01*
X145664285Y-108510476D01*
X145616666Y-108700952D01*
X145616666Y-108843809D01*
X145664285Y-109034285D01*
X145711904Y-109129523D01*
X145807142Y-109224761D01*
X145950000Y-109272380D01*
X146045238Y-109272380D01*
X146188095Y-109224761D01*
X146235714Y-109177142D01*
X146235714Y-108843809D01*
X146045238Y-108843809D01*
X146664285Y-109272380D02*
X146664285Y-108272380D01*
X147235714Y-109272380D01*
X147235714Y-108272380D01*
X147711904Y-109272380D02*
X147711904Y-108272380D01*
X147950000Y-108272380D01*
X148092857Y-108320000D01*
X148188095Y-108415238D01*
X148235714Y-108510476D01*
X148283333Y-108700952D01*
X148283333Y-108843809D01*
X148235714Y-109034285D01*
X148188095Y-109129523D01*
X148092857Y-109224761D01*
X147950000Y-109272380D01*
X147711904Y-109272380D01*
D13*
X164951687Y-64445183D02*
X168077354Y-82171723D01*
X168077354Y-82171723D02*
X161873065Y-83265707D01*
X158323930Y-65613836D02*
X164951687Y-64445183D01*
X158754344Y-65578559D02*
X161873065Y-83265707D01*
D14*
X157252465Y-64625239D02*
G75*
G03X157252465Y-64625239I-100000J0D01*
G01*
D13*
X161873065Y-83265707D02*
X161449598Y-83340375D01*
X134649152Y-69788338D02*
X134422646Y-69828277D01*
X134422646Y-69828277D02*
X134679646Y-71285792D01*
X137774819Y-87514877D02*
X137548313Y-87554817D01*
X137548313Y-87554817D02*
X137291314Y-86097301D01*
D15*
X156587226Y-64302512D02*
X156249896Y-64361992D01*
X156410104Y-63298008D02*
X156072774Y-63357488D01*
X156100104Y-61638008D02*
X155762774Y-61697488D01*
X156277226Y-62642512D02*
X155939896Y-62701992D01*
X133297248Y-62309785D02*
X133724422Y-64732412D01*
X133724422Y-64732412D02*
X135172090Y-64477149D01*
X135172090Y-64477149D02*
X134744915Y-62054522D01*
D13*
X124610000Y-75610000D02*
X124610000Y-84550000D01*
X128080000Y-75610000D02*
X130280000Y-75610000D01*
X128080000Y-84550000D02*
X130280000Y-84550000D01*
D15*
X134484664Y-52743186D02*
X135814664Y-55046814D01*
X145535148Y-46363186D02*
X134484664Y-52743186D01*
X146865148Y-48666814D02*
X135814664Y-55046814D01*
X145535148Y-46363186D02*
X146865148Y-48666814D01*
X146635000Y-45728186D02*
X147786814Y-45063186D01*
X147786814Y-45063186D02*
X148451814Y-46215000D01*
X131626268Y-73849999D02*
X131283734Y-73849999D01*
X131626268Y-72829999D02*
X131283734Y-72829999D01*
X130538733Y-87490000D02*
X130881267Y-87490000D01*
X130538733Y-86470000D02*
X130881267Y-86470000D01*
X162017226Y-61582512D02*
X161679896Y-61641992D01*
X161840104Y-60578008D02*
X161502774Y-60637488D01*
X164405369Y-84779334D02*
X164083492Y-84662180D01*
X164056508Y-85737820D02*
X163734631Y-85620666D01*
X135332512Y-66482774D02*
X135391992Y-66820104D01*
X134328008Y-66659896D02*
X134387488Y-66997226D01*
X159459670Y-87728582D02*
X157920580Y-91957199D01*
X163645966Y-87922047D02*
X162236427Y-87409016D01*
X164028582Y-94180330D02*
X165567672Y-89951713D01*
X159842286Y-93986865D02*
X161251825Y-94499895D01*
X158160006Y-53835815D02*
X157299641Y-52607087D01*
X154841760Y-51276178D02*
X151155576Y-53857272D01*
X151565577Y-56622122D02*
X152425941Y-57850850D01*
X154883822Y-59181760D02*
X158570007Y-56600666D01*
X146997777Y-55969524D02*
X145965646Y-56692230D01*
X141411161Y-59881315D02*
X142443292Y-59158609D01*
X149154425Y-59049536D02*
X146997777Y-55969524D01*
X144858355Y-64804419D02*
X141411161Y-59881315D01*
X148520000Y-148300000D02*
X151180000Y-148300000D01*
X148520000Y-110140000D02*
X148520000Y-148300000D01*
X151180000Y-110140000D02*
X151180000Y-148300000D01*
X148520000Y-110140000D02*
X151180000Y-110140000D01*
X148520000Y-108870000D02*
X148520000Y-107540000D01*
X148520000Y-107540000D02*
X149850000Y-107540000D01*
X141030000Y-148310000D02*
X139700000Y-148310000D01*
X141030000Y-146980000D02*
X141030000Y-148310000D01*
X141030000Y-145710000D02*
X138370000Y-145710000D01*
X138370000Y-145710000D02*
X138370000Y-107550000D01*
X141030000Y-145710000D02*
X141030000Y-107550000D01*
X141030000Y-107550000D02*
X138370000Y-107550000D01*
D16*
X166929292Y-66546799D02*
X166132066Y-66687371D01*
X166046544Y-66750805D01*
X166007917Y-66805969D01*
X165977560Y-66908029D01*
X166010636Y-67095612D01*
X166074069Y-67181134D01*
X166129234Y-67219761D01*
X166231294Y-67250118D01*
X167028519Y-67109546D01*
X166217360Y-68268002D02*
X166118132Y-67705255D01*
X166167746Y-67986628D02*
X167152554Y-67812980D01*
X166995329Y-67743996D01*
X166885000Y-67666743D01*
X166821566Y-67581220D01*
D10*
X153767882Y-64680658D02*
X153729255Y-64735822D01*
X153596838Y-64807525D01*
X153503046Y-64824063D01*
X153354091Y-64801974D01*
X153243761Y-64724721D01*
X153180328Y-64639199D01*
X153100356Y-64459885D01*
X153075550Y-64319198D01*
X153089369Y-64123347D01*
X153119727Y-64021287D01*
X153196980Y-63910958D01*
X153329398Y-63839255D01*
X153423189Y-63822717D01*
X153572145Y-63844806D01*
X153627310Y-63883433D01*
X154722332Y-64609070D02*
X154159585Y-64708297D01*
X154440959Y-64658684D02*
X154267310Y-63673876D01*
X154198326Y-63831101D01*
X154121073Y-63941430D01*
X154035550Y-64004863D01*
X153287882Y-63090657D02*
X153249255Y-63145821D01*
X153116838Y-63217524D01*
X153023046Y-63234062D01*
X152874091Y-63211973D01*
X152763761Y-63134720D01*
X152700328Y-63049198D01*
X152620356Y-62869884D01*
X152595550Y-62729197D01*
X152609369Y-62533346D01*
X152639727Y-62431286D01*
X152716980Y-62320957D01*
X152849398Y-62249254D01*
X152943189Y-62232716D01*
X153092145Y-62254805D01*
X153147310Y-62293432D01*
X153522475Y-62227280D02*
X153561101Y-62172115D01*
X153646624Y-62108682D01*
X153881102Y-62067337D01*
X153983162Y-62097695D01*
X154038326Y-62136321D01*
X154101760Y-62221844D01*
X154118298Y-62315635D01*
X154096209Y-62464591D01*
X153632689Y-63126565D01*
X154242332Y-63019069D01*
X135056322Y-62041673D02*
X136041130Y-61868025D01*
X136082475Y-62102503D01*
X136060386Y-62251458D01*
X135983133Y-62361787D01*
X135897611Y-62425221D01*
X135718297Y-62505192D01*
X135577610Y-62529999D01*
X135381759Y-62516180D01*
X135279699Y-62485822D01*
X135169370Y-62408569D01*
X135097667Y-62276151D01*
X135056322Y-62041673D01*
X135320929Y-63542332D02*
X135221702Y-62979585D01*
X135271315Y-63260959D02*
X136256123Y-63087310D01*
X136098898Y-63018326D01*
X135988569Y-62941073D01*
X135925136Y-62855550D01*
D16*
X133553245Y-78515407D02*
X134270101Y-78515407D01*
X134413472Y-78563198D01*
X134509053Y-78658778D01*
X134556843Y-78802149D01*
X134556843Y-78897730D01*
X134556843Y-77511809D02*
X134556843Y-78085294D01*
X134556843Y-77798551D02*
X133553245Y-77798551D01*
X133696616Y-77894132D01*
X133792197Y-77989713D01*
X133839987Y-78085294D01*
D10*
X149625424Y-45152515D02*
X149006834Y-45509658D01*
X148859307Y-45539847D01*
X148729209Y-45504987D01*
X148616541Y-45405079D01*
X148568922Y-45322600D01*
X149757231Y-45571288D02*
X149822280Y-45588717D01*
X149911138Y-45647387D01*
X150030186Y-45853583D01*
X150036565Y-45959871D01*
X150019136Y-46024920D01*
X149960467Y-46113778D01*
X149877988Y-46161397D01*
X149730461Y-46191587D01*
X148949875Y-45982429D01*
X149259398Y-46518540D01*
X128713333Y-73862380D02*
X128380000Y-73386190D01*
X128141904Y-73862380D02*
X128141904Y-72862380D01*
X128522857Y-72862380D01*
X128618095Y-72910000D01*
X128665714Y-72957619D01*
X128713333Y-73052857D01*
X128713333Y-73195714D01*
X128665714Y-73290952D01*
X128618095Y-73338571D01*
X128522857Y-73386190D01*
X128141904Y-73386190D01*
X129665714Y-73862380D02*
X129094285Y-73862380D01*
X129380000Y-73862380D02*
X129380000Y-72862380D01*
X129284761Y-73005238D01*
X129189523Y-73100476D01*
X129094285Y-73148095D01*
X127843333Y-87392380D02*
X127510000Y-86916190D01*
X127271904Y-87392380D02*
X127271904Y-86392380D01*
X127652857Y-86392380D01*
X127748095Y-86440000D01*
X127795714Y-86487619D01*
X127843333Y-86582857D01*
X127843333Y-86725714D01*
X127795714Y-86820952D01*
X127748095Y-86868571D01*
X127652857Y-86916190D01*
X127271904Y-86916190D01*
X128224285Y-86487619D02*
X128271904Y-86440000D01*
X128367142Y-86392380D01*
X128605238Y-86392380D01*
X128700476Y-86440000D01*
X128748095Y-86487619D01*
X128795714Y-86582857D01*
X128795714Y-86678095D01*
X128748095Y-86820952D01*
X128176666Y-87392380D01*
X128795714Y-87392380D01*
X161922737Y-62992724D02*
X161511778Y-62581651D01*
X161359990Y-63091952D02*
X161186342Y-62107144D01*
X161561506Y-62040992D01*
X161663567Y-62071350D01*
X161718731Y-62109977D01*
X161782165Y-62195499D01*
X161806972Y-62336186D01*
X161776614Y-62438246D01*
X161737987Y-62493410D01*
X161652465Y-62556844D01*
X161277300Y-62622996D01*
X162077358Y-61950034D02*
X162687001Y-61842537D01*
X162424883Y-62275585D01*
X162565570Y-62250778D01*
X162667630Y-62281136D01*
X162722795Y-62319762D01*
X162786229Y-62405284D01*
X162827573Y-62639762D01*
X162797216Y-62741823D01*
X162758589Y-62796987D01*
X162673067Y-62860421D01*
X162391693Y-62910035D01*
X162289633Y-62879677D01*
X162234468Y-62841050D01*
X166208661Y-86488095D02*
X166058297Y-85926616D01*
X165671693Y-86292655D02*
X166013714Y-85352962D01*
X166371692Y-85483256D01*
X166444900Y-85560576D01*
X166473360Y-85621610D01*
X166485534Y-85727392D01*
X166436674Y-85861633D01*
X166359353Y-85934841D01*
X166298320Y-85963302D01*
X166192538Y-85975476D01*
X165834560Y-85845182D01*
X167242125Y-86154794D02*
X167014111Y-86781255D01*
X167148682Y-85715382D02*
X166680646Y-86305158D01*
X167262360Y-86516884D01*
X135793825Y-66406103D02*
X136204898Y-65995144D01*
X135694597Y-65843356D02*
X136679405Y-65669708D01*
X136745557Y-66044872D01*
X136715199Y-66146933D01*
X136676572Y-66202097D01*
X136591050Y-66265531D01*
X136450363Y-66290338D01*
X136348303Y-66259980D01*
X136293139Y-66221353D01*
X136229705Y-66135831D01*
X136163553Y-65760666D01*
X136935743Y-67123471D02*
X136853053Y-66654515D01*
X136375828Y-66690309D01*
X136430993Y-66728936D01*
X136494426Y-66814458D01*
X136535771Y-67048936D01*
X136505413Y-67150996D01*
X136466787Y-67206161D01*
X136381265Y-67269595D01*
X136146787Y-67310939D01*
X136044726Y-67280582D01*
X135989562Y-67241955D01*
X135926128Y-67156433D01*
X135884783Y-66921955D01*
X135915141Y-66819895D01*
X135953768Y-66764730D01*
X141625388Y-61132876D02*
X140962265Y-61597200D01*
X140911564Y-61690834D01*
X140899870Y-61757154D01*
X140915489Y-61862482D01*
X141024741Y-62018511D01*
X141118375Y-62069212D01*
X141184695Y-62080906D01*
X141290023Y-62065287D01*
X141953146Y-61600963D01*
X142120950Y-62006655D02*
X142187271Y-62018349D01*
X142280904Y-62069050D01*
X142417470Y-62264086D01*
X142433089Y-62369414D01*
X142421395Y-62435734D01*
X142370694Y-62529368D01*
X142292679Y-62583994D01*
X142148344Y-62626926D01*
X141352499Y-62486598D01*
X141707570Y-62993692D01*
X149516666Y-105992380D02*
X149516666Y-106706666D01*
X149469047Y-106849523D01*
X149373809Y-106944761D01*
X149230952Y-106992380D01*
X149135714Y-106992380D01*
X149897619Y-105992380D02*
X150516666Y-105992380D01*
X150183333Y-106373333D01*
X150326190Y-106373333D01*
X150421428Y-106420952D01*
X150469047Y-106468571D01*
X150516666Y-106563809D01*
X150516666Y-106801904D01*
X150469047Y-106897142D01*
X150421428Y-106944761D01*
X150326190Y-106992380D01*
X150040476Y-106992380D01*
X149945238Y-106944761D01*
X149897619Y-106897142D01*
X139406666Y-105972380D02*
X139406666Y-106686666D01*
X139359047Y-106829523D01*
X139263809Y-106924761D01*
X139120952Y-106972380D01*
X139025714Y-106972380D01*
X140311428Y-106305714D02*
X140311428Y-106972380D01*
X140073333Y-105924761D02*
X139835238Y-106639047D01*
X140454285Y-106639047D01*
M02*
