G04 #@! TF.GenerationSoftware,KiCad,Pcbnew,5.1.5+dfsg1-2build2*
G04 #@! TF.CreationDate,2020-11-24T14:56:23+01:00*
G04 #@! TF.ProjectId,GreenEggs_and_Clem,47726565-6e45-4676-9773-5f616e645f43,v0.1*
G04 #@! TF.SameCoordinates,Original*
G04 #@! TF.FileFunction,Legend,Bot*
G04 #@! TF.FilePolarity,Positive*
%FSLAX46Y46*%
G04 Gerber Fmt 4.6, Leading zero omitted, Abs format (unit mm)*
G04 Created by KiCad (PCBNEW 5.1.5+dfsg1-2build2) date 2020-11-24 14:56:23*
%MOMM*%
%LPD*%
G04 APERTURE LIST*
%ADD10C,0.500000*%
%ADD11C,0.100000*%
%ADD12C,0.150000*%
%ADD13C,0.300000*%
%ADD14C,1.250000*%
%ADD15C,0.010000*%
G04 APERTURE END LIST*
D10*
X137680925Y-98706544D02*
X139213014Y-97420969D01*
X137690139Y-97828540D01*
X138355963Y-96399576D01*
X136823875Y-97685151D01*
X136710653Y-96661235D02*
X136098475Y-95931668D01*
X136395349Y-97174455D02*
X137498913Y-95378183D01*
X135538299Y-96153062D01*
X135594469Y-94738361D02*
X134864903Y-95350540D01*
X136825517Y-94575661D02*
X135594469Y-94738361D01*
X135968467Y-93554268D01*
X134810375Y-93655750D02*
X134381850Y-93145054D01*
X133395674Y-93599581D02*
X134007853Y-94329147D01*
X135539942Y-93043572D01*
X134927763Y-92314006D01*
X132110099Y-92067492D02*
X133268190Y-91966010D01*
X132844713Y-92942971D02*
X134376802Y-91657396D01*
X133887059Y-91073743D01*
X133691667Y-90989048D01*
X133557492Y-90977309D01*
X133350361Y-91026788D01*
X133131491Y-91210442D01*
X133046796Y-91405834D01*
X133035057Y-91540009D01*
X133084536Y-91747140D01*
X133574279Y-92330793D01*
X135060987Y-101029257D02*
X136593075Y-99743682D01*
X135070201Y-100151254D01*
X135736025Y-98722290D01*
X134203936Y-100007865D01*
X134090715Y-98983948D02*
X133478537Y-98254382D01*
X133775411Y-99497169D02*
X134878975Y-97700897D01*
X132918361Y-98475776D01*
X132489836Y-97965080D02*
X134021925Y-96679504D01*
X131755222Y-97089600D02*
X133181662Y-97011595D01*
X133287311Y-95804025D02*
X133146446Y-97414119D01*
X132006784Y-95759594D02*
X131578259Y-95248898D01*
X130592082Y-95703425D02*
X131204261Y-96432991D01*
X132736350Y-95147416D01*
X132124171Y-94417849D01*
X130175296Y-95058554D02*
X129918686Y-94900902D01*
X129612596Y-94536119D01*
X129563117Y-94328988D01*
X129574856Y-94194813D01*
X129659551Y-93999421D01*
X129805465Y-93876985D01*
X130012596Y-93827506D01*
X130146770Y-93839245D01*
X130342163Y-93923940D01*
X130659991Y-94154549D01*
X130855383Y-94239244D01*
X130989557Y-94250983D01*
X131196689Y-94201504D01*
X131342602Y-94079068D01*
X131427297Y-93883676D01*
X131439036Y-93749501D01*
X131389557Y-93542370D01*
X131083467Y-93177587D01*
X130826857Y-93019935D01*
D11*
X134568366Y-101724188D02*
X134874784Y-101467073D01*
X134445930Y-101578274D02*
X134752348Y-101321159D01*
X134691130Y-101248203D01*
X134639808Y-101216672D01*
X134586138Y-101211977D01*
X134544712Y-101221873D01*
X134474103Y-101256256D01*
X134430329Y-101292986D01*
X134384207Y-101356552D01*
X134367268Y-101395630D01*
X134362573Y-101449300D01*
X134384712Y-101505318D01*
X134445930Y-101578274D01*
X134349319Y-101137177D02*
X134263614Y-101035038D01*
X134066379Y-101125943D02*
X134188815Y-101271857D01*
X134495233Y-101014741D01*
X134372797Y-100868828D01*
X134055979Y-100935751D02*
X133933543Y-100789838D01*
X133992918Y-101038395D02*
X134213631Y-100679141D01*
X133821508Y-100834117D01*
X133762638Y-100734325D02*
X133711316Y-100702795D01*
X133650098Y-100629838D01*
X133640202Y-100588412D01*
X133642550Y-100561577D01*
X133659489Y-100522499D01*
X133688671Y-100498012D01*
X133730098Y-100488116D01*
X133756932Y-100490464D01*
X133796011Y-100507403D01*
X133859577Y-100553524D01*
X133898655Y-100570463D01*
X133925490Y-100572811D01*
X133966916Y-100562915D01*
X133996099Y-100538428D01*
X134013038Y-100499350D01*
X134015386Y-100472515D01*
X134005490Y-100431089D01*
X133944272Y-100358132D01*
X133892950Y-100326602D01*
X133131677Y-100219438D02*
X133569417Y-99852131D01*
X132854265Y-99681402D02*
X133160683Y-99424287D01*
X133062735Y-99307557D01*
X133023656Y-99290618D01*
X132996821Y-99288270D01*
X132955395Y-99298166D01*
X132911621Y-99334896D01*
X132894682Y-99373975D01*
X132892334Y-99400810D01*
X132902230Y-99442236D01*
X133000179Y-99558967D01*
X132450228Y-99199889D02*
X132681846Y-99179592D01*
X132597150Y-99374985D02*
X132903568Y-99117870D01*
X132805620Y-99001139D01*
X132766541Y-98984200D01*
X132739706Y-98981852D01*
X132698280Y-98991748D01*
X132654506Y-99028479D01*
X132637567Y-99067557D01*
X132635219Y-99094392D01*
X132645115Y-99135818D01*
X132743064Y-99252549D01*
X132597479Y-98753086D02*
X132548505Y-98694721D01*
X132509426Y-98677782D01*
X132455756Y-98673087D01*
X132385147Y-98707470D01*
X132283008Y-98793175D01*
X132236886Y-98856740D01*
X132232191Y-98910410D01*
X132242087Y-98951836D01*
X132291061Y-99010202D01*
X132330140Y-99027141D01*
X132383809Y-99031836D01*
X132454418Y-98997453D01*
X132556557Y-98911748D01*
X132602679Y-98848182D01*
X132607375Y-98794513D01*
X132597479Y-98753086D01*
X132070677Y-98747558D02*
X132377095Y-98490443D01*
X132315877Y-98417486D01*
X132264555Y-98385956D01*
X132210885Y-98381260D01*
X132169459Y-98391156D01*
X132098850Y-98425539D01*
X132055076Y-98462270D01*
X132008954Y-98525835D01*
X131992015Y-98564914D01*
X131987319Y-98618584D01*
X132009459Y-98674601D01*
X132070677Y-98747558D01*
X132119979Y-98184025D02*
X131871927Y-98392166D01*
X131830501Y-98402061D01*
X131803666Y-98399714D01*
X131764587Y-98382775D01*
X131715613Y-98324409D01*
X131705717Y-98282983D01*
X131708065Y-98256148D01*
X131725004Y-98217070D01*
X131973057Y-98008929D01*
X131426463Y-97920548D02*
X131424115Y-97947383D01*
X131446254Y-98003400D01*
X131470742Y-98032583D01*
X131522064Y-98064113D01*
X131575733Y-98068809D01*
X131617160Y-98058913D01*
X131687769Y-98024530D01*
X131731543Y-97987799D01*
X131777664Y-97924234D01*
X131794603Y-97885155D01*
X131799299Y-97831485D01*
X131777159Y-97775468D01*
X131752672Y-97746285D01*
X131701350Y-97714755D01*
X131674515Y-97712407D01*
X131630237Y-97600372D02*
X131483314Y-97425276D01*
X131250357Y-97769939D02*
X131556775Y-97512824D01*
X131118026Y-97582600D02*
X131066704Y-97551069D01*
X131005486Y-97478113D01*
X130995590Y-97436686D01*
X130997938Y-97409852D01*
X131014877Y-97370773D01*
X131044059Y-97346286D01*
X131085486Y-97336390D01*
X131112321Y-97338738D01*
X131151399Y-97355677D01*
X131214965Y-97401799D01*
X131254043Y-97418738D01*
X131280878Y-97421085D01*
X131322304Y-97411190D01*
X131351487Y-97386702D01*
X131368426Y-97347624D01*
X131370774Y-97320789D01*
X131360878Y-97279363D01*
X131299660Y-97206406D01*
X131248338Y-97174876D01*
X130487065Y-97067713D02*
X130924805Y-96700405D01*
X130091913Y-96330094D02*
X130089566Y-96356929D01*
X130111705Y-96412946D01*
X130136192Y-96442129D01*
X130187514Y-96473659D01*
X130241184Y-96478355D01*
X130282610Y-96468459D01*
X130353219Y-96434076D01*
X130396993Y-96397345D01*
X130443115Y-96333779D01*
X130460054Y-96294701D01*
X130464749Y-96241031D01*
X130442610Y-96185014D01*
X130418123Y-96155831D01*
X130366801Y-96124301D01*
X130339966Y-96121953D01*
X130209982Y-95907779D02*
X130161008Y-95849413D01*
X130121929Y-95832474D01*
X130068259Y-95827779D01*
X129997651Y-95862162D01*
X129895511Y-95947867D01*
X129849390Y-96011432D01*
X129844694Y-96065102D01*
X129854590Y-96106528D01*
X129903564Y-96164894D01*
X129942643Y-96181833D01*
X129996312Y-96186528D01*
X130066921Y-96152145D01*
X130169061Y-96066440D01*
X130215182Y-96002875D01*
X130219878Y-95949205D01*
X130209982Y-95907779D01*
X129683180Y-95902250D02*
X129989598Y-95645135D01*
X129536257Y-95727154D01*
X129842675Y-95470039D01*
X129756970Y-95367900D02*
X129610047Y-95192804D01*
X129377091Y-95537467D02*
X129683508Y-95280352D01*
X129378429Y-95213100D02*
X129292724Y-95110961D01*
X129095488Y-95201866D02*
X129217924Y-95347780D01*
X129524342Y-95090664D01*
X129401906Y-94944751D01*
X128985296Y-95070544D02*
X129291714Y-94813429D01*
X128838373Y-94895449D01*
X129144791Y-94638333D01*
X129059086Y-94536194D02*
X128912163Y-94361098D01*
X128679207Y-94705761D02*
X128985625Y-94448646D01*
D12*
X146650528Y-50658440D02*
X146701107Y-50079380D01*
X147145399Y-50372725D02*
X146645399Y-49506700D01*
X146315485Y-49697176D01*
X146256816Y-49786034D01*
X146239386Y-49851083D01*
X146245766Y-49957371D01*
X146317194Y-50081089D01*
X146406053Y-50139758D01*
X146471101Y-50157188D01*
X146577390Y-50150808D01*
X146907304Y-49960332D01*
X145861852Y-49959081D02*
X145784502Y-51158440D01*
X145284502Y-50292414D02*
X146361852Y-50825106D01*
X144576019Y-50784795D02*
X144081147Y-51070509D01*
X144828583Y-51793678D02*
X144328583Y-50927652D01*
X143874951Y-51189557D02*
X143797600Y-52388916D01*
X143297600Y-51522890D02*
X144374951Y-52055582D01*
X142924608Y-51717652D02*
X142388497Y-52027176D01*
X142867649Y-52190424D01*
X142743931Y-52261852D01*
X142685262Y-52350711D01*
X142667832Y-52415760D01*
X142674212Y-52522048D01*
X142793259Y-52728244D01*
X142882118Y-52786913D01*
X142947167Y-52804343D01*
X143053455Y-52797963D01*
X143300891Y-52655106D01*
X143359560Y-52566248D01*
X143376989Y-52501199D01*
X142452295Y-53090057D02*
X142476104Y-53131297D01*
X142564963Y-53189966D01*
X142630012Y-53207396D01*
X141687429Y-52431938D02*
X141151318Y-52741462D01*
X141630470Y-52904710D01*
X141506752Y-52976138D01*
X141448083Y-53064996D01*
X141430653Y-53130045D01*
X141437033Y-53236333D01*
X141556080Y-53442530D01*
X141644939Y-53501199D01*
X141709987Y-53518629D01*
X141816276Y-53512249D01*
X142063711Y-53369392D01*
X142122380Y-53280534D01*
X142139810Y-53215485D01*
X140903882Y-52884319D02*
X141115207Y-53917011D01*
X140326532Y-53217652D01*
X137859828Y-54646034D02*
X137918497Y-54557176D01*
X138042215Y-54485747D01*
X138189743Y-54455558D01*
X138319840Y-54490418D01*
X138408699Y-54549087D01*
X138545176Y-54690235D01*
X138616605Y-54813952D01*
X138670604Y-55002719D01*
X138676983Y-55109007D01*
X138642124Y-55239105D01*
X138542215Y-55351773D01*
X138459737Y-55399392D01*
X138312209Y-55429581D01*
X138247161Y-55412151D01*
X138080494Y-55123476D01*
X138245451Y-55028238D01*
X137923626Y-55708916D02*
X137423626Y-54842890D01*
X137428754Y-55994630D01*
X136928754Y-55128605D01*
X137016361Y-56232725D02*
X136516361Y-55366700D01*
X136310165Y-55485747D01*
X136210256Y-55598415D01*
X136175397Y-55728513D01*
X136181776Y-55834801D01*
X136235775Y-56023568D01*
X136307204Y-56147286D01*
X136443681Y-56288434D01*
X136532539Y-56347103D01*
X136662637Y-56381962D01*
X136810165Y-56351773D01*
X137016361Y-56232725D01*
D13*
X151517506Y-62650970D02*
X151803221Y-63145842D01*
X151549631Y-61906611D02*
X151517506Y-62650970D01*
X150856810Y-62306611D01*
X150685932Y-63724926D02*
X150813477Y-63717270D01*
X151011426Y-63602985D01*
X151081829Y-63496355D01*
X151074173Y-63368809D01*
X150845602Y-62972912D01*
X150738972Y-62902509D01*
X150611426Y-62910164D01*
X150413477Y-63024450D01*
X150343074Y-63131080D01*
X150350730Y-63258626D01*
X150407873Y-63357600D01*
X150959887Y-63170860D01*
X148944174Y-64136684D02*
X149229888Y-64631556D01*
X148976298Y-63392326D02*
X148944174Y-64136684D01*
X148283478Y-63792326D01*
X148388606Y-65117270D02*
X148459009Y-65010640D01*
X148479925Y-64932582D01*
X148472269Y-64805036D01*
X148300841Y-64508113D01*
X148194211Y-64437710D01*
X148116152Y-64416794D01*
X147988606Y-64424450D01*
X147840145Y-64510164D01*
X147769742Y-64616794D01*
X147748826Y-64694853D01*
X147756482Y-64822399D01*
X147927910Y-65119322D01*
X148034540Y-65189725D01*
X148112599Y-65210640D01*
X148240145Y-65202985D01*
X148388606Y-65117270D01*
X147448350Y-65660128D02*
X147518753Y-65553498D01*
X147511097Y-65425952D01*
X146996812Y-64535183D01*
X147052453Y-65888699D02*
X146452453Y-64849469D01*
X146724907Y-65549945D02*
X146656555Y-66117270D01*
X146256555Y-65424450D02*
X146881024Y-65591776D01*
X145270915Y-66917270D02*
X145341318Y-66810640D01*
X145362233Y-66732582D01*
X145354578Y-66605036D01*
X145183149Y-66308113D01*
X145076519Y-66237710D01*
X144998460Y-66216794D01*
X144870915Y-66224450D01*
X144722453Y-66310164D01*
X144652050Y-66416794D01*
X144631135Y-66494853D01*
X144638790Y-66622399D01*
X144810219Y-66919322D01*
X144916849Y-66989725D01*
X144994907Y-67010640D01*
X145122453Y-67002985D01*
X145270915Y-66917270D01*
X144227582Y-66595879D02*
X143831684Y-66824450D01*
X144479120Y-67374413D02*
X143964834Y-66483644D01*
X143858204Y-66413241D01*
X143730659Y-66420897D01*
X143631684Y-66478040D01*
X142841941Y-67395879D02*
X142446044Y-67624450D01*
X142493479Y-67135183D02*
X143007765Y-68025952D01*
X143015421Y-68153498D01*
X142945018Y-68260128D01*
X142846044Y-68317270D01*
X142499633Y-68517270D02*
X141899633Y-67478040D01*
X142054249Y-68774413D02*
X141739963Y-68230054D01*
X141732308Y-68102509D01*
X141802710Y-67995879D01*
X141951172Y-67910164D01*
X142078718Y-67902509D01*
X142156776Y-67923424D01*
X141258352Y-68310164D02*
X141410916Y-69145842D01*
X140763480Y-68595879D02*
X141410916Y-69145842D01*
X141652747Y-69336135D01*
X141730806Y-69357051D01*
X141858352Y-69349395D01*
X139575788Y-69281593D02*
X140175788Y-70320823D01*
X139604359Y-69331080D02*
X139476814Y-69338736D01*
X139278865Y-69453022D01*
X139208462Y-69559652D01*
X139187546Y-69637710D01*
X139195202Y-69765256D01*
X139366631Y-70062179D01*
X139473261Y-70132582D01*
X139551319Y-70153498D01*
X139678865Y-70145842D01*
X139876814Y-70031556D01*
X139947217Y-69924926D01*
X139035532Y-70517270D02*
X138635532Y-69824450D01*
X138749818Y-70022399D02*
X138643187Y-69951996D01*
X138565129Y-69931080D01*
X138437583Y-69938736D01*
X138338609Y-69995879D01*
X138243737Y-70974413D02*
X138314140Y-70867783D01*
X138335056Y-70789725D01*
X138327400Y-70662179D01*
X138155972Y-70365256D01*
X138049342Y-70294853D01*
X137971283Y-70273937D01*
X137843737Y-70281593D01*
X137695276Y-70367307D01*
X137624873Y-70473937D01*
X137603957Y-70551996D01*
X137611613Y-70679542D01*
X137783041Y-70976465D01*
X137889671Y-71046868D01*
X137967730Y-71067783D01*
X138095276Y-71060128D01*
X138243737Y-70974413D01*
X137051942Y-70738736D02*
X137566228Y-71629505D01*
X137672858Y-71699908D01*
X137800404Y-71692252D01*
X137849891Y-71663681D01*
X136851942Y-70392326D02*
X136930001Y-70413241D01*
X136909085Y-70491300D01*
X136831027Y-70470384D01*
X136851942Y-70392326D01*
X136909085Y-70491300D01*
X136532602Y-71896355D02*
X136660148Y-71888699D01*
X136858097Y-71774413D01*
X136928499Y-71667783D01*
X136920844Y-71540238D01*
X136692272Y-71144340D01*
X136585642Y-71073937D01*
X136458097Y-71081593D01*
X136260148Y-71195879D01*
X136189745Y-71302509D01*
X136197401Y-71430054D01*
X136254543Y-71529029D01*
X136806558Y-71342289D01*
X135592346Y-72439212D02*
X135719892Y-72431556D01*
X135917840Y-72317270D01*
X135988243Y-72210640D01*
X136009159Y-72132582D01*
X136001503Y-72005036D01*
X135830075Y-71708113D01*
X135723445Y-71637710D01*
X135645386Y-71616794D01*
X135517840Y-71624450D01*
X135319892Y-71738736D01*
X135249489Y-71845366D01*
X134923994Y-71967307D02*
X134528097Y-72195879D01*
X134575533Y-71706611D02*
X135089819Y-72597380D01*
X135097474Y-72724926D01*
X135027071Y-72831556D01*
X134928097Y-72888699D01*
X134524544Y-72989725D02*
X134503628Y-73067783D01*
X134581687Y-73088699D01*
X134602603Y-73010640D01*
X134524544Y-72989725D01*
X134581687Y-73088699D01*
X134353115Y-72692802D02*
X134059745Y-72070384D01*
X133981687Y-72049469D01*
X133960771Y-72127527D01*
X134353115Y-72692802D01*
X133981687Y-72049469D01*
D14*
X149620977Y-58242133D02*
X148177601Y-59075467D01*
X148868535Y-61700771D02*
X150930501Y-60510295D01*
X148430501Y-56180168D01*
X146368535Y-57370644D01*
X147012767Y-62772200D02*
X144512767Y-58442073D01*
X144712706Y-63550283D02*
X144625557Y-63875527D01*
X144950801Y-63962676D01*
X145037950Y-63637432D01*
X144712706Y-63550283D01*
X144950801Y-63962676D01*
X136052452Y-68550283D02*
X135965303Y-68875527D01*
X136290547Y-68962676D01*
X136377696Y-68637432D01*
X136052452Y-68550283D01*
X136290547Y-68962676D01*
X132347172Y-65465882D02*
X129872813Y-66894454D01*
X133609993Y-70510295D02*
X131109993Y-66180168D01*
D12*
X141690474Y-137327616D02*
X142309521Y-137327616D01*
X141976188Y-136946663D01*
X142119045Y-136946663D01*
X142214283Y-136899044D01*
X142261902Y-136851425D01*
X142309521Y-136756187D01*
X142309521Y-136518092D01*
X142261902Y-136422854D01*
X142214283Y-136375235D01*
X142119045Y-136327616D01*
X141833331Y-136327616D01*
X141738093Y-136375235D01*
X141690474Y-136422854D01*
X142785712Y-136327616D02*
X142976188Y-136327616D01*
X143071426Y-136375235D01*
X143119045Y-136422854D01*
X143214283Y-136565711D01*
X143261902Y-136756187D01*
X143261902Y-137137139D01*
X143214283Y-137232377D01*
X143166664Y-137279997D01*
X143071426Y-137327616D01*
X142880950Y-137327616D01*
X142785712Y-137279997D01*
X142738093Y-137232377D01*
X142690474Y-137137139D01*
X142690474Y-136899044D01*
X142738093Y-136803806D01*
X142785712Y-136756187D01*
X142880950Y-136708568D01*
X143071426Y-136708568D01*
X143166664Y-136756187D01*
X143214283Y-136803806D01*
X143261902Y-136899044D01*
X141700475Y-129557618D02*
X142319522Y-129557618D01*
X141986189Y-129176665D01*
X142129046Y-129176665D01*
X142224284Y-129129046D01*
X142271903Y-129081427D01*
X142319522Y-128986189D01*
X142319522Y-128748094D01*
X142271903Y-128652856D01*
X142224284Y-128605237D01*
X142129046Y-128557618D01*
X141843332Y-128557618D01*
X141748094Y-128605237D01*
X141700475Y-128652856D01*
X143176665Y-129557618D02*
X142986189Y-129557618D01*
X142890951Y-129509999D01*
X142843332Y-129462379D01*
X142748094Y-129319522D01*
X142700475Y-129129046D01*
X142700475Y-128748094D01*
X142748094Y-128652856D01*
X142795713Y-128605237D01*
X142890951Y-128557618D01*
X143081427Y-128557618D01*
X143176665Y-128605237D01*
X143224284Y-128652856D01*
X143271903Y-128748094D01*
X143271903Y-128986189D01*
X143224284Y-129081427D01*
X143176665Y-129129046D01*
X143081427Y-129176665D01*
X142890951Y-129176665D01*
X142795713Y-129129046D01*
X142748094Y-129081427D01*
X142700475Y-128986189D01*
X142314284Y-144424284D02*
X142314284Y-143757618D01*
X142076189Y-144805237D02*
X141838094Y-144090951D01*
X142457141Y-144090951D01*
X142790475Y-144662379D02*
X142838094Y-144709999D01*
X142933332Y-144757618D01*
X143171427Y-144757618D01*
X143266665Y-144709999D01*
X143314284Y-144662379D01*
X143361903Y-144567141D01*
X143361903Y-144471903D01*
X143314284Y-144329046D01*
X142742856Y-143757618D01*
X143361903Y-143757618D01*
X141700478Y-124577618D02*
X142319525Y-124577618D01*
X141986192Y-124196665D01*
X142129049Y-124196665D01*
X142224287Y-124149046D01*
X142271906Y-124101427D01*
X142319525Y-124006189D01*
X142319525Y-123768094D01*
X142271906Y-123672856D01*
X142224287Y-123625237D01*
X142129049Y-123577618D01*
X141843335Y-123577618D01*
X141748097Y-123625237D01*
X141700478Y-123672856D01*
X143176668Y-124244284D02*
X143176668Y-123577618D01*
X142938573Y-124625237D02*
X142700478Y-123910951D01*
X143319525Y-123910951D01*
X142284285Y-139464285D02*
X142284285Y-138797619D01*
X142046190Y-139845238D02*
X141808095Y-139130952D01*
X142427142Y-139130952D01*
X142998571Y-139797619D02*
X143093809Y-139797619D01*
X143189047Y-139750000D01*
X143236666Y-139702380D01*
X143284285Y-139607142D01*
X143331904Y-139416666D01*
X143331904Y-139178571D01*
X143284285Y-138988095D01*
X143236666Y-138892857D01*
X143189047Y-138845238D01*
X143093809Y-138797619D01*
X142998571Y-138797619D01*
X142903333Y-138845238D01*
X142855714Y-138892857D01*
X142808095Y-138988095D01*
X142760476Y-139178571D01*
X142760476Y-139416666D01*
X142808095Y-139607142D01*
X142855714Y-139702380D01*
X142903333Y-139750000D01*
X142998571Y-139797619D01*
X141720474Y-132097618D02*
X142339521Y-132097618D01*
X142006188Y-131716665D01*
X142149045Y-131716665D01*
X142244283Y-131669046D01*
X142291902Y-131621427D01*
X142339521Y-131526189D01*
X142339521Y-131288094D01*
X142291902Y-131192856D01*
X142244283Y-131145237D01*
X142149045Y-131097618D01*
X141863331Y-131097618D01*
X141768093Y-131145237D01*
X141720474Y-131192856D01*
X142672855Y-132097618D02*
X143339521Y-132097618D01*
X142910950Y-131097618D01*
X141720478Y-134617619D02*
X142339525Y-134617619D01*
X142006192Y-134236666D01*
X142149049Y-134236666D01*
X142244287Y-134189047D01*
X142291906Y-134141428D01*
X142339525Y-134046190D01*
X142339525Y-133808095D01*
X142291906Y-133712857D01*
X142244287Y-133665238D01*
X142149049Y-133617619D01*
X141863335Y-133617619D01*
X141768097Y-133665238D01*
X141720478Y-133712857D01*
X142910954Y-134189047D02*
X142815716Y-134236666D01*
X142768097Y-134284285D01*
X142720478Y-134379523D01*
X142720478Y-134427142D01*
X142768097Y-134522380D01*
X142815716Y-134570000D01*
X142910954Y-134617619D01*
X143101430Y-134617619D01*
X143196668Y-134570000D01*
X143244287Y-134522380D01*
X143291906Y-134427142D01*
X143291906Y-134379523D01*
X143244287Y-134284285D01*
X143196668Y-134236666D01*
X143101430Y-134189047D01*
X142910954Y-134189047D01*
X142815716Y-134141428D01*
X142768097Y-134093809D01*
X142720478Y-133998571D01*
X142720478Y-133808095D01*
X142768097Y-133712857D01*
X142815716Y-133665238D01*
X142910954Y-133617619D01*
X143101430Y-133617619D01*
X143196668Y-133665238D01*
X143244287Y-133712857D01*
X143291906Y-133808095D01*
X143291906Y-133998571D01*
X143244287Y-134093809D01*
X143196668Y-134141428D01*
X143101430Y-134189047D01*
X141680471Y-126997617D02*
X142299518Y-126997617D01*
X141966185Y-126616664D01*
X142109042Y-126616664D01*
X142204280Y-126569045D01*
X142251899Y-126521426D01*
X142299518Y-126426188D01*
X142299518Y-126188093D01*
X142251899Y-126092855D01*
X142204280Y-126045236D01*
X142109042Y-125997617D01*
X141823328Y-125997617D01*
X141728090Y-126045236D01*
X141680471Y-126092855D01*
X143204280Y-126997617D02*
X142728090Y-126997617D01*
X142680471Y-126521426D01*
X142728090Y-126569045D01*
X142823328Y-126616664D01*
X143061423Y-126616664D01*
X143156661Y-126569045D01*
X143204280Y-126521426D01*
X143251899Y-126426188D01*
X143251899Y-126188093D01*
X143204280Y-126092855D01*
X143156661Y-126045236D01*
X143061423Y-125997617D01*
X142823328Y-125997617D01*
X142728090Y-126045236D01*
X142680471Y-126092855D01*
X142309523Y-115887619D02*
X141738095Y-115887619D01*
X142023809Y-115887619D02*
X142023809Y-116887619D01*
X141928571Y-116744761D01*
X141833333Y-116649523D01*
X141738095Y-116601904D01*
X142785714Y-115887619D02*
X142976190Y-115887619D01*
X143071428Y-115935238D01*
X143119047Y-115982857D01*
X143214285Y-116125714D01*
X143261904Y-116316190D01*
X143261904Y-116697142D01*
X143214285Y-116792380D01*
X143166666Y-116840000D01*
X143071428Y-116887619D01*
X142880952Y-116887619D01*
X142785714Y-116840000D01*
X142738095Y-116792380D01*
X142690476Y-116697142D01*
X142690476Y-116459047D01*
X142738095Y-116363809D01*
X142785714Y-116316190D01*
X142880952Y-116268571D01*
X143071428Y-116268571D01*
X143166666Y-116316190D01*
X143214285Y-116363809D01*
X143261904Y-116459047D01*
X142314287Y-141964286D02*
X142314287Y-141297620D01*
X142076192Y-142345239D02*
X141838097Y-141630953D01*
X142457144Y-141630953D01*
X143361906Y-141297620D02*
X142790478Y-141297620D01*
X143076192Y-141297620D02*
X143076192Y-142297620D01*
X142980954Y-142154762D01*
X142885716Y-142059524D01*
X142790478Y-142011905D01*
X141623809Y-147517619D02*
X142242857Y-147517619D01*
X141909523Y-147136666D01*
X142052380Y-147136666D01*
X142147619Y-147089047D01*
X142195238Y-147041428D01*
X142242857Y-146946190D01*
X142242857Y-146708095D01*
X142195238Y-146612857D01*
X142147619Y-146565238D01*
X142052380Y-146517619D01*
X141766666Y-146517619D01*
X141671428Y-146565238D01*
X141623809Y-146612857D01*
X142719047Y-146565238D02*
X142719047Y-146517619D01*
X142671428Y-146422380D01*
X142623809Y-146374761D01*
X143052380Y-147517619D02*
X143671428Y-147517619D01*
X143338095Y-147136666D01*
X143480952Y-147136666D01*
X143576190Y-147089047D01*
X143623809Y-147041428D01*
X143671428Y-146946190D01*
X143671428Y-146708095D01*
X143623809Y-146612857D01*
X143576190Y-146565238D01*
X143480952Y-146517619D01*
X143195238Y-146517619D01*
X143100000Y-146565238D01*
X143052380Y-146612857D01*
X143957142Y-147517619D02*
X144290476Y-146517619D01*
X144623809Y-147517619D01*
X141670476Y-122037617D02*
X142289523Y-122037617D01*
X141956190Y-121656664D01*
X142099047Y-121656664D01*
X142194285Y-121609045D01*
X142241904Y-121561426D01*
X142289523Y-121466188D01*
X142289523Y-121228093D01*
X142241904Y-121132855D01*
X142194285Y-121085236D01*
X142099047Y-121037617D01*
X141813333Y-121037617D01*
X141718095Y-121085236D01*
X141670476Y-121132855D01*
X142622857Y-122037617D02*
X143241904Y-122037617D01*
X142908571Y-121656664D01*
X143051428Y-121656664D01*
X143146666Y-121609045D01*
X143194285Y-121561426D01*
X143241904Y-121466188D01*
X143241904Y-121228093D01*
X143194285Y-121132855D01*
X143146666Y-121085236D01*
X143051428Y-121037617D01*
X142765714Y-121037617D01*
X142670476Y-121085236D01*
X142622857Y-121132855D01*
X142389524Y-113267616D02*
X141818096Y-113267616D01*
X142103810Y-113267616D02*
X142103810Y-114267616D01*
X142008572Y-114124758D01*
X141913334Y-114029520D01*
X141818096Y-113981901D01*
X142960953Y-113839044D02*
X142865715Y-113886663D01*
X142818096Y-113934282D01*
X142770477Y-114029520D01*
X142770477Y-114077139D01*
X142818096Y-114172377D01*
X142865715Y-114219997D01*
X142960953Y-114267616D01*
X143151429Y-114267616D01*
X143246667Y-114219997D01*
X143294286Y-114172377D01*
X143341905Y-114077139D01*
X143341905Y-114029520D01*
X143294286Y-113934282D01*
X143246667Y-113886663D01*
X143151429Y-113839044D01*
X142960953Y-113839044D01*
X142865715Y-113791425D01*
X142818096Y-113743806D01*
X142770477Y-113648568D01*
X142770477Y-113458092D01*
X142818096Y-113362854D01*
X142865715Y-113315235D01*
X142960953Y-113267616D01*
X143151429Y-113267616D01*
X143246667Y-113315235D01*
X143294286Y-113362854D01*
X143341905Y-113458092D01*
X143341905Y-113648568D01*
X143294286Y-113743806D01*
X143246667Y-113791425D01*
X143151429Y-113839044D01*
X142289524Y-108247615D02*
X141718096Y-108247615D01*
X142003810Y-108247615D02*
X142003810Y-109247615D01*
X141908572Y-109104757D01*
X141813334Y-109009519D01*
X141718096Y-108961900D01*
X143146667Y-109247615D02*
X142956191Y-109247615D01*
X142860953Y-109199996D01*
X142813334Y-109152376D01*
X142718096Y-109009519D01*
X142670477Y-108819043D01*
X142670477Y-108438091D01*
X142718096Y-108342853D01*
X142765715Y-108295234D01*
X142860953Y-108247615D01*
X143051429Y-108247615D01*
X143146667Y-108295234D01*
X143194286Y-108342853D01*
X143241905Y-108438091D01*
X143241905Y-108676186D01*
X143194286Y-108771424D01*
X143146667Y-108819043D01*
X143051429Y-108866662D01*
X142860953Y-108866662D01*
X142765715Y-108819043D01*
X142718096Y-108771424D01*
X142670477Y-108676186D01*
X142319525Y-110747618D02*
X141748097Y-110747618D01*
X142033811Y-110747618D02*
X142033811Y-111747618D01*
X141938573Y-111604760D01*
X141843335Y-111509522D01*
X141748097Y-111461903D01*
X142652859Y-111747618D02*
X143319525Y-111747618D01*
X142890954Y-110747618D01*
X141758091Y-119352382D02*
X141805710Y-119400002D01*
X141900948Y-119447621D01*
X142139043Y-119447621D01*
X142234281Y-119400002D01*
X142281900Y-119352382D01*
X142329519Y-119257144D01*
X142329519Y-119161906D01*
X142281900Y-119019049D01*
X141710472Y-118447621D01*
X142329519Y-118447621D01*
X142948567Y-119447621D02*
X143043805Y-119447621D01*
X143139043Y-119400002D01*
X143186662Y-119352382D01*
X143234281Y-119257144D01*
X143281900Y-119066668D01*
X143281900Y-118828573D01*
X143234281Y-118638097D01*
X143186662Y-118542859D01*
X143139043Y-118495240D01*
X143043805Y-118447621D01*
X142948567Y-118447621D01*
X142853329Y-118495240D01*
X142805710Y-118542859D01*
X142758091Y-118638097D01*
X142710472Y-118828573D01*
X142710472Y-119066668D01*
X142758091Y-119257144D01*
X142805710Y-119352382D01*
X142853329Y-119400002D01*
X142948567Y-119447621D01*
X146306188Y-114427621D02*
X146401426Y-114427621D01*
X146496664Y-114380002D01*
X146544283Y-114332382D01*
X146591902Y-114237144D01*
X146639521Y-114046668D01*
X146639521Y-113808573D01*
X146591902Y-113618097D01*
X146544283Y-113522859D01*
X146496664Y-113475240D01*
X146401426Y-113427621D01*
X146306188Y-113427621D01*
X146210950Y-113475240D01*
X146163331Y-113522859D01*
X146115712Y-113618097D01*
X146068093Y-113808573D01*
X146068093Y-114046668D01*
X146115712Y-114237144D01*
X146163331Y-114332382D01*
X146210950Y-114380002D01*
X146306188Y-114427621D01*
X147020474Y-114332382D02*
X147068093Y-114380002D01*
X147163331Y-114427621D01*
X147401426Y-114427621D01*
X147496664Y-114380002D01*
X147544283Y-114332382D01*
X147591902Y-114237144D01*
X147591902Y-114141906D01*
X147544283Y-113999049D01*
X146972855Y-113427621D01*
X147591902Y-113427621D01*
X146186190Y-111837619D02*
X146281428Y-111837619D01*
X146376666Y-111790000D01*
X146424285Y-111742380D01*
X146471904Y-111647142D01*
X146519523Y-111456666D01*
X146519523Y-111218571D01*
X146471904Y-111028095D01*
X146424285Y-110932857D01*
X146376666Y-110885238D01*
X146281428Y-110837619D01*
X146186190Y-110837619D01*
X146090952Y-110885238D01*
X146043333Y-110932857D01*
X145995714Y-111028095D01*
X145948095Y-111218571D01*
X145948095Y-111456666D01*
X145995714Y-111647142D01*
X146043333Y-111742380D01*
X146090952Y-111790000D01*
X146186190Y-111837619D01*
X147471904Y-110837619D02*
X146900476Y-110837619D01*
X147186190Y-110837619D02*
X147186190Y-111837619D01*
X147090952Y-111694761D01*
X146995714Y-111599523D01*
X146900476Y-111551904D01*
X146076187Y-127157622D02*
X146171425Y-127157622D01*
X146266663Y-127110003D01*
X146314282Y-127062383D01*
X146361901Y-126967145D01*
X146409520Y-126776669D01*
X146409520Y-126538574D01*
X146361901Y-126348098D01*
X146314282Y-126252860D01*
X146266663Y-126205241D01*
X146171425Y-126157622D01*
X146076187Y-126157622D01*
X145980949Y-126205241D01*
X145933330Y-126252860D01*
X145885711Y-126348098D01*
X145838092Y-126538574D01*
X145838092Y-126776669D01*
X145885711Y-126967145D01*
X145933330Y-127062383D01*
X145980949Y-127110003D01*
X146076187Y-127157622D01*
X146742854Y-127157622D02*
X147409520Y-127157622D01*
X146980949Y-126157622D01*
X145699517Y-131285236D02*
X145842374Y-131237617D01*
X146080470Y-131237617D01*
X146175708Y-131285236D01*
X146223327Y-131332855D01*
X146270946Y-131428093D01*
X146270946Y-131523331D01*
X146223327Y-131618569D01*
X146175708Y-131666188D01*
X146080470Y-131713807D01*
X145889994Y-131761426D01*
X145794755Y-131809045D01*
X145747136Y-131856664D01*
X145699517Y-131951902D01*
X145699517Y-132047140D01*
X145747136Y-132142378D01*
X145794755Y-132189998D01*
X145889994Y-132237617D01*
X146128089Y-132237617D01*
X146270946Y-132189998D01*
X147270946Y-131332855D02*
X147223327Y-131285236D01*
X147080470Y-131237617D01*
X146985232Y-131237617D01*
X146842374Y-131285236D01*
X146747136Y-131380474D01*
X146699517Y-131475712D01*
X146651898Y-131666188D01*
X146651898Y-131809045D01*
X146699517Y-131999521D01*
X146747136Y-132094759D01*
X146842374Y-132189998D01*
X146985232Y-132237617D01*
X147080470Y-132237617D01*
X147223327Y-132189998D01*
X147270946Y-132142378D01*
X148175708Y-131237617D02*
X147699517Y-131237617D01*
X147699517Y-132237617D01*
X146549530Y-146637619D02*
X145978102Y-146637619D01*
X146263816Y-146637619D02*
X146263816Y-147637619D01*
X146168578Y-147494761D01*
X146073340Y-147399523D01*
X145978102Y-147351904D01*
X147454292Y-147637619D02*
X146978102Y-147637619D01*
X146930483Y-147161428D01*
X146978102Y-147209047D01*
X147073340Y-147256666D01*
X147311435Y-147256666D01*
X147406673Y-147209047D01*
X147454292Y-147161428D01*
X147501911Y-147066190D01*
X147501911Y-146828095D01*
X147454292Y-146732857D01*
X147406673Y-146685238D01*
X147311435Y-146637619D01*
X147073340Y-146637619D01*
X146978102Y-146685238D01*
X146930483Y-146732857D01*
X146096197Y-119537620D02*
X146191435Y-119537620D01*
X146286673Y-119490001D01*
X146334292Y-119442381D01*
X146381911Y-119347143D01*
X146429530Y-119156667D01*
X146429530Y-118918572D01*
X146381911Y-118728096D01*
X146334292Y-118632858D01*
X146286673Y-118585239D01*
X146191435Y-118537620D01*
X146096197Y-118537620D01*
X146000959Y-118585239D01*
X145953340Y-118632858D01*
X145905721Y-118728096D01*
X145858102Y-118918572D01*
X145858102Y-119156667D01*
X145905721Y-119347143D01*
X145953340Y-119442381D01*
X146000959Y-119490001D01*
X146096197Y-119537620D01*
X147286673Y-119204286D02*
X147286673Y-118537620D01*
X147048578Y-119585239D02*
X146810483Y-118870953D01*
X147429530Y-118870953D01*
X146599523Y-143957620D02*
X146028095Y-143957620D01*
X146313809Y-143957620D02*
X146313809Y-144957620D01*
X146218571Y-144814762D01*
X146123333Y-144719524D01*
X146028095Y-144671905D01*
X147456666Y-144624286D02*
X147456666Y-143957620D01*
X147218571Y-145005239D02*
X146980476Y-144290953D01*
X147599523Y-144290953D01*
X146036179Y-122177621D02*
X146131417Y-122177621D01*
X146226655Y-122130002D01*
X146274274Y-122082382D01*
X146321893Y-121987144D01*
X146369512Y-121796668D01*
X146369512Y-121558573D01*
X146321893Y-121368097D01*
X146274274Y-121272859D01*
X146226655Y-121225240D01*
X146131417Y-121177621D01*
X146036179Y-121177621D01*
X145940941Y-121225240D01*
X145893322Y-121272859D01*
X145845703Y-121368097D01*
X145798084Y-121558573D01*
X145798084Y-121796668D01*
X145845703Y-121987144D01*
X145893322Y-122082382D01*
X145940941Y-122130002D01*
X146036179Y-122177621D01*
X147274274Y-122177621D02*
X146798084Y-122177621D01*
X146750465Y-121701430D01*
X146798084Y-121749049D01*
X146893322Y-121796668D01*
X147131417Y-121796668D01*
X147226655Y-121749049D01*
X147274274Y-121701430D01*
X147321893Y-121606192D01*
X147321893Y-121368097D01*
X147274274Y-121272859D01*
X147226655Y-121225240D01*
X147131417Y-121177621D01*
X146893322Y-121177621D01*
X146798084Y-121225240D01*
X146750465Y-121272859D01*
X146156190Y-117047619D02*
X146251428Y-117047619D01*
X146346666Y-117000000D01*
X146394285Y-116952380D01*
X146441904Y-116857142D01*
X146489523Y-116666666D01*
X146489523Y-116428571D01*
X146441904Y-116238095D01*
X146394285Y-116142857D01*
X146346666Y-116095238D01*
X146251428Y-116047619D01*
X146156190Y-116047619D01*
X146060952Y-116095238D01*
X146013333Y-116142857D01*
X145965714Y-116238095D01*
X145918095Y-116428571D01*
X145918095Y-116666666D01*
X145965714Y-116857142D01*
X146013333Y-116952380D01*
X146060952Y-117000000D01*
X146156190Y-117047619D01*
X146822857Y-117047619D02*
X147441904Y-117047619D01*
X147108571Y-116666666D01*
X147251428Y-116666666D01*
X147346666Y-116619047D01*
X147394285Y-116571428D01*
X147441904Y-116476190D01*
X147441904Y-116238095D01*
X147394285Y-116142857D01*
X147346666Y-116095238D01*
X147251428Y-116047619D01*
X146965714Y-116047619D01*
X146870476Y-116095238D01*
X146822857Y-116142857D01*
X146619520Y-141407622D02*
X146048092Y-141407622D01*
X146333806Y-141407622D02*
X146333806Y-142407622D01*
X146238568Y-142264764D01*
X146143330Y-142169526D01*
X146048092Y-142121907D01*
X146952854Y-142407622D02*
X147571901Y-142407622D01*
X147238568Y-142026669D01*
X147381425Y-142026669D01*
X147476663Y-141979050D01*
X147524282Y-141931431D01*
X147571901Y-141836193D01*
X147571901Y-141598098D01*
X147524282Y-141502860D01*
X147476663Y-141455241D01*
X147381425Y-141407622D01*
X147095711Y-141407622D01*
X147000473Y-141455241D01*
X146952854Y-141502860D01*
X146569523Y-136277619D02*
X145998095Y-136277619D01*
X146283809Y-136277619D02*
X146283809Y-137277619D01*
X146188571Y-137134761D01*
X146093333Y-137039523D01*
X145998095Y-136991904D01*
X147521904Y-136277619D02*
X146950476Y-136277619D01*
X147236190Y-136277619D02*
X147236190Y-137277619D01*
X147140952Y-137134761D01*
X147045714Y-137039523D01*
X146950476Y-136991904D01*
X146649520Y-138937616D02*
X146078092Y-138937616D01*
X146363806Y-138937616D02*
X146363806Y-139937616D01*
X146268568Y-139794758D01*
X146173330Y-139699520D01*
X146078092Y-139651901D01*
X147030473Y-139842377D02*
X147078092Y-139889997D01*
X147173330Y-139937616D01*
X147411425Y-139937616D01*
X147506663Y-139889997D01*
X147554282Y-139842377D01*
X147601901Y-139747139D01*
X147601901Y-139651901D01*
X147554282Y-139509044D01*
X146982854Y-138937616D01*
X147601901Y-138937616D01*
X146116189Y-124547618D02*
X146211427Y-124547618D01*
X146306665Y-124499999D01*
X146354284Y-124452379D01*
X146401903Y-124357141D01*
X146449522Y-124166665D01*
X146449522Y-123928570D01*
X146401903Y-123738094D01*
X146354284Y-123642856D01*
X146306665Y-123595237D01*
X146211427Y-123547618D01*
X146116189Y-123547618D01*
X146020951Y-123595237D01*
X145973332Y-123642856D01*
X145925713Y-123738094D01*
X145878094Y-123928570D01*
X145878094Y-124166665D01*
X145925713Y-124357141D01*
X145973332Y-124452379D01*
X146020951Y-124499999D01*
X146116189Y-124547618D01*
X147306665Y-124547618D02*
X147116189Y-124547618D01*
X147020951Y-124499999D01*
X146973332Y-124452379D01*
X146878094Y-124309522D01*
X146830475Y-124119046D01*
X146830475Y-123738094D01*
X146878094Y-123642856D01*
X146925713Y-123595237D01*
X147020951Y-123547618D01*
X147211427Y-123547618D01*
X147306665Y-123595237D01*
X147354284Y-123642856D01*
X147401903Y-123738094D01*
X147401903Y-123976189D01*
X147354284Y-124071427D01*
X147306665Y-124119046D01*
X147211427Y-124166665D01*
X147020951Y-124166665D01*
X146925713Y-124119046D01*
X146878094Y-124071427D01*
X146830475Y-123976189D01*
X146649523Y-133767619D02*
X146078095Y-133767619D01*
X146363809Y-133767619D02*
X146363809Y-134767619D01*
X146268571Y-134624761D01*
X146173333Y-134529523D01*
X146078095Y-134481904D01*
X147268571Y-134767619D02*
X147363809Y-134767619D01*
X147459047Y-134720000D01*
X147506666Y-134672380D01*
X147554285Y-134577142D01*
X147601904Y-134386666D01*
X147601904Y-134148571D01*
X147554285Y-133958095D01*
X147506666Y-133862857D01*
X147459047Y-133815238D01*
X147363809Y-133767619D01*
X147268571Y-133767619D01*
X147173333Y-133815238D01*
X147125714Y-133862857D01*
X147078095Y-133958095D01*
X147030476Y-134148571D01*
X147030476Y-134386666D01*
X147078095Y-134577142D01*
X147125714Y-134672380D01*
X147173333Y-134720000D01*
X147268571Y-134767619D01*
X145795716Y-128835229D02*
X145938573Y-128787610D01*
X146176668Y-128787610D01*
X146271906Y-128835229D01*
X146319525Y-128882848D01*
X146367144Y-128978086D01*
X146367144Y-129073324D01*
X146319525Y-129168562D01*
X146271906Y-129216181D01*
X146176668Y-129263800D01*
X145986192Y-129311419D01*
X145890954Y-129359038D01*
X145843335Y-129406657D01*
X145795716Y-129501895D01*
X145795716Y-129597133D01*
X145843335Y-129692371D01*
X145890954Y-129739991D01*
X145986192Y-129787610D01*
X146224287Y-129787610D01*
X146367144Y-129739991D01*
X146795716Y-128787610D02*
X146795716Y-129787610D01*
X147033811Y-129787610D01*
X147176668Y-129739991D01*
X147271906Y-129644752D01*
X147319525Y-129549514D01*
X147367144Y-129359038D01*
X147367144Y-129216181D01*
X147319525Y-129025705D01*
X147271906Y-128930467D01*
X147176668Y-128835229D01*
X147033811Y-128787610D01*
X146795716Y-128787610D01*
X147748097Y-129073324D02*
X148224287Y-129073324D01*
X147652859Y-128787610D02*
X147986192Y-129787610D01*
X148319525Y-128787610D01*
X147711904Y-108330000D02*
X147807142Y-108282380D01*
X147950000Y-108282380D01*
X148092857Y-108330000D01*
X148188095Y-108425238D01*
X148235714Y-108520476D01*
X148283333Y-108710952D01*
X148283333Y-108853809D01*
X148235714Y-109044285D01*
X148188095Y-109139523D01*
X148092857Y-109234761D01*
X147950000Y-109282380D01*
X147854761Y-109282380D01*
X147711904Y-109234761D01*
X147664285Y-109187142D01*
X147664285Y-108853809D01*
X147854761Y-108853809D01*
X147235714Y-109282380D02*
X147235714Y-108282380D01*
X146664285Y-109282380D01*
X146664285Y-108282380D01*
X146188095Y-109282380D02*
X146188095Y-108282380D01*
X145950000Y-108282380D01*
X145807142Y-108330000D01*
X145711904Y-108425238D01*
X145664285Y-108520476D01*
X145616666Y-108710952D01*
X145616666Y-108853809D01*
X145664285Y-109044285D01*
X145711904Y-109139523D01*
X145807142Y-109234761D01*
X145950000Y-109282380D01*
X146188095Y-109282380D01*
D15*
G36*
X137543116Y-62055937D02*
G01*
X137692837Y-62482903D01*
X137488738Y-62747962D01*
X137284637Y-63013022D01*
X136837155Y-62980039D01*
X136712040Y-62971156D01*
X136599332Y-62963801D01*
X136504260Y-62958261D01*
X136432049Y-62954825D01*
X136387930Y-62953781D01*
X136376565Y-62954625D01*
X136366920Y-62974897D01*
X136350307Y-63025142D01*
X136328311Y-63099248D01*
X136302520Y-63191106D01*
X136274521Y-63294608D01*
X136245899Y-63403646D01*
X136218241Y-63512107D01*
X136193135Y-63613886D01*
X136172167Y-63702873D01*
X136156923Y-63772958D01*
X136148990Y-63818032D01*
X136148769Y-63831711D01*
X136168350Y-63845390D01*
X136216615Y-63872260D01*
X136288666Y-63909794D01*
X136379597Y-63955470D01*
X136484511Y-64006763D01*
X136544864Y-64035723D01*
X136654961Y-64088665D01*
X136753490Y-64136916D01*
X136835614Y-64178034D01*
X136896492Y-64209579D01*
X136931291Y-64229112D01*
X136937547Y-64233826D01*
X136941785Y-64255044D01*
X136949287Y-64305867D01*
X136959166Y-64379051D01*
X136970537Y-64467353D01*
X136982512Y-64563532D01*
X136994207Y-64660343D01*
X137004734Y-64750544D01*
X137013208Y-64826892D01*
X137018742Y-64882143D01*
X137020449Y-64909056D01*
X137020312Y-64910233D01*
X137006332Y-64923633D01*
X136968101Y-64957589D01*
X136909611Y-65008632D01*
X136834851Y-65073288D01*
X136747812Y-65148087D01*
X136696958Y-65191603D01*
X136604067Y-65271727D01*
X136520719Y-65345058D01*
X136451086Y-65407809D01*
X136399339Y-65456190D01*
X136369651Y-65486415D01*
X136364341Y-65493632D01*
X136369547Y-65518722D01*
X136391407Y-65569555D01*
X136426706Y-65640569D01*
X136472225Y-65726199D01*
X136524750Y-65820883D01*
X136581062Y-65919058D01*
X136637946Y-66015162D01*
X136692183Y-66103629D01*
X136740558Y-66178898D01*
X136779852Y-66235407D01*
X136806849Y-66267591D01*
X136814942Y-66272864D01*
X136842734Y-66268739D01*
X136898066Y-66253835D01*
X136973728Y-66230313D01*
X137062509Y-66200333D01*
X137093265Y-66189460D01*
X137241345Y-66136673D01*
X137358534Y-66095352D01*
X137448784Y-66064266D01*
X137516042Y-66042182D01*
X137564256Y-66027866D01*
X137597377Y-66020086D01*
X137619351Y-66017608D01*
X137634129Y-66019200D01*
X137636450Y-66019861D01*
X137664924Y-66035654D01*
X137714230Y-66069915D01*
X137778834Y-66118159D01*
X137853196Y-66175902D01*
X137931780Y-66238661D01*
X138009049Y-66301950D01*
X138079466Y-66361286D01*
X138137492Y-66412184D01*
X138177592Y-66450161D01*
X138194228Y-66470731D01*
X138194388Y-66471696D01*
X138192974Y-66497177D01*
X138189036Y-66553719D01*
X138183011Y-66635420D01*
X138175335Y-66736380D01*
X138166449Y-66850698D01*
X138163889Y-66883205D01*
X138155567Y-67000502D01*
X138149824Y-67106457D01*
X138146842Y-67195068D01*
X138146804Y-67260340D01*
X138149890Y-67296272D01*
X138151254Y-67300117D01*
X138172928Y-67311958D01*
X138224565Y-67330388D01*
X138299970Y-67353804D01*
X138392944Y-67380596D01*
X138497290Y-67409160D01*
X138606809Y-67437887D01*
X138715305Y-67465173D01*
X138816579Y-67489408D01*
X138904433Y-67508988D01*
X138972669Y-67522305D01*
X139015091Y-67527753D01*
X139025357Y-67526714D01*
X139039339Y-67507128D01*
X139064728Y-67461417D01*
X139097462Y-67397157D01*
X139121951Y-67346508D01*
X139165959Y-67254105D01*
X139218274Y-67145019D01*
X139270907Y-67035875D01*
X139299287Y-66977339D01*
X139395487Y-66779451D01*
X139569341Y-66774594D01*
X139647821Y-66771128D01*
X139713232Y-66765888D01*
X139755995Y-66759749D01*
X139765953Y-66756581D01*
X139768330Y-66736151D01*
X139765982Y-66683651D01*
X139759494Y-66603713D01*
X139749450Y-66500966D01*
X139736437Y-66380040D01*
X139721040Y-66245563D01*
X139703844Y-66102166D01*
X139685436Y-65954479D01*
X139666400Y-65807131D01*
X139647323Y-65664750D01*
X139628789Y-65531968D01*
X139611384Y-65413414D01*
X139595694Y-65313716D01*
X139582305Y-65237505D01*
X139571801Y-65189410D01*
X139565829Y-65174258D01*
X139539052Y-65165993D01*
X139486241Y-65157971D01*
X139418413Y-65151831D01*
X139412816Y-65151479D01*
X139230619Y-65123677D01*
X139062959Y-65065319D01*
X138912852Y-64979621D01*
X138783321Y-64869804D01*
X138677381Y-64739084D01*
X138598052Y-64590681D01*
X138548355Y-64427813D01*
X138531308Y-64253696D01*
X138532300Y-64212876D01*
X138557733Y-64035668D01*
X138614406Y-63872441D01*
X138698696Y-63725960D01*
X138806979Y-63599000D01*
X138935632Y-63494330D01*
X139081031Y-63414721D01*
X139239551Y-63362944D01*
X139407572Y-63341770D01*
X139581467Y-63353969D01*
X139639965Y-63365896D01*
X139800427Y-63416309D01*
X139937426Y-63487810D01*
X140059765Y-63585984D01*
X140159578Y-63695527D01*
X140247734Y-63832582D01*
X140306948Y-63987281D01*
X140336748Y-64153510D01*
X140336661Y-64325158D01*
X140306217Y-64496112D01*
X140244946Y-64660261D01*
X140235443Y-64679321D01*
X140205962Y-64740794D01*
X140185597Y-64791066D01*
X140178537Y-64819735D01*
X140178616Y-64820466D01*
X140193937Y-64838222D01*
X140235151Y-64874802D01*
X140298543Y-64927384D01*
X140380394Y-64993147D01*
X140476988Y-65069271D01*
X140584610Y-65152936D01*
X140699541Y-65241321D01*
X140818067Y-65331605D01*
X140936467Y-65420967D01*
X141051028Y-65506586D01*
X141158033Y-65585644D01*
X141253763Y-65655317D01*
X141334504Y-65712786D01*
X141396537Y-65755230D01*
X141436146Y-65779828D01*
X141449218Y-65784747D01*
X141468463Y-65763928D01*
X141501065Y-65719071D01*
X141541472Y-65658030D01*
X141563123Y-65623483D01*
X141654257Y-65475350D01*
X141873733Y-65490981D01*
X141985882Y-65499155D01*
X142108845Y-65508413D01*
X142224229Y-65517357D01*
X142282111Y-65521988D01*
X142362925Y-65527472D01*
X142430129Y-65529992D01*
X142475027Y-65529336D01*
X142488368Y-65526974D01*
X142498182Y-65506900D01*
X142516293Y-65456221D01*
X142541064Y-65380058D01*
X142570860Y-65283533D01*
X142604045Y-65171764D01*
X142624647Y-65100408D01*
X142659737Y-64973917D01*
X142688674Y-64862193D01*
X142710383Y-64769923D01*
X142723793Y-64701788D01*
X142727830Y-64662475D01*
X142726504Y-64655735D01*
X142705216Y-64639479D01*
X142655553Y-64610430D01*
X142582782Y-64571392D01*
X142492171Y-64525168D01*
X142388986Y-64474561D01*
X142359909Y-64460632D01*
X142254082Y-64410086D01*
X142158986Y-64364473D01*
X142079948Y-64326365D01*
X142022299Y-64298331D01*
X141991369Y-64282945D01*
X141988282Y-64281290D01*
X141979200Y-64260040D01*
X141966658Y-64209031D01*
X141951773Y-64135300D01*
X141935659Y-64045884D01*
X141919431Y-63947820D01*
X141904203Y-63848147D01*
X141891092Y-63753901D01*
X141881211Y-63672120D01*
X141875674Y-63609842D01*
X141875598Y-63574104D01*
X141875951Y-63572184D01*
X141880951Y-63559071D01*
X141892497Y-63542293D01*
X141913629Y-63519046D01*
X141947390Y-63486528D01*
X141996822Y-63441935D01*
X142064968Y-63382464D01*
X142154869Y-63305312D01*
X142269566Y-63207676D01*
X142294420Y-63186572D01*
X142367568Y-63123131D01*
X142430358Y-63066130D01*
X142477316Y-63020733D01*
X142502966Y-62992104D01*
X142505813Y-62987239D01*
X142500433Y-62961779D01*
X142478473Y-62910624D01*
X142443143Y-62839338D01*
X142397650Y-62753490D01*
X142345205Y-62658648D01*
X142289017Y-62560378D01*
X142232294Y-62464249D01*
X142178247Y-62375827D01*
X142130085Y-62300679D01*
X142091015Y-62244374D01*
X142064249Y-62212478D01*
X142056277Y-62207391D01*
X142031023Y-62212195D01*
X141976270Y-62227904D01*
X141897383Y-62252797D01*
X141799730Y-62285157D01*
X141688677Y-62323264D01*
X141628404Y-62344431D01*
X141514114Y-62384705D01*
X141412037Y-62420346D01*
X141327175Y-62449637D01*
X141264531Y-62470856D01*
X141229108Y-62482285D01*
X141223054Y-62483779D01*
X141204521Y-62471926D01*
X141162465Y-62441881D01*
X141102718Y-62398042D01*
X141031110Y-62344801D01*
X140953471Y-62286553D01*
X140875634Y-62227693D01*
X140803429Y-62172617D01*
X140742687Y-62125716D01*
X140699239Y-62091388D01*
X140678916Y-62074027D01*
X140678222Y-62073156D01*
X140677040Y-62050886D01*
X140678719Y-61997099D01*
X140682953Y-61917220D01*
X140689433Y-61816677D01*
X140697852Y-61700898D01*
X140703080Y-61634168D01*
X140712291Y-61512030D01*
X140719474Y-61401822D01*
X140724364Y-61309064D01*
X140726689Y-61239277D01*
X140726184Y-61197979D01*
X140724674Y-61189527D01*
X140704411Y-61179526D01*
X140654305Y-61162120D01*
X140580443Y-61138988D01*
X140488910Y-61111805D01*
X140385790Y-61082251D01*
X140277170Y-61052002D01*
X140169134Y-61022738D01*
X140067768Y-60996133D01*
X139979157Y-60973868D01*
X139909387Y-60957618D01*
X139864543Y-60949060D01*
X139850972Y-60948675D01*
X139839675Y-60966757D01*
X139814747Y-61013626D01*
X139778546Y-61084612D01*
X139733432Y-61175049D01*
X139681764Y-61280268D01*
X139643036Y-61360063D01*
X139447859Y-61764085D01*
X138784662Y-61852538D01*
X138489759Y-61509392D01*
X138194856Y-61166247D01*
X137393395Y-61628971D01*
X137543116Y-62055937D01*
G37*
X137543116Y-62055937D02*
X137692837Y-62482903D01*
X137488738Y-62747962D01*
X137284637Y-63013022D01*
X136837155Y-62980039D01*
X136712040Y-62971156D01*
X136599332Y-62963801D01*
X136504260Y-62958261D01*
X136432049Y-62954825D01*
X136387930Y-62953781D01*
X136376565Y-62954625D01*
X136366920Y-62974897D01*
X136350307Y-63025142D01*
X136328311Y-63099248D01*
X136302520Y-63191106D01*
X136274521Y-63294608D01*
X136245899Y-63403646D01*
X136218241Y-63512107D01*
X136193135Y-63613886D01*
X136172167Y-63702873D01*
X136156923Y-63772958D01*
X136148990Y-63818032D01*
X136148769Y-63831711D01*
X136168350Y-63845390D01*
X136216615Y-63872260D01*
X136288666Y-63909794D01*
X136379597Y-63955470D01*
X136484511Y-64006763D01*
X136544864Y-64035723D01*
X136654961Y-64088665D01*
X136753490Y-64136916D01*
X136835614Y-64178034D01*
X136896492Y-64209579D01*
X136931291Y-64229112D01*
X136937547Y-64233826D01*
X136941785Y-64255044D01*
X136949287Y-64305867D01*
X136959166Y-64379051D01*
X136970537Y-64467353D01*
X136982512Y-64563532D01*
X136994207Y-64660343D01*
X137004734Y-64750544D01*
X137013208Y-64826892D01*
X137018742Y-64882143D01*
X137020449Y-64909056D01*
X137020312Y-64910233D01*
X137006332Y-64923633D01*
X136968101Y-64957589D01*
X136909611Y-65008632D01*
X136834851Y-65073288D01*
X136747812Y-65148087D01*
X136696958Y-65191603D01*
X136604067Y-65271727D01*
X136520719Y-65345058D01*
X136451086Y-65407809D01*
X136399339Y-65456190D01*
X136369651Y-65486415D01*
X136364341Y-65493632D01*
X136369547Y-65518722D01*
X136391407Y-65569555D01*
X136426706Y-65640569D01*
X136472225Y-65726199D01*
X136524750Y-65820883D01*
X136581062Y-65919058D01*
X136637946Y-66015162D01*
X136692183Y-66103629D01*
X136740558Y-66178898D01*
X136779852Y-66235407D01*
X136806849Y-66267591D01*
X136814942Y-66272864D01*
X136842734Y-66268739D01*
X136898066Y-66253835D01*
X136973728Y-66230313D01*
X137062509Y-66200333D01*
X137093265Y-66189460D01*
X137241345Y-66136673D01*
X137358534Y-66095352D01*
X137448784Y-66064266D01*
X137516042Y-66042182D01*
X137564256Y-66027866D01*
X137597377Y-66020086D01*
X137619351Y-66017608D01*
X137634129Y-66019200D01*
X137636450Y-66019861D01*
X137664924Y-66035654D01*
X137714230Y-66069915D01*
X137778834Y-66118159D01*
X137853196Y-66175902D01*
X137931780Y-66238661D01*
X138009049Y-66301950D01*
X138079466Y-66361286D01*
X138137492Y-66412184D01*
X138177592Y-66450161D01*
X138194228Y-66470731D01*
X138194388Y-66471696D01*
X138192974Y-66497177D01*
X138189036Y-66553719D01*
X138183011Y-66635420D01*
X138175335Y-66736380D01*
X138166449Y-66850698D01*
X138163889Y-66883205D01*
X138155567Y-67000502D01*
X138149824Y-67106457D01*
X138146842Y-67195068D01*
X138146804Y-67260340D01*
X138149890Y-67296272D01*
X138151254Y-67300117D01*
X138172928Y-67311958D01*
X138224565Y-67330388D01*
X138299970Y-67353804D01*
X138392944Y-67380596D01*
X138497290Y-67409160D01*
X138606809Y-67437887D01*
X138715305Y-67465173D01*
X138816579Y-67489408D01*
X138904433Y-67508988D01*
X138972669Y-67522305D01*
X139015091Y-67527753D01*
X139025357Y-67526714D01*
X139039339Y-67507128D01*
X139064728Y-67461417D01*
X139097462Y-67397157D01*
X139121951Y-67346508D01*
X139165959Y-67254105D01*
X139218274Y-67145019D01*
X139270907Y-67035875D01*
X139299287Y-66977339D01*
X139395487Y-66779451D01*
X139569341Y-66774594D01*
X139647821Y-66771128D01*
X139713232Y-66765888D01*
X139755995Y-66759749D01*
X139765953Y-66756581D01*
X139768330Y-66736151D01*
X139765982Y-66683651D01*
X139759494Y-66603713D01*
X139749450Y-66500966D01*
X139736437Y-66380040D01*
X139721040Y-66245563D01*
X139703844Y-66102166D01*
X139685436Y-65954479D01*
X139666400Y-65807131D01*
X139647323Y-65664750D01*
X139628789Y-65531968D01*
X139611384Y-65413414D01*
X139595694Y-65313716D01*
X139582305Y-65237505D01*
X139571801Y-65189410D01*
X139565829Y-65174258D01*
X139539052Y-65165993D01*
X139486241Y-65157971D01*
X139418413Y-65151831D01*
X139412816Y-65151479D01*
X139230619Y-65123677D01*
X139062959Y-65065319D01*
X138912852Y-64979621D01*
X138783321Y-64869804D01*
X138677381Y-64739084D01*
X138598052Y-64590681D01*
X138548355Y-64427813D01*
X138531308Y-64253696D01*
X138532300Y-64212876D01*
X138557733Y-64035668D01*
X138614406Y-63872441D01*
X138698696Y-63725960D01*
X138806979Y-63599000D01*
X138935632Y-63494330D01*
X139081031Y-63414721D01*
X139239551Y-63362944D01*
X139407572Y-63341770D01*
X139581467Y-63353969D01*
X139639965Y-63365896D01*
X139800427Y-63416309D01*
X139937426Y-63487810D01*
X140059765Y-63585984D01*
X140159578Y-63695527D01*
X140247734Y-63832582D01*
X140306948Y-63987281D01*
X140336748Y-64153510D01*
X140336661Y-64325158D01*
X140306217Y-64496112D01*
X140244946Y-64660261D01*
X140235443Y-64679321D01*
X140205962Y-64740794D01*
X140185597Y-64791066D01*
X140178537Y-64819735D01*
X140178616Y-64820466D01*
X140193937Y-64838222D01*
X140235151Y-64874802D01*
X140298543Y-64927384D01*
X140380394Y-64993147D01*
X140476988Y-65069271D01*
X140584610Y-65152936D01*
X140699541Y-65241321D01*
X140818067Y-65331605D01*
X140936467Y-65420967D01*
X141051028Y-65506586D01*
X141158033Y-65585644D01*
X141253763Y-65655317D01*
X141334504Y-65712786D01*
X141396537Y-65755230D01*
X141436146Y-65779828D01*
X141449218Y-65784747D01*
X141468463Y-65763928D01*
X141501065Y-65719071D01*
X141541472Y-65658030D01*
X141563123Y-65623483D01*
X141654257Y-65475350D01*
X141873733Y-65490981D01*
X141985882Y-65499155D01*
X142108845Y-65508413D01*
X142224229Y-65517357D01*
X142282111Y-65521988D01*
X142362925Y-65527472D01*
X142430129Y-65529992D01*
X142475027Y-65529336D01*
X142488368Y-65526974D01*
X142498182Y-65506900D01*
X142516293Y-65456221D01*
X142541064Y-65380058D01*
X142570860Y-65283533D01*
X142604045Y-65171764D01*
X142624647Y-65100408D01*
X142659737Y-64973917D01*
X142688674Y-64862193D01*
X142710383Y-64769923D01*
X142723793Y-64701788D01*
X142727830Y-64662475D01*
X142726504Y-64655735D01*
X142705216Y-64639479D01*
X142655553Y-64610430D01*
X142582782Y-64571392D01*
X142492171Y-64525168D01*
X142388986Y-64474561D01*
X142359909Y-64460632D01*
X142254082Y-64410086D01*
X142158986Y-64364473D01*
X142079948Y-64326365D01*
X142022299Y-64298331D01*
X141991369Y-64282945D01*
X141988282Y-64281290D01*
X141979200Y-64260040D01*
X141966658Y-64209031D01*
X141951773Y-64135300D01*
X141935659Y-64045884D01*
X141919431Y-63947820D01*
X141904203Y-63848147D01*
X141891092Y-63753901D01*
X141881211Y-63672120D01*
X141875674Y-63609842D01*
X141875598Y-63574104D01*
X141875951Y-63572184D01*
X141880951Y-63559071D01*
X141892497Y-63542293D01*
X141913629Y-63519046D01*
X141947390Y-63486528D01*
X141996822Y-63441935D01*
X142064968Y-63382464D01*
X142154869Y-63305312D01*
X142269566Y-63207676D01*
X142294420Y-63186572D01*
X142367568Y-63123131D01*
X142430358Y-63066130D01*
X142477316Y-63020733D01*
X142502966Y-62992104D01*
X142505813Y-62987239D01*
X142500433Y-62961779D01*
X142478473Y-62910624D01*
X142443143Y-62839338D01*
X142397650Y-62753490D01*
X142345205Y-62658648D01*
X142289017Y-62560378D01*
X142232294Y-62464249D01*
X142178247Y-62375827D01*
X142130085Y-62300679D01*
X142091015Y-62244374D01*
X142064249Y-62212478D01*
X142056277Y-62207391D01*
X142031023Y-62212195D01*
X141976270Y-62227904D01*
X141897383Y-62252797D01*
X141799730Y-62285157D01*
X141688677Y-62323264D01*
X141628404Y-62344431D01*
X141514114Y-62384705D01*
X141412037Y-62420346D01*
X141327175Y-62449637D01*
X141264531Y-62470856D01*
X141229108Y-62482285D01*
X141223054Y-62483779D01*
X141204521Y-62471926D01*
X141162465Y-62441881D01*
X141102718Y-62398042D01*
X141031110Y-62344801D01*
X140953471Y-62286553D01*
X140875634Y-62227693D01*
X140803429Y-62172617D01*
X140742687Y-62125716D01*
X140699239Y-62091388D01*
X140678916Y-62074027D01*
X140678222Y-62073156D01*
X140677040Y-62050886D01*
X140678719Y-61997099D01*
X140682953Y-61917220D01*
X140689433Y-61816677D01*
X140697852Y-61700898D01*
X140703080Y-61634168D01*
X140712291Y-61512030D01*
X140719474Y-61401822D01*
X140724364Y-61309064D01*
X140726689Y-61239277D01*
X140726184Y-61197979D01*
X140724674Y-61189527D01*
X140704411Y-61179526D01*
X140654305Y-61162120D01*
X140580443Y-61138988D01*
X140488910Y-61111805D01*
X140385790Y-61082251D01*
X140277170Y-61052002D01*
X140169134Y-61022738D01*
X140067768Y-60996133D01*
X139979157Y-60973868D01*
X139909387Y-60957618D01*
X139864543Y-60949060D01*
X139850972Y-60948675D01*
X139839675Y-60966757D01*
X139814747Y-61013626D01*
X139778546Y-61084612D01*
X139733432Y-61175049D01*
X139681764Y-61280268D01*
X139643036Y-61360063D01*
X139447859Y-61764085D01*
X138784662Y-61852538D01*
X138489759Y-61509392D01*
X138194856Y-61166247D01*
X137393395Y-61628971D01*
X137543116Y-62055937D01*
D12*
X158631842Y-87889931D02*
X158298376Y-87413834D01*
X158827282Y-87352964D02*
X157887590Y-87010944D01*
X157757296Y-87368922D01*
X157769470Y-87474703D01*
X157797931Y-87535737D01*
X157871139Y-87613058D01*
X158005380Y-87661918D01*
X158111162Y-87649744D01*
X158172195Y-87621283D01*
X158249516Y-87548075D01*
X158379809Y-87190097D01*
X157993042Y-88113503D02*
X157879035Y-88426734D01*
X158322395Y-88740129D02*
X158485262Y-88292657D01*
X157545569Y-87950637D01*
X157382703Y-88398109D01*
X158147355Y-89081821D02*
X158143242Y-89232349D01*
X158061809Y-89456086D01*
X157984488Y-89529293D01*
X157923454Y-89557754D01*
X157817673Y-89569928D01*
X157728178Y-89537355D01*
X157654970Y-89460034D01*
X157626510Y-89399000D01*
X157614336Y-89293219D01*
X157634735Y-89097943D01*
X157622561Y-88992162D01*
X157594101Y-88931128D01*
X157520893Y-88853807D01*
X157431398Y-88821234D01*
X157325617Y-88833408D01*
X157264583Y-88861869D01*
X157187263Y-88935076D01*
X157105829Y-89158813D01*
X157101716Y-89309341D01*
X157357862Y-89858647D02*
X157243855Y-90171878D01*
X157687215Y-90485273D02*
X157850082Y-90037800D01*
X156910389Y-89695780D01*
X156747522Y-90143253D01*
X156649802Y-90411736D02*
X156454362Y-90948703D01*
X157491775Y-91022240D02*
X156552082Y-90680220D01*
X153563787Y-50691871D02*
X153836837Y-50500679D01*
X154137282Y-50929759D02*
X153563706Y-50110607D01*
X153173633Y-50383738D01*
X153045080Y-51694527D02*
X153435152Y-51421396D01*
X152861576Y-50602244D01*
X152647157Y-51624363D02*
X152257085Y-51897495D01*
X152889051Y-51803780D02*
X152042423Y-51175820D01*
X152342949Y-52186164D01*
X152081593Y-52311036D02*
X151991884Y-52431983D01*
X151796848Y-52568549D01*
X151691520Y-52584168D01*
X151625200Y-52572474D01*
X151531566Y-52521772D01*
X151476940Y-52443758D01*
X151461321Y-52338430D01*
X151473015Y-52272110D01*
X151523716Y-52178476D01*
X151652432Y-52030216D01*
X151703133Y-51936583D01*
X151714827Y-51870262D01*
X151699208Y-51764935D01*
X151644582Y-51686920D01*
X151550948Y-51636219D01*
X151484628Y-51624525D01*
X151379300Y-51640144D01*
X151184264Y-51776710D01*
X151094556Y-51897656D01*
X151289754Y-52923620D02*
X150716177Y-52104468D01*
X150989309Y-52494540D02*
X150521222Y-52822298D01*
X150821667Y-53251378D02*
X150248090Y-52432226D01*
M02*
