G04 #@! TF.GenerationSoftware,KiCad,Pcbnew,5.1.5+dfsg1-2build2*
G04 #@! TF.CreationDate,2020-11-24T14:56:23+01:00*
G04 #@! TF.ProjectId,GreenEggs_and_Clem,47726565-6e45-4676-9773-5f616e645f43,v0.1*
G04 #@! TF.SameCoordinates,Original*
G04 #@! TF.FileFunction,Soldermask,Bot*
G04 #@! TF.FilePolarity,Negative*
%FSLAX46Y46*%
G04 Gerber Fmt 4.6, Leading zero omitted, Abs format (unit mm)*
G04 Created by KiCad (PCBNEW 5.1.5+dfsg1-2build2) date 2020-11-24 14:56:23*
%MOMM*%
%LPD*%
G04 APERTURE LIST*
%ADD10C,0.100000*%
G04 APERTURE END LIST*
D10*
G36*
X140601000Y-147881000D02*
G01*
X138799000Y-147881000D01*
X138799000Y-146079000D01*
X140601000Y-146079000D01*
X140601000Y-147881000D01*
G37*
G36*
X149963512Y-146073927D02*
G01*
X150112812Y-146103624D01*
X150276784Y-146171544D01*
X150424354Y-146270147D01*
X150549853Y-146395646D01*
X150648456Y-146543216D01*
X150716376Y-146707188D01*
X150751000Y-146881259D01*
X150751000Y-147058741D01*
X150716376Y-147232812D01*
X150648456Y-147396784D01*
X150549853Y-147544354D01*
X150424354Y-147669853D01*
X150276784Y-147768456D01*
X150112812Y-147836376D01*
X149963512Y-147866073D01*
X149938742Y-147871000D01*
X149761258Y-147871000D01*
X149736488Y-147866073D01*
X149587188Y-147836376D01*
X149423216Y-147768456D01*
X149275646Y-147669853D01*
X149150147Y-147544354D01*
X149051544Y-147396784D01*
X148983624Y-147232812D01*
X148949000Y-147058741D01*
X148949000Y-146881259D01*
X148983624Y-146707188D01*
X149051544Y-146543216D01*
X149150147Y-146395646D01*
X149275646Y-146270147D01*
X149423216Y-146171544D01*
X149587188Y-146103624D01*
X149736488Y-146073927D01*
X149761258Y-146069000D01*
X149938742Y-146069000D01*
X149963512Y-146073927D01*
G37*
G36*
X139813512Y-143543927D02*
G01*
X139962812Y-143573624D01*
X140126784Y-143641544D01*
X140274354Y-143740147D01*
X140399853Y-143865646D01*
X140498456Y-144013216D01*
X140566376Y-144177188D01*
X140601000Y-144351259D01*
X140601000Y-144528741D01*
X140566376Y-144702812D01*
X140498456Y-144866784D01*
X140399853Y-145014354D01*
X140274354Y-145139853D01*
X140126784Y-145238456D01*
X139962812Y-145306376D01*
X139813512Y-145336073D01*
X139788742Y-145341000D01*
X139611258Y-145341000D01*
X139586488Y-145336073D01*
X139437188Y-145306376D01*
X139273216Y-145238456D01*
X139125646Y-145139853D01*
X139000147Y-145014354D01*
X138901544Y-144866784D01*
X138833624Y-144702812D01*
X138799000Y-144528741D01*
X138799000Y-144351259D01*
X138833624Y-144177188D01*
X138901544Y-144013216D01*
X139000147Y-143865646D01*
X139125646Y-143740147D01*
X139273216Y-143641544D01*
X139437188Y-143573624D01*
X139586488Y-143543927D01*
X139611258Y-143539000D01*
X139788742Y-143539000D01*
X139813512Y-143543927D01*
G37*
G36*
X149963512Y-143533927D02*
G01*
X150112812Y-143563624D01*
X150276784Y-143631544D01*
X150424354Y-143730147D01*
X150549853Y-143855646D01*
X150648456Y-144003216D01*
X150716376Y-144167188D01*
X150751000Y-144341259D01*
X150751000Y-144518741D01*
X150716376Y-144692812D01*
X150648456Y-144856784D01*
X150549853Y-145004354D01*
X150424354Y-145129853D01*
X150276784Y-145228456D01*
X150112812Y-145296376D01*
X149963512Y-145326073D01*
X149938742Y-145331000D01*
X149761258Y-145331000D01*
X149736488Y-145326073D01*
X149587188Y-145296376D01*
X149423216Y-145228456D01*
X149275646Y-145129853D01*
X149150147Y-145004354D01*
X149051544Y-144856784D01*
X148983624Y-144692812D01*
X148949000Y-144518741D01*
X148949000Y-144341259D01*
X148983624Y-144167188D01*
X149051544Y-144003216D01*
X149150147Y-143855646D01*
X149275646Y-143730147D01*
X149423216Y-143631544D01*
X149587188Y-143563624D01*
X149736488Y-143533927D01*
X149761258Y-143529000D01*
X149938742Y-143529000D01*
X149963512Y-143533927D01*
G37*
G36*
X139813512Y-141003927D02*
G01*
X139962812Y-141033624D01*
X140126784Y-141101544D01*
X140274354Y-141200147D01*
X140399853Y-141325646D01*
X140498456Y-141473216D01*
X140566376Y-141637188D01*
X140601000Y-141811259D01*
X140601000Y-141988741D01*
X140566376Y-142162812D01*
X140498456Y-142326784D01*
X140399853Y-142474354D01*
X140274354Y-142599853D01*
X140126784Y-142698456D01*
X139962812Y-142766376D01*
X139813512Y-142796073D01*
X139788742Y-142801000D01*
X139611258Y-142801000D01*
X139586488Y-142796073D01*
X139437188Y-142766376D01*
X139273216Y-142698456D01*
X139125646Y-142599853D01*
X139000147Y-142474354D01*
X138901544Y-142326784D01*
X138833624Y-142162812D01*
X138799000Y-141988741D01*
X138799000Y-141811259D01*
X138833624Y-141637188D01*
X138901544Y-141473216D01*
X139000147Y-141325646D01*
X139125646Y-141200147D01*
X139273216Y-141101544D01*
X139437188Y-141033624D01*
X139586488Y-141003927D01*
X139611258Y-140999000D01*
X139788742Y-140999000D01*
X139813512Y-141003927D01*
G37*
G36*
X149963512Y-140993927D02*
G01*
X150112812Y-141023624D01*
X150276784Y-141091544D01*
X150424354Y-141190147D01*
X150549853Y-141315646D01*
X150648456Y-141463216D01*
X150716376Y-141627188D01*
X150751000Y-141801259D01*
X150751000Y-141978741D01*
X150716376Y-142152812D01*
X150648456Y-142316784D01*
X150549853Y-142464354D01*
X150424354Y-142589853D01*
X150276784Y-142688456D01*
X150112812Y-142756376D01*
X149963512Y-142786073D01*
X149938742Y-142791000D01*
X149761258Y-142791000D01*
X149736488Y-142786073D01*
X149587188Y-142756376D01*
X149423216Y-142688456D01*
X149275646Y-142589853D01*
X149150147Y-142464354D01*
X149051544Y-142316784D01*
X148983624Y-142152812D01*
X148949000Y-141978741D01*
X148949000Y-141801259D01*
X148983624Y-141627188D01*
X149051544Y-141463216D01*
X149150147Y-141315646D01*
X149275646Y-141190147D01*
X149423216Y-141091544D01*
X149587188Y-141023624D01*
X149736488Y-140993927D01*
X149761258Y-140989000D01*
X149938742Y-140989000D01*
X149963512Y-140993927D01*
G37*
G36*
X139813512Y-138463927D02*
G01*
X139962812Y-138493624D01*
X140126784Y-138561544D01*
X140274354Y-138660147D01*
X140399853Y-138785646D01*
X140498456Y-138933216D01*
X140566376Y-139097188D01*
X140601000Y-139271259D01*
X140601000Y-139448741D01*
X140566376Y-139622812D01*
X140498456Y-139786784D01*
X140399853Y-139934354D01*
X140274354Y-140059853D01*
X140126784Y-140158456D01*
X139962812Y-140226376D01*
X139813512Y-140256073D01*
X139788742Y-140261000D01*
X139611258Y-140261000D01*
X139586488Y-140256073D01*
X139437188Y-140226376D01*
X139273216Y-140158456D01*
X139125646Y-140059853D01*
X139000147Y-139934354D01*
X138901544Y-139786784D01*
X138833624Y-139622812D01*
X138799000Y-139448741D01*
X138799000Y-139271259D01*
X138833624Y-139097188D01*
X138901544Y-138933216D01*
X139000147Y-138785646D01*
X139125646Y-138660147D01*
X139273216Y-138561544D01*
X139437188Y-138493624D01*
X139586488Y-138463927D01*
X139611258Y-138459000D01*
X139788742Y-138459000D01*
X139813512Y-138463927D01*
G37*
G36*
X149963512Y-138453927D02*
G01*
X150112812Y-138483624D01*
X150276784Y-138551544D01*
X150424354Y-138650147D01*
X150549853Y-138775646D01*
X150648456Y-138923216D01*
X150716376Y-139087188D01*
X150751000Y-139261259D01*
X150751000Y-139438741D01*
X150716376Y-139612812D01*
X150648456Y-139776784D01*
X150549853Y-139924354D01*
X150424354Y-140049853D01*
X150276784Y-140148456D01*
X150112812Y-140216376D01*
X149963512Y-140246073D01*
X149938742Y-140251000D01*
X149761258Y-140251000D01*
X149736488Y-140246073D01*
X149587188Y-140216376D01*
X149423216Y-140148456D01*
X149275646Y-140049853D01*
X149150147Y-139924354D01*
X149051544Y-139776784D01*
X148983624Y-139612812D01*
X148949000Y-139438741D01*
X148949000Y-139261259D01*
X148983624Y-139087188D01*
X149051544Y-138923216D01*
X149150147Y-138775646D01*
X149275646Y-138650147D01*
X149423216Y-138551544D01*
X149587188Y-138483624D01*
X149736488Y-138453927D01*
X149761258Y-138449000D01*
X149938742Y-138449000D01*
X149963512Y-138453927D01*
G37*
G36*
X139813512Y-135923927D02*
G01*
X139962812Y-135953624D01*
X140126784Y-136021544D01*
X140274354Y-136120147D01*
X140399853Y-136245646D01*
X140498456Y-136393216D01*
X140566376Y-136557188D01*
X140601000Y-136731259D01*
X140601000Y-136908741D01*
X140566376Y-137082812D01*
X140498456Y-137246784D01*
X140399853Y-137394354D01*
X140274354Y-137519853D01*
X140126784Y-137618456D01*
X139962812Y-137686376D01*
X139813512Y-137716073D01*
X139788742Y-137721000D01*
X139611258Y-137721000D01*
X139586488Y-137716073D01*
X139437188Y-137686376D01*
X139273216Y-137618456D01*
X139125646Y-137519853D01*
X139000147Y-137394354D01*
X138901544Y-137246784D01*
X138833624Y-137082812D01*
X138799000Y-136908741D01*
X138799000Y-136731259D01*
X138833624Y-136557188D01*
X138901544Y-136393216D01*
X139000147Y-136245646D01*
X139125646Y-136120147D01*
X139273216Y-136021544D01*
X139437188Y-135953624D01*
X139586488Y-135923927D01*
X139611258Y-135919000D01*
X139788742Y-135919000D01*
X139813512Y-135923927D01*
G37*
G36*
X149963512Y-135913927D02*
G01*
X150112812Y-135943624D01*
X150276784Y-136011544D01*
X150424354Y-136110147D01*
X150549853Y-136235646D01*
X150648456Y-136383216D01*
X150716376Y-136547188D01*
X150751000Y-136721259D01*
X150751000Y-136898741D01*
X150716376Y-137072812D01*
X150648456Y-137236784D01*
X150549853Y-137384354D01*
X150424354Y-137509853D01*
X150276784Y-137608456D01*
X150112812Y-137676376D01*
X149963512Y-137706073D01*
X149938742Y-137711000D01*
X149761258Y-137711000D01*
X149736488Y-137706073D01*
X149587188Y-137676376D01*
X149423216Y-137608456D01*
X149275646Y-137509853D01*
X149150147Y-137384354D01*
X149051544Y-137236784D01*
X148983624Y-137072812D01*
X148949000Y-136898741D01*
X148949000Y-136721259D01*
X148983624Y-136547188D01*
X149051544Y-136383216D01*
X149150147Y-136235646D01*
X149275646Y-136110147D01*
X149423216Y-136011544D01*
X149587188Y-135943624D01*
X149736488Y-135913927D01*
X149761258Y-135909000D01*
X149938742Y-135909000D01*
X149963512Y-135913927D01*
G37*
G36*
X139813512Y-133383927D02*
G01*
X139962812Y-133413624D01*
X140126784Y-133481544D01*
X140274354Y-133580147D01*
X140399853Y-133705646D01*
X140498456Y-133853216D01*
X140566376Y-134017188D01*
X140601000Y-134191259D01*
X140601000Y-134368741D01*
X140566376Y-134542812D01*
X140498456Y-134706784D01*
X140399853Y-134854354D01*
X140274354Y-134979853D01*
X140126784Y-135078456D01*
X139962812Y-135146376D01*
X139813512Y-135176073D01*
X139788742Y-135181000D01*
X139611258Y-135181000D01*
X139586488Y-135176073D01*
X139437188Y-135146376D01*
X139273216Y-135078456D01*
X139125646Y-134979853D01*
X139000147Y-134854354D01*
X138901544Y-134706784D01*
X138833624Y-134542812D01*
X138799000Y-134368741D01*
X138799000Y-134191259D01*
X138833624Y-134017188D01*
X138901544Y-133853216D01*
X139000147Y-133705646D01*
X139125646Y-133580147D01*
X139273216Y-133481544D01*
X139437188Y-133413624D01*
X139586488Y-133383927D01*
X139611258Y-133379000D01*
X139788742Y-133379000D01*
X139813512Y-133383927D01*
G37*
G36*
X149963512Y-133373927D02*
G01*
X150112812Y-133403624D01*
X150276784Y-133471544D01*
X150424354Y-133570147D01*
X150549853Y-133695646D01*
X150648456Y-133843216D01*
X150716376Y-134007188D01*
X150751000Y-134181259D01*
X150751000Y-134358741D01*
X150716376Y-134532812D01*
X150648456Y-134696784D01*
X150549853Y-134844354D01*
X150424354Y-134969853D01*
X150276784Y-135068456D01*
X150112812Y-135136376D01*
X149963512Y-135166073D01*
X149938742Y-135171000D01*
X149761258Y-135171000D01*
X149736488Y-135166073D01*
X149587188Y-135136376D01*
X149423216Y-135068456D01*
X149275646Y-134969853D01*
X149150147Y-134844354D01*
X149051544Y-134696784D01*
X148983624Y-134532812D01*
X148949000Y-134358741D01*
X148949000Y-134181259D01*
X148983624Y-134007188D01*
X149051544Y-133843216D01*
X149150147Y-133695646D01*
X149275646Y-133570147D01*
X149423216Y-133471544D01*
X149587188Y-133403624D01*
X149736488Y-133373927D01*
X149761258Y-133369000D01*
X149938742Y-133369000D01*
X149963512Y-133373927D01*
G37*
G36*
X139813512Y-130843927D02*
G01*
X139962812Y-130873624D01*
X140126784Y-130941544D01*
X140274354Y-131040147D01*
X140399853Y-131165646D01*
X140498456Y-131313216D01*
X140566376Y-131477188D01*
X140601000Y-131651259D01*
X140601000Y-131828741D01*
X140566376Y-132002812D01*
X140498456Y-132166784D01*
X140399853Y-132314354D01*
X140274354Y-132439853D01*
X140126784Y-132538456D01*
X139962812Y-132606376D01*
X139813512Y-132636073D01*
X139788742Y-132641000D01*
X139611258Y-132641000D01*
X139586488Y-132636073D01*
X139437188Y-132606376D01*
X139273216Y-132538456D01*
X139125646Y-132439853D01*
X139000147Y-132314354D01*
X138901544Y-132166784D01*
X138833624Y-132002812D01*
X138799000Y-131828741D01*
X138799000Y-131651259D01*
X138833624Y-131477188D01*
X138901544Y-131313216D01*
X139000147Y-131165646D01*
X139125646Y-131040147D01*
X139273216Y-130941544D01*
X139437188Y-130873624D01*
X139586488Y-130843927D01*
X139611258Y-130839000D01*
X139788742Y-130839000D01*
X139813512Y-130843927D01*
G37*
G36*
X149963512Y-130833927D02*
G01*
X150112812Y-130863624D01*
X150276784Y-130931544D01*
X150424354Y-131030147D01*
X150549853Y-131155646D01*
X150648456Y-131303216D01*
X150716376Y-131467188D01*
X150751000Y-131641259D01*
X150751000Y-131818741D01*
X150716376Y-131992812D01*
X150648456Y-132156784D01*
X150549853Y-132304354D01*
X150424354Y-132429853D01*
X150276784Y-132528456D01*
X150112812Y-132596376D01*
X149963512Y-132626073D01*
X149938742Y-132631000D01*
X149761258Y-132631000D01*
X149736488Y-132626073D01*
X149587188Y-132596376D01*
X149423216Y-132528456D01*
X149275646Y-132429853D01*
X149150147Y-132304354D01*
X149051544Y-132156784D01*
X148983624Y-131992812D01*
X148949000Y-131818741D01*
X148949000Y-131641259D01*
X148983624Y-131467188D01*
X149051544Y-131303216D01*
X149150147Y-131155646D01*
X149275646Y-131030147D01*
X149423216Y-130931544D01*
X149587188Y-130863624D01*
X149736488Y-130833927D01*
X149761258Y-130829000D01*
X149938742Y-130829000D01*
X149963512Y-130833927D01*
G37*
G36*
X139813512Y-128303927D02*
G01*
X139962812Y-128333624D01*
X140126784Y-128401544D01*
X140274354Y-128500147D01*
X140399853Y-128625646D01*
X140498456Y-128773216D01*
X140566376Y-128937188D01*
X140601000Y-129111259D01*
X140601000Y-129288741D01*
X140566376Y-129462812D01*
X140498456Y-129626784D01*
X140399853Y-129774354D01*
X140274354Y-129899853D01*
X140126784Y-129998456D01*
X139962812Y-130066376D01*
X139813512Y-130096073D01*
X139788742Y-130101000D01*
X139611258Y-130101000D01*
X139586488Y-130096073D01*
X139437188Y-130066376D01*
X139273216Y-129998456D01*
X139125646Y-129899853D01*
X139000147Y-129774354D01*
X138901544Y-129626784D01*
X138833624Y-129462812D01*
X138799000Y-129288741D01*
X138799000Y-129111259D01*
X138833624Y-128937188D01*
X138901544Y-128773216D01*
X139000147Y-128625646D01*
X139125646Y-128500147D01*
X139273216Y-128401544D01*
X139437188Y-128333624D01*
X139586488Y-128303927D01*
X139611258Y-128299000D01*
X139788742Y-128299000D01*
X139813512Y-128303927D01*
G37*
G36*
X149963512Y-128293927D02*
G01*
X150112812Y-128323624D01*
X150276784Y-128391544D01*
X150424354Y-128490147D01*
X150549853Y-128615646D01*
X150648456Y-128763216D01*
X150716376Y-128927188D01*
X150751000Y-129101259D01*
X150751000Y-129278741D01*
X150716376Y-129452812D01*
X150648456Y-129616784D01*
X150549853Y-129764354D01*
X150424354Y-129889853D01*
X150276784Y-129988456D01*
X150112812Y-130056376D01*
X149963512Y-130086073D01*
X149938742Y-130091000D01*
X149761258Y-130091000D01*
X149736488Y-130086073D01*
X149587188Y-130056376D01*
X149423216Y-129988456D01*
X149275646Y-129889853D01*
X149150147Y-129764354D01*
X149051544Y-129616784D01*
X148983624Y-129452812D01*
X148949000Y-129278741D01*
X148949000Y-129101259D01*
X148983624Y-128927188D01*
X149051544Y-128763216D01*
X149150147Y-128615646D01*
X149275646Y-128490147D01*
X149423216Y-128391544D01*
X149587188Y-128323624D01*
X149736488Y-128293927D01*
X149761258Y-128289000D01*
X149938742Y-128289000D01*
X149963512Y-128293927D01*
G37*
G36*
X139813512Y-125763927D02*
G01*
X139962812Y-125793624D01*
X140126784Y-125861544D01*
X140274354Y-125960147D01*
X140399853Y-126085646D01*
X140498456Y-126233216D01*
X140566376Y-126397188D01*
X140601000Y-126571259D01*
X140601000Y-126748741D01*
X140566376Y-126922812D01*
X140498456Y-127086784D01*
X140399853Y-127234354D01*
X140274354Y-127359853D01*
X140126784Y-127458456D01*
X139962812Y-127526376D01*
X139813512Y-127556073D01*
X139788742Y-127561000D01*
X139611258Y-127561000D01*
X139586488Y-127556073D01*
X139437188Y-127526376D01*
X139273216Y-127458456D01*
X139125646Y-127359853D01*
X139000147Y-127234354D01*
X138901544Y-127086784D01*
X138833624Y-126922812D01*
X138799000Y-126748741D01*
X138799000Y-126571259D01*
X138833624Y-126397188D01*
X138901544Y-126233216D01*
X139000147Y-126085646D01*
X139125646Y-125960147D01*
X139273216Y-125861544D01*
X139437188Y-125793624D01*
X139586488Y-125763927D01*
X139611258Y-125759000D01*
X139788742Y-125759000D01*
X139813512Y-125763927D01*
G37*
G36*
X149963512Y-125753927D02*
G01*
X150112812Y-125783624D01*
X150276784Y-125851544D01*
X150424354Y-125950147D01*
X150549853Y-126075646D01*
X150648456Y-126223216D01*
X150716376Y-126387188D01*
X150751000Y-126561259D01*
X150751000Y-126738741D01*
X150716376Y-126912812D01*
X150648456Y-127076784D01*
X150549853Y-127224354D01*
X150424354Y-127349853D01*
X150276784Y-127448456D01*
X150112812Y-127516376D01*
X149963512Y-127546073D01*
X149938742Y-127551000D01*
X149761258Y-127551000D01*
X149736488Y-127546073D01*
X149587188Y-127516376D01*
X149423216Y-127448456D01*
X149275646Y-127349853D01*
X149150147Y-127224354D01*
X149051544Y-127076784D01*
X148983624Y-126912812D01*
X148949000Y-126738741D01*
X148949000Y-126561259D01*
X148983624Y-126387188D01*
X149051544Y-126223216D01*
X149150147Y-126075646D01*
X149275646Y-125950147D01*
X149423216Y-125851544D01*
X149587188Y-125783624D01*
X149736488Y-125753927D01*
X149761258Y-125749000D01*
X149938742Y-125749000D01*
X149963512Y-125753927D01*
G37*
G36*
X139813512Y-123223927D02*
G01*
X139962812Y-123253624D01*
X140126784Y-123321544D01*
X140274354Y-123420147D01*
X140399853Y-123545646D01*
X140498456Y-123693216D01*
X140566376Y-123857188D01*
X140601000Y-124031259D01*
X140601000Y-124208741D01*
X140566376Y-124382812D01*
X140498456Y-124546784D01*
X140399853Y-124694354D01*
X140274354Y-124819853D01*
X140126784Y-124918456D01*
X139962812Y-124986376D01*
X139813512Y-125016073D01*
X139788742Y-125021000D01*
X139611258Y-125021000D01*
X139586488Y-125016073D01*
X139437188Y-124986376D01*
X139273216Y-124918456D01*
X139125646Y-124819853D01*
X139000147Y-124694354D01*
X138901544Y-124546784D01*
X138833624Y-124382812D01*
X138799000Y-124208741D01*
X138799000Y-124031259D01*
X138833624Y-123857188D01*
X138901544Y-123693216D01*
X139000147Y-123545646D01*
X139125646Y-123420147D01*
X139273216Y-123321544D01*
X139437188Y-123253624D01*
X139586488Y-123223927D01*
X139611258Y-123219000D01*
X139788742Y-123219000D01*
X139813512Y-123223927D01*
G37*
G36*
X149963512Y-123213927D02*
G01*
X150112812Y-123243624D01*
X150276784Y-123311544D01*
X150424354Y-123410147D01*
X150549853Y-123535646D01*
X150648456Y-123683216D01*
X150716376Y-123847188D01*
X150751000Y-124021259D01*
X150751000Y-124198741D01*
X150716376Y-124372812D01*
X150648456Y-124536784D01*
X150549853Y-124684354D01*
X150424354Y-124809853D01*
X150276784Y-124908456D01*
X150112812Y-124976376D01*
X149963512Y-125006073D01*
X149938742Y-125011000D01*
X149761258Y-125011000D01*
X149736488Y-125006073D01*
X149587188Y-124976376D01*
X149423216Y-124908456D01*
X149275646Y-124809853D01*
X149150147Y-124684354D01*
X149051544Y-124536784D01*
X148983624Y-124372812D01*
X148949000Y-124198741D01*
X148949000Y-124021259D01*
X148983624Y-123847188D01*
X149051544Y-123683216D01*
X149150147Y-123535646D01*
X149275646Y-123410147D01*
X149423216Y-123311544D01*
X149587188Y-123243624D01*
X149736488Y-123213927D01*
X149761258Y-123209000D01*
X149938742Y-123209000D01*
X149963512Y-123213927D01*
G37*
G36*
X139813512Y-120683927D02*
G01*
X139962812Y-120713624D01*
X140126784Y-120781544D01*
X140274354Y-120880147D01*
X140399853Y-121005646D01*
X140498456Y-121153216D01*
X140566376Y-121317188D01*
X140601000Y-121491259D01*
X140601000Y-121668741D01*
X140566376Y-121842812D01*
X140498456Y-122006784D01*
X140399853Y-122154354D01*
X140274354Y-122279853D01*
X140126784Y-122378456D01*
X139962812Y-122446376D01*
X139813512Y-122476073D01*
X139788742Y-122481000D01*
X139611258Y-122481000D01*
X139586488Y-122476073D01*
X139437188Y-122446376D01*
X139273216Y-122378456D01*
X139125646Y-122279853D01*
X139000147Y-122154354D01*
X138901544Y-122006784D01*
X138833624Y-121842812D01*
X138799000Y-121668741D01*
X138799000Y-121491259D01*
X138833624Y-121317188D01*
X138901544Y-121153216D01*
X139000147Y-121005646D01*
X139125646Y-120880147D01*
X139273216Y-120781544D01*
X139437188Y-120713624D01*
X139586488Y-120683927D01*
X139611258Y-120679000D01*
X139788742Y-120679000D01*
X139813512Y-120683927D01*
G37*
G36*
X149963512Y-120673927D02*
G01*
X150112812Y-120703624D01*
X150276784Y-120771544D01*
X150424354Y-120870147D01*
X150549853Y-120995646D01*
X150648456Y-121143216D01*
X150716376Y-121307188D01*
X150751000Y-121481259D01*
X150751000Y-121658741D01*
X150716376Y-121832812D01*
X150648456Y-121996784D01*
X150549853Y-122144354D01*
X150424354Y-122269853D01*
X150276784Y-122368456D01*
X150112812Y-122436376D01*
X149963512Y-122466073D01*
X149938742Y-122471000D01*
X149761258Y-122471000D01*
X149736488Y-122466073D01*
X149587188Y-122436376D01*
X149423216Y-122368456D01*
X149275646Y-122269853D01*
X149150147Y-122144354D01*
X149051544Y-121996784D01*
X148983624Y-121832812D01*
X148949000Y-121658741D01*
X148949000Y-121481259D01*
X148983624Y-121307188D01*
X149051544Y-121143216D01*
X149150147Y-120995646D01*
X149275646Y-120870147D01*
X149423216Y-120771544D01*
X149587188Y-120703624D01*
X149736488Y-120673927D01*
X149761258Y-120669000D01*
X149938742Y-120669000D01*
X149963512Y-120673927D01*
G37*
G36*
X139813512Y-118143927D02*
G01*
X139962812Y-118173624D01*
X140126784Y-118241544D01*
X140274354Y-118340147D01*
X140399853Y-118465646D01*
X140498456Y-118613216D01*
X140566376Y-118777188D01*
X140601000Y-118951259D01*
X140601000Y-119128741D01*
X140566376Y-119302812D01*
X140498456Y-119466784D01*
X140399853Y-119614354D01*
X140274354Y-119739853D01*
X140126784Y-119838456D01*
X139962812Y-119906376D01*
X139813512Y-119936073D01*
X139788742Y-119941000D01*
X139611258Y-119941000D01*
X139586488Y-119936073D01*
X139437188Y-119906376D01*
X139273216Y-119838456D01*
X139125646Y-119739853D01*
X139000147Y-119614354D01*
X138901544Y-119466784D01*
X138833624Y-119302812D01*
X138799000Y-119128741D01*
X138799000Y-118951259D01*
X138833624Y-118777188D01*
X138901544Y-118613216D01*
X139000147Y-118465646D01*
X139125646Y-118340147D01*
X139273216Y-118241544D01*
X139437188Y-118173624D01*
X139586488Y-118143927D01*
X139611258Y-118139000D01*
X139788742Y-118139000D01*
X139813512Y-118143927D01*
G37*
G36*
X149963512Y-118133927D02*
G01*
X150112812Y-118163624D01*
X150276784Y-118231544D01*
X150424354Y-118330147D01*
X150549853Y-118455646D01*
X150648456Y-118603216D01*
X150716376Y-118767188D01*
X150751000Y-118941259D01*
X150751000Y-119118741D01*
X150716376Y-119292812D01*
X150648456Y-119456784D01*
X150549853Y-119604354D01*
X150424354Y-119729853D01*
X150276784Y-119828456D01*
X150112812Y-119896376D01*
X149963512Y-119926073D01*
X149938742Y-119931000D01*
X149761258Y-119931000D01*
X149736488Y-119926073D01*
X149587188Y-119896376D01*
X149423216Y-119828456D01*
X149275646Y-119729853D01*
X149150147Y-119604354D01*
X149051544Y-119456784D01*
X148983624Y-119292812D01*
X148949000Y-119118741D01*
X148949000Y-118941259D01*
X148983624Y-118767188D01*
X149051544Y-118603216D01*
X149150147Y-118455646D01*
X149275646Y-118330147D01*
X149423216Y-118231544D01*
X149587188Y-118163624D01*
X149736488Y-118133927D01*
X149761258Y-118129000D01*
X149938742Y-118129000D01*
X149963512Y-118133927D01*
G37*
G36*
X139813512Y-115603927D02*
G01*
X139962812Y-115633624D01*
X140126784Y-115701544D01*
X140274354Y-115800147D01*
X140399853Y-115925646D01*
X140498456Y-116073216D01*
X140566376Y-116237188D01*
X140601000Y-116411259D01*
X140601000Y-116588741D01*
X140566376Y-116762812D01*
X140498456Y-116926784D01*
X140399853Y-117074354D01*
X140274354Y-117199853D01*
X140126784Y-117298456D01*
X139962812Y-117366376D01*
X139813512Y-117396073D01*
X139788742Y-117401000D01*
X139611258Y-117401000D01*
X139586488Y-117396073D01*
X139437188Y-117366376D01*
X139273216Y-117298456D01*
X139125646Y-117199853D01*
X139000147Y-117074354D01*
X138901544Y-116926784D01*
X138833624Y-116762812D01*
X138799000Y-116588741D01*
X138799000Y-116411259D01*
X138833624Y-116237188D01*
X138901544Y-116073216D01*
X139000147Y-115925646D01*
X139125646Y-115800147D01*
X139273216Y-115701544D01*
X139437188Y-115633624D01*
X139586488Y-115603927D01*
X139611258Y-115599000D01*
X139788742Y-115599000D01*
X139813512Y-115603927D01*
G37*
G36*
X149963512Y-115593927D02*
G01*
X150112812Y-115623624D01*
X150276784Y-115691544D01*
X150424354Y-115790147D01*
X150549853Y-115915646D01*
X150648456Y-116063216D01*
X150716376Y-116227188D01*
X150751000Y-116401259D01*
X150751000Y-116578741D01*
X150716376Y-116752812D01*
X150648456Y-116916784D01*
X150549853Y-117064354D01*
X150424354Y-117189853D01*
X150276784Y-117288456D01*
X150112812Y-117356376D01*
X149963512Y-117386073D01*
X149938742Y-117391000D01*
X149761258Y-117391000D01*
X149736488Y-117386073D01*
X149587188Y-117356376D01*
X149423216Y-117288456D01*
X149275646Y-117189853D01*
X149150147Y-117064354D01*
X149051544Y-116916784D01*
X148983624Y-116752812D01*
X148949000Y-116578741D01*
X148949000Y-116401259D01*
X148983624Y-116227188D01*
X149051544Y-116063216D01*
X149150147Y-115915646D01*
X149275646Y-115790147D01*
X149423216Y-115691544D01*
X149587188Y-115623624D01*
X149736488Y-115593927D01*
X149761258Y-115589000D01*
X149938742Y-115589000D01*
X149963512Y-115593927D01*
G37*
G36*
X139813512Y-113063927D02*
G01*
X139962812Y-113093624D01*
X140126784Y-113161544D01*
X140274354Y-113260147D01*
X140399853Y-113385646D01*
X140498456Y-113533216D01*
X140566376Y-113697188D01*
X140601000Y-113871259D01*
X140601000Y-114048741D01*
X140566376Y-114222812D01*
X140498456Y-114386784D01*
X140399853Y-114534354D01*
X140274354Y-114659853D01*
X140126784Y-114758456D01*
X139962812Y-114826376D01*
X139813512Y-114856073D01*
X139788742Y-114861000D01*
X139611258Y-114861000D01*
X139586488Y-114856073D01*
X139437188Y-114826376D01*
X139273216Y-114758456D01*
X139125646Y-114659853D01*
X139000147Y-114534354D01*
X138901544Y-114386784D01*
X138833624Y-114222812D01*
X138799000Y-114048741D01*
X138799000Y-113871259D01*
X138833624Y-113697188D01*
X138901544Y-113533216D01*
X139000147Y-113385646D01*
X139125646Y-113260147D01*
X139273216Y-113161544D01*
X139437188Y-113093624D01*
X139586488Y-113063927D01*
X139611258Y-113059000D01*
X139788742Y-113059000D01*
X139813512Y-113063927D01*
G37*
G36*
X149963512Y-113053927D02*
G01*
X150112812Y-113083624D01*
X150276784Y-113151544D01*
X150424354Y-113250147D01*
X150549853Y-113375646D01*
X150648456Y-113523216D01*
X150716376Y-113687188D01*
X150751000Y-113861259D01*
X150751000Y-114038741D01*
X150716376Y-114212812D01*
X150648456Y-114376784D01*
X150549853Y-114524354D01*
X150424354Y-114649853D01*
X150276784Y-114748456D01*
X150112812Y-114816376D01*
X149963512Y-114846073D01*
X149938742Y-114851000D01*
X149761258Y-114851000D01*
X149736488Y-114846073D01*
X149587188Y-114816376D01*
X149423216Y-114748456D01*
X149275646Y-114649853D01*
X149150147Y-114524354D01*
X149051544Y-114376784D01*
X148983624Y-114212812D01*
X148949000Y-114038741D01*
X148949000Y-113861259D01*
X148983624Y-113687188D01*
X149051544Y-113523216D01*
X149150147Y-113375646D01*
X149275646Y-113250147D01*
X149423216Y-113151544D01*
X149587188Y-113083624D01*
X149736488Y-113053927D01*
X149761258Y-113049000D01*
X149938742Y-113049000D01*
X149963512Y-113053927D01*
G37*
G36*
X139813512Y-110523927D02*
G01*
X139962812Y-110553624D01*
X140126784Y-110621544D01*
X140274354Y-110720147D01*
X140399853Y-110845646D01*
X140498456Y-110993216D01*
X140566376Y-111157188D01*
X140601000Y-111331259D01*
X140601000Y-111508741D01*
X140566376Y-111682812D01*
X140498456Y-111846784D01*
X140399853Y-111994354D01*
X140274354Y-112119853D01*
X140126784Y-112218456D01*
X139962812Y-112286376D01*
X139813512Y-112316073D01*
X139788742Y-112321000D01*
X139611258Y-112321000D01*
X139586488Y-112316073D01*
X139437188Y-112286376D01*
X139273216Y-112218456D01*
X139125646Y-112119853D01*
X139000147Y-111994354D01*
X138901544Y-111846784D01*
X138833624Y-111682812D01*
X138799000Y-111508741D01*
X138799000Y-111331259D01*
X138833624Y-111157188D01*
X138901544Y-110993216D01*
X139000147Y-110845646D01*
X139125646Y-110720147D01*
X139273216Y-110621544D01*
X139437188Y-110553624D01*
X139586488Y-110523927D01*
X139611258Y-110519000D01*
X139788742Y-110519000D01*
X139813512Y-110523927D01*
G37*
G36*
X149963512Y-110513927D02*
G01*
X150112812Y-110543624D01*
X150276784Y-110611544D01*
X150424354Y-110710147D01*
X150549853Y-110835646D01*
X150648456Y-110983216D01*
X150716376Y-111147188D01*
X150751000Y-111321259D01*
X150751000Y-111498741D01*
X150716376Y-111672812D01*
X150648456Y-111836784D01*
X150549853Y-111984354D01*
X150424354Y-112109853D01*
X150276784Y-112208456D01*
X150112812Y-112276376D01*
X149963512Y-112306073D01*
X149938742Y-112311000D01*
X149761258Y-112311000D01*
X149736488Y-112306073D01*
X149587188Y-112276376D01*
X149423216Y-112208456D01*
X149275646Y-112109853D01*
X149150147Y-111984354D01*
X149051544Y-111836784D01*
X148983624Y-111672812D01*
X148949000Y-111498741D01*
X148949000Y-111321259D01*
X148983624Y-111147188D01*
X149051544Y-110983216D01*
X149150147Y-110835646D01*
X149275646Y-110710147D01*
X149423216Y-110611544D01*
X149587188Y-110543624D01*
X149736488Y-110513927D01*
X149761258Y-110509000D01*
X149938742Y-110509000D01*
X149963512Y-110513927D01*
G37*
G36*
X139813512Y-107983927D02*
G01*
X139962812Y-108013624D01*
X140126784Y-108081544D01*
X140274354Y-108180147D01*
X140399853Y-108305646D01*
X140498456Y-108453216D01*
X140566376Y-108617188D01*
X140601000Y-108791259D01*
X140601000Y-108968741D01*
X140566376Y-109142812D01*
X140498456Y-109306784D01*
X140399853Y-109454354D01*
X140274354Y-109579853D01*
X140126784Y-109678456D01*
X139962812Y-109746376D01*
X139813512Y-109776073D01*
X139788742Y-109781000D01*
X139611258Y-109781000D01*
X139586488Y-109776073D01*
X139437188Y-109746376D01*
X139273216Y-109678456D01*
X139125646Y-109579853D01*
X139000147Y-109454354D01*
X138901544Y-109306784D01*
X138833624Y-109142812D01*
X138799000Y-108968741D01*
X138799000Y-108791259D01*
X138833624Y-108617188D01*
X138901544Y-108453216D01*
X139000147Y-108305646D01*
X139125646Y-108180147D01*
X139273216Y-108081544D01*
X139437188Y-108013624D01*
X139586488Y-107983927D01*
X139611258Y-107979000D01*
X139788742Y-107979000D01*
X139813512Y-107983927D01*
G37*
G36*
X150751000Y-109771000D02*
G01*
X148949000Y-109771000D01*
X148949000Y-107969000D01*
X150751000Y-107969000D01*
X150751000Y-109771000D01*
G37*
G36*
X163053433Y-93767391D02*
G01*
X163244702Y-93846617D01*
X163244704Y-93846618D01*
X163416842Y-93961637D01*
X163563234Y-94108029D01*
X163657777Y-94249522D01*
X163678254Y-94280169D01*
X163757480Y-94471438D01*
X163797869Y-94674486D01*
X163797869Y-94881518D01*
X163757480Y-95084566D01*
X163678254Y-95275835D01*
X163678253Y-95275837D01*
X163563234Y-95447975D01*
X163416842Y-95594367D01*
X163244704Y-95709386D01*
X163244703Y-95709387D01*
X163244702Y-95709387D01*
X163053433Y-95788613D01*
X162850385Y-95829002D01*
X162643353Y-95829002D01*
X162440305Y-95788613D01*
X162249036Y-95709387D01*
X162249035Y-95709387D01*
X162249034Y-95709386D01*
X162076896Y-95594367D01*
X161930504Y-95447975D01*
X161815485Y-95275837D01*
X161815484Y-95275835D01*
X161736258Y-95084566D01*
X161695869Y-94881518D01*
X161695869Y-94674486D01*
X161736258Y-94471438D01*
X161815484Y-94280169D01*
X161835962Y-94249522D01*
X161930504Y-94108029D01*
X162076896Y-93961637D01*
X162249034Y-93846618D01*
X162249036Y-93846617D01*
X162440305Y-93767391D01*
X162643353Y-93727002D01*
X162850385Y-93727002D01*
X163053433Y-93767391D01*
G37*
G36*
X158824816Y-92228300D02*
G01*
X159016085Y-92307526D01*
X159016087Y-92307527D01*
X159188225Y-92422546D01*
X159334617Y-92568938D01*
X159449637Y-92741078D01*
X159528863Y-92932347D01*
X159569252Y-93135395D01*
X159569252Y-93342427D01*
X159528863Y-93545475D01*
X159453672Y-93727002D01*
X159449636Y-93736746D01*
X159334617Y-93908884D01*
X159188225Y-94055276D01*
X159016087Y-94170295D01*
X159016086Y-94170296D01*
X159016085Y-94170296D01*
X158824816Y-94249522D01*
X158621768Y-94289911D01*
X158414736Y-94289911D01*
X158211688Y-94249522D01*
X158020419Y-94170296D01*
X158020418Y-94170296D01*
X158020417Y-94170295D01*
X157848279Y-94055276D01*
X157701887Y-93908884D01*
X157586868Y-93736746D01*
X157582832Y-93727002D01*
X157507641Y-93545475D01*
X157467252Y-93342427D01*
X157467252Y-93135395D01*
X157507641Y-92932347D01*
X157586867Y-92741078D01*
X157701887Y-92568938D01*
X157848279Y-92422546D01*
X158020417Y-92307527D01*
X158020419Y-92307526D01*
X158211688Y-92228300D01*
X158414736Y-92187911D01*
X158621768Y-92187911D01*
X158824816Y-92228300D01*
G37*
G36*
X165276564Y-87659389D02*
G01*
X165467833Y-87738615D01*
X165467835Y-87738616D01*
X165639973Y-87853635D01*
X165786365Y-88000027D01*
X165880908Y-88141520D01*
X165901385Y-88172167D01*
X165980611Y-88363436D01*
X166021000Y-88566484D01*
X166021000Y-88773516D01*
X165980611Y-88976564D01*
X165901385Y-89167833D01*
X165901384Y-89167835D01*
X165786365Y-89339973D01*
X165639973Y-89486365D01*
X165467835Y-89601384D01*
X165467834Y-89601385D01*
X165467833Y-89601385D01*
X165276564Y-89680611D01*
X165073516Y-89721000D01*
X164866484Y-89721000D01*
X164663436Y-89680611D01*
X164472167Y-89601385D01*
X164472166Y-89601385D01*
X164472165Y-89601384D01*
X164300027Y-89486365D01*
X164153635Y-89339973D01*
X164038616Y-89167835D01*
X164038615Y-89167833D01*
X163959389Y-88976564D01*
X163919000Y-88773516D01*
X163919000Y-88566484D01*
X163959389Y-88363436D01*
X164038615Y-88172167D01*
X164059093Y-88141520D01*
X164153635Y-88000027D01*
X164300027Y-87853635D01*
X164472165Y-87738616D01*
X164472167Y-87738615D01*
X164663436Y-87659389D01*
X164866484Y-87619000D01*
X165073516Y-87619000D01*
X165276564Y-87659389D01*
G37*
G36*
X161047947Y-86120298D02*
G01*
X161239216Y-86199524D01*
X161239218Y-86199525D01*
X161411356Y-86314544D01*
X161557748Y-86460936D01*
X161672768Y-86633076D01*
X161751994Y-86824345D01*
X161792383Y-87027393D01*
X161792383Y-87234425D01*
X161751994Y-87437473D01*
X161676803Y-87619000D01*
X161672767Y-87628744D01*
X161557748Y-87800882D01*
X161411356Y-87947274D01*
X161239218Y-88062293D01*
X161239217Y-88062294D01*
X161239216Y-88062294D01*
X161047947Y-88141520D01*
X160844899Y-88181909D01*
X160637867Y-88181909D01*
X160434819Y-88141520D01*
X160243550Y-88062294D01*
X160243549Y-88062294D01*
X160243548Y-88062293D01*
X160071410Y-87947274D01*
X159925018Y-87800882D01*
X159809999Y-87628744D01*
X159805963Y-87619000D01*
X159730772Y-87437473D01*
X159690383Y-87234425D01*
X159690383Y-87027393D01*
X159730772Y-86824345D01*
X159809998Y-86633076D01*
X159925018Y-86460936D01*
X160071410Y-86314544D01*
X160243548Y-86199525D01*
X160243550Y-86199524D01*
X160434819Y-86120298D01*
X160637867Y-86079909D01*
X160844899Y-86079909D01*
X161047947Y-86120298D01*
G37*
G36*
X127167421Y-83709143D02*
G01*
X127299557Y-83749227D01*
X127299559Y-83749228D01*
X127421339Y-83814320D01*
X127421341Y-83814321D01*
X127421340Y-83814321D01*
X127528080Y-83901920D01*
X127615679Y-84008660D01*
X127680773Y-84130443D01*
X127720857Y-84262579D01*
X127734391Y-84400000D01*
X127720857Y-84537421D01*
X127680773Y-84669557D01*
X127680772Y-84669559D01*
X127615680Y-84791339D01*
X127528080Y-84898080D01*
X127421339Y-84985680D01*
X127299559Y-85050772D01*
X127299557Y-85050773D01*
X127167421Y-85090857D01*
X127064432Y-85101000D01*
X125695568Y-85101000D01*
X125592579Y-85090857D01*
X125460443Y-85050773D01*
X125460441Y-85050772D01*
X125338661Y-84985680D01*
X125231920Y-84898080D01*
X125144320Y-84791339D01*
X125079228Y-84669559D01*
X125079227Y-84669557D01*
X125039143Y-84537421D01*
X125025609Y-84400000D01*
X125039143Y-84262579D01*
X125079227Y-84130443D01*
X125144321Y-84008660D01*
X125231920Y-83901920D01*
X125338660Y-83814321D01*
X125338659Y-83814321D01*
X125338661Y-83814320D01*
X125460441Y-83749228D01*
X125460443Y-83749227D01*
X125592579Y-83709143D01*
X125695568Y-83699000D01*
X127064432Y-83699000D01*
X127167421Y-83709143D01*
G37*
G36*
X132407818Y-83807696D02*
G01*
X132521105Y-83842062D01*
X132625512Y-83897869D01*
X132717027Y-83972973D01*
X132792131Y-84064488D01*
X132847938Y-84168895D01*
X132882304Y-84282182D01*
X132893907Y-84400000D01*
X132882304Y-84517818D01*
X132847938Y-84631105D01*
X132792131Y-84735512D01*
X132717027Y-84827027D01*
X132625512Y-84902131D01*
X132521105Y-84957938D01*
X132407818Y-84992304D01*
X132319519Y-85001000D01*
X131160481Y-85001000D01*
X131072182Y-84992304D01*
X130958895Y-84957938D01*
X130854488Y-84902131D01*
X130762973Y-84827027D01*
X130687869Y-84735512D01*
X130632062Y-84631105D01*
X130597696Y-84517818D01*
X130586093Y-84400000D01*
X130597696Y-84282182D01*
X130632062Y-84168895D01*
X130687869Y-84064488D01*
X130762973Y-83972973D01*
X130854488Y-83897869D01*
X130958895Y-83842062D01*
X131072182Y-83807696D01*
X131160481Y-83799000D01*
X132319519Y-83799000D01*
X132407818Y-83807696D01*
G37*
G36*
X150589199Y-76202855D02*
G01*
X150589202Y-76202856D01*
X150589201Y-76202856D01*
X150634879Y-76221776D01*
X150675983Y-76249241D01*
X150675985Y-76249243D01*
X150675988Y-76249245D01*
X150710949Y-76284206D01*
X150710951Y-76284209D01*
X150710953Y-76284211D01*
X150738418Y-76325315D01*
X150749597Y-76352304D01*
X150757339Y-76370995D01*
X150766985Y-76419488D01*
X150766985Y-76468930D01*
X150757339Y-76517423D01*
X150757338Y-76517425D01*
X150738418Y-76563103D01*
X150710953Y-76604207D01*
X150710951Y-76604209D01*
X150710949Y-76604212D01*
X150675988Y-76639173D01*
X150675985Y-76639175D01*
X150675983Y-76639177D01*
X150634879Y-76666642D01*
X150602579Y-76680021D01*
X150589199Y-76685563D01*
X150540706Y-76695209D01*
X150491264Y-76695209D01*
X150442771Y-76685563D01*
X150429391Y-76680021D01*
X150397091Y-76666642D01*
X150355987Y-76639177D01*
X150355985Y-76639175D01*
X150355982Y-76639173D01*
X150321021Y-76604212D01*
X150321019Y-76604209D01*
X150321017Y-76604207D01*
X150293552Y-76563103D01*
X150274632Y-76517425D01*
X150274631Y-76517423D01*
X150264985Y-76468930D01*
X150264985Y-76419488D01*
X150274631Y-76370995D01*
X150282373Y-76352304D01*
X150293552Y-76325315D01*
X150321017Y-76284211D01*
X150321019Y-76284209D01*
X150321021Y-76284206D01*
X150355982Y-76249245D01*
X150355985Y-76249243D01*
X150355987Y-76249241D01*
X150397091Y-76221776D01*
X150442769Y-76202856D01*
X150442768Y-76202856D01*
X150442771Y-76202855D01*
X150491264Y-76193209D01*
X150540706Y-76193209D01*
X150589199Y-76202855D01*
G37*
G36*
X127167421Y-75069143D02*
G01*
X127299557Y-75109227D01*
X127299559Y-75109228D01*
X127421339Y-75174320D01*
X127528080Y-75261920D01*
X127615680Y-75368661D01*
X127672464Y-75474898D01*
X127680773Y-75490443D01*
X127720857Y-75622579D01*
X127734391Y-75760000D01*
X127720857Y-75897421D01*
X127680773Y-76029557D01*
X127680772Y-76029559D01*
X127615680Y-76151339D01*
X127528080Y-76258080D01*
X127421339Y-76345680D01*
X127308169Y-76406170D01*
X127299557Y-76410773D01*
X127167421Y-76450857D01*
X127064432Y-76461000D01*
X125695568Y-76461000D01*
X125592579Y-76450857D01*
X125460443Y-76410773D01*
X125451831Y-76406170D01*
X125338661Y-76345680D01*
X125231920Y-76258080D01*
X125144320Y-76151339D01*
X125079228Y-76029559D01*
X125079227Y-76029557D01*
X125039143Y-75897421D01*
X125025609Y-75760000D01*
X125039143Y-75622579D01*
X125079227Y-75490443D01*
X125087536Y-75474898D01*
X125144320Y-75368661D01*
X125231920Y-75261920D01*
X125338661Y-75174320D01*
X125460441Y-75109228D01*
X125460443Y-75109227D01*
X125592579Y-75069143D01*
X125695568Y-75059000D01*
X127064432Y-75059000D01*
X127167421Y-75069143D01*
G37*
G36*
X152066410Y-75942383D02*
G01*
X152066413Y-75942384D01*
X152066412Y-75942384D01*
X152112090Y-75961304D01*
X152153194Y-75988769D01*
X152153196Y-75988771D01*
X152153199Y-75988773D01*
X152188160Y-76023734D01*
X152188162Y-76023737D01*
X152188164Y-76023739D01*
X152215629Y-76064843D01*
X152215629Y-76064844D01*
X152234550Y-76110523D01*
X152244196Y-76159016D01*
X152244196Y-76208458D01*
X152234550Y-76256951D01*
X152234549Y-76256953D01*
X152215629Y-76302631D01*
X152188164Y-76343735D01*
X152188162Y-76343737D01*
X152188160Y-76343740D01*
X152153199Y-76378701D01*
X152153196Y-76378703D01*
X152153194Y-76378705D01*
X152112090Y-76406170D01*
X152079937Y-76419488D01*
X152066410Y-76425091D01*
X152017917Y-76434737D01*
X151968475Y-76434737D01*
X151919982Y-76425091D01*
X151906455Y-76419488D01*
X151874302Y-76406170D01*
X151833198Y-76378705D01*
X151833196Y-76378703D01*
X151833193Y-76378701D01*
X151798232Y-76343740D01*
X151798230Y-76343737D01*
X151798228Y-76343735D01*
X151770763Y-76302631D01*
X151751843Y-76256953D01*
X151751842Y-76256951D01*
X151742196Y-76208458D01*
X151742196Y-76159016D01*
X151751842Y-76110523D01*
X151770763Y-76064844D01*
X151770763Y-76064843D01*
X151798228Y-76023739D01*
X151798230Y-76023737D01*
X151798232Y-76023734D01*
X151833193Y-75988773D01*
X151833196Y-75988771D01*
X151833198Y-75988769D01*
X151874302Y-75961304D01*
X151919980Y-75942384D01*
X151919979Y-75942384D01*
X151919982Y-75942383D01*
X151968475Y-75932737D01*
X152017917Y-75932737D01*
X152066410Y-75942383D01*
G37*
G36*
X132407818Y-75167696D02*
G01*
X132521105Y-75202062D01*
X132625512Y-75257869D01*
X132717027Y-75332973D01*
X132792131Y-75424488D01*
X132847938Y-75528895D01*
X132882304Y-75642182D01*
X132893907Y-75760000D01*
X132882304Y-75877818D01*
X132847938Y-75991105D01*
X132792131Y-76095512D01*
X132717027Y-76187027D01*
X132625512Y-76262131D01*
X132521105Y-76317938D01*
X132407818Y-76352304D01*
X132319519Y-76361000D01*
X131160481Y-76361000D01*
X131072182Y-76352304D01*
X130958895Y-76317938D01*
X130854488Y-76262131D01*
X130762973Y-76187027D01*
X130687869Y-76095512D01*
X130632062Y-75991105D01*
X130597696Y-75877818D01*
X130586093Y-75760000D01*
X130597696Y-75642182D01*
X130632062Y-75528895D01*
X130687869Y-75424488D01*
X130762973Y-75332973D01*
X130854488Y-75257869D01*
X130958895Y-75202062D01*
X131072182Y-75167696D01*
X131160481Y-75159000D01*
X132319519Y-75159000D01*
X132407818Y-75167696D01*
G37*
G36*
X149720357Y-75594485D02*
G01*
X149720360Y-75594486D01*
X149720359Y-75594486D01*
X149766037Y-75613406D01*
X149807141Y-75640871D01*
X149807143Y-75640873D01*
X149807146Y-75640875D01*
X149842107Y-75675836D01*
X149842109Y-75675839D01*
X149842111Y-75675841D01*
X149869576Y-75716945D01*
X149877208Y-75735370D01*
X149888497Y-75762625D01*
X149898143Y-75811118D01*
X149898143Y-75860560D01*
X149888497Y-75909053D01*
X149888496Y-75909055D01*
X149869576Y-75954733D01*
X149842111Y-75995837D01*
X149842109Y-75995839D01*
X149842107Y-75995842D01*
X149807146Y-76030803D01*
X149807143Y-76030805D01*
X149807141Y-76030807D01*
X149766037Y-76058272D01*
X149750170Y-76064844D01*
X149720357Y-76077193D01*
X149671864Y-76086839D01*
X149622422Y-76086839D01*
X149573929Y-76077193D01*
X149544116Y-76064844D01*
X149528249Y-76058272D01*
X149487145Y-76030807D01*
X149487143Y-76030805D01*
X149487140Y-76030803D01*
X149452179Y-75995842D01*
X149452177Y-75995839D01*
X149452175Y-75995837D01*
X149424710Y-75954733D01*
X149405790Y-75909055D01*
X149405789Y-75909053D01*
X149396143Y-75860560D01*
X149396143Y-75811118D01*
X149405789Y-75762625D01*
X149417078Y-75735370D01*
X149424710Y-75716945D01*
X149452175Y-75675841D01*
X149452177Y-75675839D01*
X149452179Y-75675836D01*
X149487140Y-75640875D01*
X149487143Y-75640873D01*
X149487145Y-75640871D01*
X149528249Y-75613406D01*
X149573927Y-75594486D01*
X149573926Y-75594486D01*
X149573929Y-75594485D01*
X149622422Y-75584839D01*
X149671864Y-75584839D01*
X149720357Y-75594485D01*
G37*
G36*
X151197568Y-75334013D02*
G01*
X151197571Y-75334014D01*
X151197570Y-75334014D01*
X151243248Y-75352934D01*
X151284352Y-75380399D01*
X151284354Y-75380401D01*
X151284357Y-75380403D01*
X151319318Y-75415364D01*
X151319320Y-75415367D01*
X151319322Y-75415369D01*
X151346787Y-75456473D01*
X151354419Y-75474898D01*
X151365708Y-75502153D01*
X151375354Y-75550646D01*
X151375354Y-75600088D01*
X151365708Y-75648581D01*
X151365707Y-75648583D01*
X151346787Y-75694261D01*
X151319322Y-75735365D01*
X151319320Y-75735367D01*
X151319318Y-75735370D01*
X151284357Y-75770331D01*
X151284354Y-75770333D01*
X151284352Y-75770335D01*
X151243248Y-75797800D01*
X151211095Y-75811118D01*
X151197568Y-75816721D01*
X151149075Y-75826367D01*
X151099633Y-75826367D01*
X151051140Y-75816721D01*
X151037613Y-75811118D01*
X151005460Y-75797800D01*
X150964356Y-75770335D01*
X150964354Y-75770333D01*
X150964351Y-75770331D01*
X150929390Y-75735370D01*
X150929388Y-75735367D01*
X150929386Y-75735365D01*
X150901921Y-75694261D01*
X150883001Y-75648583D01*
X150883000Y-75648581D01*
X150873354Y-75600088D01*
X150873354Y-75550646D01*
X150883000Y-75502153D01*
X150894289Y-75474898D01*
X150901921Y-75456473D01*
X150929386Y-75415369D01*
X150929388Y-75415367D01*
X150929390Y-75415364D01*
X150964351Y-75380403D01*
X150964354Y-75380401D01*
X150964356Y-75380399D01*
X151005460Y-75352934D01*
X151051138Y-75334014D01*
X151051137Y-75334014D01*
X151051140Y-75334013D01*
X151099633Y-75324367D01*
X151149075Y-75324367D01*
X151197568Y-75334013D01*
G37*
G36*
X152674780Y-75073541D02*
G01*
X152674783Y-75073542D01*
X152674782Y-75073542D01*
X152720460Y-75092462D01*
X152761564Y-75119927D01*
X152761566Y-75119929D01*
X152761569Y-75119931D01*
X152796530Y-75154892D01*
X152796532Y-75154895D01*
X152796534Y-75154897D01*
X152823999Y-75196001D01*
X152823999Y-75196002D01*
X152842920Y-75241681D01*
X152852566Y-75290174D01*
X152852566Y-75339616D01*
X152842920Y-75388109D01*
X152842919Y-75388111D01*
X152823999Y-75433789D01*
X152796534Y-75474893D01*
X152796532Y-75474895D01*
X152796530Y-75474898D01*
X152761569Y-75509859D01*
X152761566Y-75509861D01*
X152761564Y-75509863D01*
X152720460Y-75537328D01*
X152688307Y-75550646D01*
X152674780Y-75556249D01*
X152626287Y-75565895D01*
X152576845Y-75565895D01*
X152528352Y-75556249D01*
X152514825Y-75550646D01*
X152482672Y-75537328D01*
X152441568Y-75509863D01*
X152441566Y-75509861D01*
X152441563Y-75509859D01*
X152406602Y-75474898D01*
X152406600Y-75474895D01*
X152406598Y-75474893D01*
X152379133Y-75433789D01*
X152360213Y-75388111D01*
X152360212Y-75388109D01*
X152350566Y-75339616D01*
X152350566Y-75290174D01*
X152360212Y-75241681D01*
X152379133Y-75196002D01*
X152379133Y-75196001D01*
X152406598Y-75154897D01*
X152406600Y-75154895D01*
X152406602Y-75154892D01*
X152441563Y-75119931D01*
X152441566Y-75119929D01*
X152441568Y-75119927D01*
X152482672Y-75092462D01*
X152528350Y-75073542D01*
X152528349Y-75073542D01*
X152528352Y-75073541D01*
X152576845Y-75063895D01*
X152626287Y-75063895D01*
X152674780Y-75073541D01*
G37*
G36*
X150328726Y-74725643D02*
G01*
X150328729Y-74725644D01*
X150328728Y-74725644D01*
X150374406Y-74744564D01*
X150415510Y-74772029D01*
X150415512Y-74772031D01*
X150415515Y-74772033D01*
X150450476Y-74806994D01*
X150450478Y-74806997D01*
X150450480Y-74806999D01*
X150477945Y-74848103D01*
X150485577Y-74866528D01*
X150496866Y-74893783D01*
X150506512Y-74942276D01*
X150506512Y-74991718D01*
X150496866Y-75040211D01*
X150496865Y-75040213D01*
X150477945Y-75085891D01*
X150450480Y-75126995D01*
X150450478Y-75126997D01*
X150450476Y-75127000D01*
X150415515Y-75161961D01*
X150415512Y-75161963D01*
X150415510Y-75161965D01*
X150374406Y-75189430D01*
X150342106Y-75202809D01*
X150328726Y-75208351D01*
X150280233Y-75217997D01*
X150230791Y-75217997D01*
X150182298Y-75208351D01*
X150168918Y-75202809D01*
X150136618Y-75189430D01*
X150095514Y-75161965D01*
X150095512Y-75161963D01*
X150095509Y-75161961D01*
X150060548Y-75127000D01*
X150060546Y-75126997D01*
X150060544Y-75126995D01*
X150033079Y-75085891D01*
X150014159Y-75040213D01*
X150014158Y-75040211D01*
X150004512Y-74991718D01*
X150004512Y-74942276D01*
X150014158Y-74893783D01*
X150025447Y-74866528D01*
X150033079Y-74848103D01*
X150060544Y-74806999D01*
X150060546Y-74806997D01*
X150060548Y-74806994D01*
X150095509Y-74772033D01*
X150095512Y-74772031D01*
X150095514Y-74772029D01*
X150136618Y-74744564D01*
X150182296Y-74725644D01*
X150182295Y-74725644D01*
X150182298Y-74725643D01*
X150230791Y-74715997D01*
X150280233Y-74715997D01*
X150328726Y-74725643D01*
G37*
G36*
X151805938Y-74465171D02*
G01*
X151805941Y-74465172D01*
X151805940Y-74465172D01*
X151851618Y-74484092D01*
X151892722Y-74511557D01*
X151892724Y-74511559D01*
X151892727Y-74511561D01*
X151927688Y-74546522D01*
X151927690Y-74546525D01*
X151927692Y-74546527D01*
X151955157Y-74587631D01*
X151955157Y-74587632D01*
X151974078Y-74633311D01*
X151983724Y-74681804D01*
X151983724Y-74731246D01*
X151974078Y-74779739D01*
X151974077Y-74779741D01*
X151955157Y-74825419D01*
X151927692Y-74866523D01*
X151927690Y-74866525D01*
X151927688Y-74866528D01*
X151892727Y-74901489D01*
X151892724Y-74901491D01*
X151892722Y-74901493D01*
X151851618Y-74928958D01*
X151819465Y-74942276D01*
X151805938Y-74947879D01*
X151757445Y-74957525D01*
X151708003Y-74957525D01*
X151659510Y-74947879D01*
X151645983Y-74942276D01*
X151613830Y-74928958D01*
X151572726Y-74901493D01*
X151572724Y-74901491D01*
X151572721Y-74901489D01*
X151537760Y-74866528D01*
X151537758Y-74866525D01*
X151537756Y-74866523D01*
X151510291Y-74825419D01*
X151491371Y-74779741D01*
X151491370Y-74779739D01*
X151481724Y-74731246D01*
X151481724Y-74681804D01*
X151491370Y-74633311D01*
X151510291Y-74587632D01*
X151510291Y-74587631D01*
X151537756Y-74546527D01*
X151537758Y-74546525D01*
X151537760Y-74546522D01*
X151572721Y-74511561D01*
X151572724Y-74511559D01*
X151572726Y-74511557D01*
X151613830Y-74484092D01*
X151659508Y-74465172D01*
X151659507Y-74465172D01*
X151659510Y-74465171D01*
X151708003Y-74455525D01*
X151757445Y-74455525D01*
X151805938Y-74465171D01*
G37*
G36*
X149459885Y-74117274D02*
G01*
X149459888Y-74117275D01*
X149459887Y-74117275D01*
X149505565Y-74136195D01*
X149546669Y-74163660D01*
X149546671Y-74163662D01*
X149546674Y-74163664D01*
X149581635Y-74198625D01*
X149581637Y-74198628D01*
X149581639Y-74198630D01*
X149609104Y-74239734D01*
X149609104Y-74239735D01*
X149628025Y-74285414D01*
X149637671Y-74333907D01*
X149637671Y-74383349D01*
X149628025Y-74431842D01*
X149628024Y-74431844D01*
X149609104Y-74477522D01*
X149581639Y-74518626D01*
X149581637Y-74518628D01*
X149581635Y-74518631D01*
X149546674Y-74553592D01*
X149546671Y-74553594D01*
X149546669Y-74553596D01*
X149505565Y-74581061D01*
X149473265Y-74594440D01*
X149459885Y-74599982D01*
X149411392Y-74609628D01*
X149361950Y-74609628D01*
X149313457Y-74599982D01*
X149300077Y-74594440D01*
X149267777Y-74581061D01*
X149226673Y-74553596D01*
X149226671Y-74553594D01*
X149226668Y-74553592D01*
X149191707Y-74518631D01*
X149191705Y-74518628D01*
X149191703Y-74518626D01*
X149164238Y-74477522D01*
X149145318Y-74431844D01*
X149145317Y-74431842D01*
X149135671Y-74383349D01*
X149135671Y-74333907D01*
X149145317Y-74285414D01*
X149164238Y-74239735D01*
X149164238Y-74239734D01*
X149191703Y-74198630D01*
X149191705Y-74198628D01*
X149191707Y-74198625D01*
X149226668Y-74163664D01*
X149226671Y-74163662D01*
X149226673Y-74163660D01*
X149267777Y-74136195D01*
X149313455Y-74117275D01*
X149313454Y-74117275D01*
X149313457Y-74117274D01*
X149361950Y-74107628D01*
X149411392Y-74107628D01*
X149459885Y-74117274D01*
G37*
G36*
X150937096Y-73856801D02*
G01*
X150937099Y-73856802D01*
X150937098Y-73856802D01*
X150982776Y-73875722D01*
X151023880Y-73903187D01*
X151023882Y-73903189D01*
X151023885Y-73903191D01*
X151058846Y-73938152D01*
X151058848Y-73938155D01*
X151058850Y-73938157D01*
X151086315Y-73979261D01*
X151093947Y-73997686D01*
X151105236Y-74024941D01*
X151114882Y-74073434D01*
X151114882Y-74122876D01*
X151105236Y-74171369D01*
X151105235Y-74171371D01*
X151086315Y-74217049D01*
X151058850Y-74258153D01*
X151058848Y-74258155D01*
X151058846Y-74258158D01*
X151023885Y-74293119D01*
X151023882Y-74293121D01*
X151023880Y-74293123D01*
X150982776Y-74320588D01*
X150950620Y-74333907D01*
X150937096Y-74339509D01*
X150888603Y-74349155D01*
X150839161Y-74349155D01*
X150790668Y-74339509D01*
X150777144Y-74333907D01*
X150744988Y-74320588D01*
X150703884Y-74293123D01*
X150703882Y-74293121D01*
X150703879Y-74293119D01*
X150668918Y-74258158D01*
X150668916Y-74258155D01*
X150668914Y-74258153D01*
X150641449Y-74217049D01*
X150622529Y-74171371D01*
X150622528Y-74171369D01*
X150612882Y-74122876D01*
X150612882Y-74073434D01*
X150622528Y-74024941D01*
X150633817Y-73997686D01*
X150641449Y-73979261D01*
X150668914Y-73938157D01*
X150668916Y-73938155D01*
X150668918Y-73938152D01*
X150703879Y-73903191D01*
X150703882Y-73903189D01*
X150703884Y-73903187D01*
X150744988Y-73875722D01*
X150790666Y-73856802D01*
X150790665Y-73856802D01*
X150790668Y-73856801D01*
X150839161Y-73847155D01*
X150888603Y-73847155D01*
X150937096Y-73856801D01*
G37*
G36*
X152414308Y-73596329D02*
G01*
X152414311Y-73596330D01*
X152414310Y-73596330D01*
X152459988Y-73615250D01*
X152501092Y-73642715D01*
X152501094Y-73642717D01*
X152501097Y-73642719D01*
X152536058Y-73677680D01*
X152536060Y-73677683D01*
X152536062Y-73677685D01*
X152563527Y-73718789D01*
X152563527Y-73718790D01*
X152582448Y-73764469D01*
X152592094Y-73812962D01*
X152592094Y-73862404D01*
X152582448Y-73910897D01*
X152582447Y-73910899D01*
X152563527Y-73956577D01*
X152536062Y-73997681D01*
X152536060Y-73997683D01*
X152536058Y-73997686D01*
X152501097Y-74032647D01*
X152501094Y-74032649D01*
X152501092Y-74032651D01*
X152459988Y-74060116D01*
X152427835Y-74073434D01*
X152414308Y-74079037D01*
X152365815Y-74088683D01*
X152316373Y-74088683D01*
X152267880Y-74079037D01*
X152254353Y-74073434D01*
X152222200Y-74060116D01*
X152181096Y-74032651D01*
X152181094Y-74032649D01*
X152181091Y-74032647D01*
X152146130Y-73997686D01*
X152146128Y-73997683D01*
X152146126Y-73997681D01*
X152118661Y-73956577D01*
X152099741Y-73910899D01*
X152099740Y-73910897D01*
X152090094Y-73862404D01*
X152090094Y-73812962D01*
X152099740Y-73764469D01*
X152118661Y-73718790D01*
X152118661Y-73718789D01*
X152146126Y-73677685D01*
X152146128Y-73677683D01*
X152146130Y-73677680D01*
X152181091Y-73642719D01*
X152181094Y-73642717D01*
X152181096Y-73642715D01*
X152222200Y-73615250D01*
X152267878Y-73596330D01*
X152267877Y-73596330D01*
X152267880Y-73596329D01*
X152316373Y-73586683D01*
X152365815Y-73586683D01*
X152414308Y-73596329D01*
G37*
G36*
X150068254Y-73248432D02*
G01*
X150068257Y-73248433D01*
X150068256Y-73248433D01*
X150113934Y-73267353D01*
X150155038Y-73294818D01*
X150155040Y-73294820D01*
X150155043Y-73294822D01*
X150190004Y-73329783D01*
X150190006Y-73329786D01*
X150190008Y-73329788D01*
X150217473Y-73370892D01*
X150217473Y-73370893D01*
X150236394Y-73416572D01*
X150246040Y-73465065D01*
X150246040Y-73514507D01*
X150236394Y-73563000D01*
X150236393Y-73563002D01*
X150217473Y-73608680D01*
X150190008Y-73649784D01*
X150190006Y-73649786D01*
X150190004Y-73649789D01*
X150155043Y-73684750D01*
X150155040Y-73684752D01*
X150155038Y-73684754D01*
X150113934Y-73712219D01*
X150081634Y-73725598D01*
X150068254Y-73731140D01*
X150019761Y-73740786D01*
X149970319Y-73740786D01*
X149921826Y-73731140D01*
X149908446Y-73725598D01*
X149876146Y-73712219D01*
X149835042Y-73684754D01*
X149835040Y-73684752D01*
X149835037Y-73684750D01*
X149800076Y-73649789D01*
X149800074Y-73649786D01*
X149800072Y-73649784D01*
X149772607Y-73608680D01*
X149753687Y-73563002D01*
X149753686Y-73563000D01*
X149744040Y-73514507D01*
X149744040Y-73465065D01*
X149753686Y-73416572D01*
X149772607Y-73370893D01*
X149772607Y-73370892D01*
X149800072Y-73329788D01*
X149800074Y-73329786D01*
X149800076Y-73329783D01*
X149835037Y-73294822D01*
X149835040Y-73294820D01*
X149835042Y-73294818D01*
X149876146Y-73267353D01*
X149921824Y-73248433D01*
X149921823Y-73248433D01*
X149921826Y-73248432D01*
X149970319Y-73238786D01*
X150019761Y-73238786D01*
X150068254Y-73248432D01*
G37*
G36*
X151545466Y-72987959D02*
G01*
X151545469Y-72987960D01*
X151545468Y-72987960D01*
X151591146Y-73006880D01*
X151632250Y-73034345D01*
X151632252Y-73034347D01*
X151632255Y-73034349D01*
X151667216Y-73069310D01*
X151667218Y-73069313D01*
X151667220Y-73069315D01*
X151694685Y-73110419D01*
X151694685Y-73110420D01*
X151713606Y-73156099D01*
X151723252Y-73204592D01*
X151723252Y-73254034D01*
X151713606Y-73302527D01*
X151713605Y-73302529D01*
X151694685Y-73348207D01*
X151667220Y-73389311D01*
X151667218Y-73389313D01*
X151667216Y-73389316D01*
X151632255Y-73424277D01*
X151632252Y-73424279D01*
X151632250Y-73424281D01*
X151591146Y-73451746D01*
X151558990Y-73465065D01*
X151545466Y-73470667D01*
X151496973Y-73480313D01*
X151447531Y-73480313D01*
X151399038Y-73470667D01*
X151385514Y-73465065D01*
X151353358Y-73451746D01*
X151312254Y-73424281D01*
X151312252Y-73424279D01*
X151312249Y-73424277D01*
X151277288Y-73389316D01*
X151277286Y-73389313D01*
X151277284Y-73389311D01*
X151249819Y-73348207D01*
X151230899Y-73302529D01*
X151230898Y-73302527D01*
X151221252Y-73254034D01*
X151221252Y-73204592D01*
X151230898Y-73156099D01*
X151249819Y-73110420D01*
X151249819Y-73110419D01*
X151277284Y-73069315D01*
X151277286Y-73069313D01*
X151277288Y-73069310D01*
X151312249Y-73034349D01*
X151312252Y-73034347D01*
X151312254Y-73034345D01*
X151353358Y-73006880D01*
X151399036Y-72987960D01*
X151399035Y-72987960D01*
X151399038Y-72987959D01*
X151447531Y-72978313D01*
X151496973Y-72978313D01*
X151545466Y-72987959D01*
G37*
G36*
X153797658Y-57925573D02*
G01*
X153988927Y-58004799D01*
X153988929Y-58004800D01*
X154161067Y-58119819D01*
X154307459Y-58266211D01*
X154422479Y-58438351D01*
X154501705Y-58629620D01*
X154542094Y-58832668D01*
X154542094Y-59039700D01*
X154501705Y-59242748D01*
X154422479Y-59434017D01*
X154422478Y-59434019D01*
X154307459Y-59606157D01*
X154161067Y-59752549D01*
X153988929Y-59867568D01*
X153988928Y-59867569D01*
X153988927Y-59867569D01*
X153797658Y-59946795D01*
X153594610Y-59987184D01*
X153387578Y-59987184D01*
X153184530Y-59946795D01*
X152993261Y-59867569D01*
X152993260Y-59867569D01*
X152993259Y-59867568D01*
X152821121Y-59752549D01*
X152674729Y-59606157D01*
X152559710Y-59434019D01*
X152559709Y-59434017D01*
X152480483Y-59242748D01*
X152440094Y-59039700D01*
X152440094Y-58832668D01*
X152480483Y-58629620D01*
X152559709Y-58438351D01*
X152674729Y-58266211D01*
X152821121Y-58119819D01*
X152993259Y-58004800D01*
X152993261Y-58004799D01*
X153184530Y-57925573D01*
X153387578Y-57885184D01*
X153594610Y-57885184D01*
X153797658Y-57925573D01*
G37*
G36*
X151216564Y-54239389D02*
G01*
X151407833Y-54318615D01*
X151407835Y-54318616D01*
X151579973Y-54433635D01*
X151726365Y-54580027D01*
X151813280Y-54710104D01*
X151841385Y-54752167D01*
X151920611Y-54943436D01*
X151961000Y-55146484D01*
X151961000Y-55353516D01*
X151920611Y-55556564D01*
X151858808Y-55705770D01*
X151841384Y-55747835D01*
X151726365Y-55919973D01*
X151579973Y-56066365D01*
X151407835Y-56181384D01*
X151407834Y-56181385D01*
X151407833Y-56181385D01*
X151216564Y-56260611D01*
X151013516Y-56301000D01*
X150806484Y-56301000D01*
X150603436Y-56260611D01*
X150412167Y-56181385D01*
X150412166Y-56181385D01*
X150412165Y-56181384D01*
X150240027Y-56066365D01*
X150093635Y-55919973D01*
X149978616Y-55747835D01*
X149961192Y-55705770D01*
X149899389Y-55556564D01*
X149859000Y-55353516D01*
X149859000Y-55146484D01*
X149899389Y-54943436D01*
X149978615Y-54752167D01*
X150006721Y-54710104D01*
X150093635Y-54580027D01*
X150240027Y-54433635D01*
X150412165Y-54318616D01*
X150412167Y-54318615D01*
X150603436Y-54239389D01*
X150806484Y-54199000D01*
X151013516Y-54199000D01*
X151216564Y-54239389D01*
G37*
G36*
X159122146Y-54197326D02*
G01*
X159313415Y-54276552D01*
X159313417Y-54276553D01*
X159485555Y-54391572D01*
X159631947Y-54537964D01*
X159746967Y-54710104D01*
X159826193Y-54901373D01*
X159866582Y-55104421D01*
X159866582Y-55311453D01*
X159826193Y-55514501D01*
X159746967Y-55705770D01*
X159746966Y-55705772D01*
X159631947Y-55877910D01*
X159485555Y-56024302D01*
X159313417Y-56139321D01*
X159313416Y-56139322D01*
X159313415Y-56139322D01*
X159122146Y-56218548D01*
X158919098Y-56258937D01*
X158712066Y-56258937D01*
X158509018Y-56218548D01*
X158317749Y-56139322D01*
X158317748Y-56139322D01*
X158317747Y-56139321D01*
X158145609Y-56024302D01*
X157999217Y-55877910D01*
X157884198Y-55705772D01*
X157884197Y-55705770D01*
X157804971Y-55514501D01*
X157764582Y-55311453D01*
X157764582Y-55104421D01*
X157804971Y-54901373D01*
X157884197Y-54710104D01*
X157999217Y-54537964D01*
X158145609Y-54391572D01*
X158317747Y-54276553D01*
X158317749Y-54276552D01*
X158509018Y-54197326D01*
X158712066Y-54156937D01*
X158919098Y-54156937D01*
X159122146Y-54197326D01*
G37*
G36*
X136414989Y-52333927D02*
G01*
X136564289Y-52363624D01*
X136728261Y-52431544D01*
X136875831Y-52530147D01*
X137001330Y-52655646D01*
X137099933Y-52803216D01*
X137167853Y-52967188D01*
X137202477Y-53141259D01*
X137202477Y-53318741D01*
X137167853Y-53492812D01*
X137099933Y-53656784D01*
X137001330Y-53804354D01*
X136875831Y-53929853D01*
X136728261Y-54028456D01*
X136564289Y-54096376D01*
X136414989Y-54126073D01*
X136390219Y-54131000D01*
X136212735Y-54131000D01*
X136187965Y-54126073D01*
X136038665Y-54096376D01*
X135874693Y-54028456D01*
X135727123Y-53929853D01*
X135601624Y-53804354D01*
X135503021Y-53656784D01*
X135435101Y-53492812D01*
X135400477Y-53318741D01*
X135400477Y-53141259D01*
X135435101Y-52967188D01*
X135503021Y-52803216D01*
X135601624Y-52655646D01*
X135727123Y-52530147D01*
X135874693Y-52431544D01*
X136038665Y-52363624D01*
X136187965Y-52333927D01*
X136212735Y-52329000D01*
X136390219Y-52329000D01*
X136414989Y-52333927D01*
G37*
G36*
X138614694Y-51063927D02*
G01*
X138763994Y-51093624D01*
X138927966Y-51161544D01*
X139075536Y-51260147D01*
X139201035Y-51385646D01*
X139299638Y-51533216D01*
X139367558Y-51697188D01*
X139402182Y-51871259D01*
X139402182Y-52048741D01*
X139367558Y-52222812D01*
X139299638Y-52386784D01*
X139201035Y-52534354D01*
X139075536Y-52659853D01*
X138927966Y-52758456D01*
X138763994Y-52826376D01*
X138614694Y-52856073D01*
X138589924Y-52861000D01*
X138412440Y-52861000D01*
X138387670Y-52856073D01*
X138238370Y-52826376D01*
X138074398Y-52758456D01*
X137926828Y-52659853D01*
X137801329Y-52534354D01*
X137702726Y-52386784D01*
X137634806Y-52222812D01*
X137600182Y-52048741D01*
X137600182Y-51871259D01*
X137634806Y-51697188D01*
X137702726Y-51533216D01*
X137801329Y-51385646D01*
X137926828Y-51260147D01*
X138074398Y-51161544D01*
X138238370Y-51093624D01*
X138387670Y-51063927D01*
X138412440Y-51059000D01*
X138589924Y-51059000D01*
X138614694Y-51063927D01*
G37*
G36*
X156541052Y-50511142D02*
G01*
X156732321Y-50590368D01*
X156732323Y-50590369D01*
X156748621Y-50601259D01*
X156904461Y-50705388D01*
X157050853Y-50851780D01*
X157165873Y-51023920D01*
X157245099Y-51215189D01*
X157285488Y-51418237D01*
X157285488Y-51625269D01*
X157245099Y-51828317D01*
X157165873Y-52019586D01*
X157165872Y-52019588D01*
X157050853Y-52191726D01*
X156904461Y-52338118D01*
X156732323Y-52453137D01*
X156732322Y-52453138D01*
X156732321Y-52453138D01*
X156541052Y-52532364D01*
X156338004Y-52572753D01*
X156130972Y-52572753D01*
X155927924Y-52532364D01*
X155736655Y-52453138D01*
X155736654Y-52453138D01*
X155736653Y-52453137D01*
X155564515Y-52338118D01*
X155418123Y-52191726D01*
X155303104Y-52019588D01*
X155303103Y-52019586D01*
X155223877Y-51828317D01*
X155183488Y-51625269D01*
X155183488Y-51418237D01*
X155223877Y-51215189D01*
X155303103Y-51023920D01*
X155418123Y-50851780D01*
X155564515Y-50705388D01*
X155720355Y-50601259D01*
X155736653Y-50590369D01*
X155736655Y-50590368D01*
X155927924Y-50511142D01*
X156130972Y-50470753D01*
X156338004Y-50470753D01*
X156541052Y-50511142D01*
G37*
G36*
X140814398Y-49793927D02*
G01*
X140963698Y-49823624D01*
X141127670Y-49891544D01*
X141275240Y-49990147D01*
X141400739Y-50115646D01*
X141499342Y-50263216D01*
X141567262Y-50427188D01*
X141601886Y-50601259D01*
X141601886Y-50778741D01*
X141567262Y-50952812D01*
X141499342Y-51116784D01*
X141400739Y-51264354D01*
X141275240Y-51389853D01*
X141127670Y-51488456D01*
X140963698Y-51556376D01*
X140814398Y-51586073D01*
X140789628Y-51591000D01*
X140612144Y-51591000D01*
X140587374Y-51586073D01*
X140438074Y-51556376D01*
X140274102Y-51488456D01*
X140126532Y-51389853D01*
X140001033Y-51264354D01*
X139902430Y-51116784D01*
X139834510Y-50952812D01*
X139799886Y-50778741D01*
X139799886Y-50601259D01*
X139834510Y-50427188D01*
X139902430Y-50263216D01*
X140001033Y-50115646D01*
X140126532Y-49990147D01*
X140274102Y-49891544D01*
X140438074Y-49823624D01*
X140587374Y-49793927D01*
X140612144Y-49789000D01*
X140789628Y-49789000D01*
X140814398Y-49793927D01*
G37*
G36*
X143014103Y-48523927D02*
G01*
X143163403Y-48553624D01*
X143327375Y-48621544D01*
X143474945Y-48720147D01*
X143600444Y-48845646D01*
X143699047Y-48993216D01*
X143766967Y-49157188D01*
X143801591Y-49331259D01*
X143801591Y-49508741D01*
X143766967Y-49682812D01*
X143699047Y-49846784D01*
X143600444Y-49994354D01*
X143474945Y-50119853D01*
X143327375Y-50218456D01*
X143163403Y-50286376D01*
X143014103Y-50316073D01*
X142989333Y-50321000D01*
X142811849Y-50321000D01*
X142787079Y-50316073D01*
X142637779Y-50286376D01*
X142473807Y-50218456D01*
X142326237Y-50119853D01*
X142200738Y-49994354D01*
X142102135Y-49846784D01*
X142034215Y-49682812D01*
X141999591Y-49508741D01*
X141999591Y-49331259D01*
X142034215Y-49157188D01*
X142102135Y-48993216D01*
X142200738Y-48845646D01*
X142326237Y-48720147D01*
X142473807Y-48621544D01*
X142637779Y-48553624D01*
X142787079Y-48523927D01*
X142811849Y-48519000D01*
X142989333Y-48519000D01*
X143014103Y-48523927D01*
G37*
G36*
X145213807Y-47253927D02*
G01*
X145363107Y-47283624D01*
X145527079Y-47351544D01*
X145674649Y-47450147D01*
X145800148Y-47575646D01*
X145898751Y-47723216D01*
X145966671Y-47887188D01*
X146001295Y-48061259D01*
X146001295Y-48238741D01*
X145966671Y-48412812D01*
X145898751Y-48576784D01*
X145800148Y-48724354D01*
X145674649Y-48849853D01*
X145527079Y-48948456D01*
X145363107Y-49016376D01*
X145213807Y-49046073D01*
X145189037Y-49051000D01*
X145011553Y-49051000D01*
X144986783Y-49046073D01*
X144837483Y-49016376D01*
X144673511Y-48948456D01*
X144525941Y-48849853D01*
X144400442Y-48724354D01*
X144301839Y-48576784D01*
X144233919Y-48412812D01*
X144199295Y-48238741D01*
X144199295Y-48061259D01*
X144233919Y-47887188D01*
X144301839Y-47723216D01*
X144400442Y-47575646D01*
X144525941Y-47450147D01*
X144673511Y-47351544D01*
X144837483Y-47283624D01*
X144986783Y-47253927D01*
X145011553Y-47249000D01*
X145189037Y-47249000D01*
X145213807Y-47253927D01*
G37*
G36*
X148530790Y-47209789D02*
G01*
X146970211Y-48110790D01*
X146069210Y-46550211D01*
X147629789Y-45649210D01*
X148530790Y-47209789D01*
G37*
M02*
