G04 #@! TF.GenerationSoftware,KiCad,Pcbnew,5.1.5+dfsg1-2build2*
G04 #@! TF.CreationDate,2020-11-24T14:56:23+01:00*
G04 #@! TF.ProjectId,GreenEggs_and_Clem,47726565-6e45-4676-9773-5f616e645f43,v0.1*
G04 #@! TF.SameCoordinates,Original*
G04 #@! TF.FileFunction,Profile,NP*
%FSLAX46Y46*%
G04 Gerber Fmt 4.6, Leading zero omitted, Abs format (unit mm)*
G04 Created by KiCad (PCBNEW 5.1.5+dfsg1-2build2) date 2020-11-24 14:56:23*
%MOMM*%
%LPD*%
G04 APERTURE LIST*
%ADD10C,0.050000*%
%ADD11C,0.225000*%
G04 APERTURE END LIST*
D10*
X137890000Y-146940000D02*
X137890000Y-103820000D01*
X151679295Y-146976787D02*
X151679295Y-103990000D01*
X139689991Y-148779351D02*
X149850000Y-148779636D01*
X151679295Y-146976787D02*
G75*
G02X149850000Y-148779636I-1839295J36787D01*
G01*
X139689991Y-148779351D02*
G75*
G02X137890000Y-146940000I50009J1849351D01*
G01*
D11*
X137890000Y-103820000D02*
X137677601Y-103833487D01*
X137677601Y-103833487D02*
X137454041Y-103836747D01*
X137454041Y-103836747D02*
X137235763Y-103829864D01*
X137235763Y-103829864D02*
X137023794Y-103814257D01*
X137023794Y-103814257D02*
X136819047Y-103791280D01*
X136819047Y-103791280D02*
X136622332Y-103762230D01*
X136622332Y-103762230D02*
X136430423Y-103727567D01*
X136430423Y-103727567D02*
X136243800Y-103688075D01*
X136243800Y-103688075D02*
X136058856Y-103643482D01*
X136058856Y-103643482D02*
X135879938Y-103595306D01*
X135879938Y-103595306D02*
X135703284Y-103542990D01*
X135703284Y-103542990D02*
X135529104Y-103486877D01*
X135529104Y-103486877D02*
X135361806Y-103428817D01*
X135361806Y-103428817D02*
X135197434Y-103367855D01*
X135197434Y-103367855D02*
X135031895Y-103302581D01*
X135031895Y-103302581D02*
X134869543Y-103234820D01*
X134869543Y-103234820D02*
X134710525Y-103164881D01*
X134710525Y-103164881D02*
X134554975Y-103093076D01*
X134554975Y-103093076D02*
X134403014Y-103019701D01*
X134403014Y-103019701D02*
X134250381Y-102942801D01*
X134250381Y-102942801D02*
X134101519Y-102864714D01*
X134101519Y-102864714D02*
X133952119Y-102783284D01*
X133952119Y-102783284D02*
X133806645Y-102701043D01*
X133806645Y-102701043D02*
X133660750Y-102615633D01*
X133660750Y-102615633D02*
X133514482Y-102527052D01*
X133514482Y-102527052D02*
X133372327Y-102438115D01*
X133372327Y-102438115D02*
X133234352Y-102349095D01*
X133234352Y-102349095D02*
X133096156Y-102257254D01*
X133096156Y-102257254D02*
X132962243Y-102165685D01*
X132962243Y-102165685D02*
X132828187Y-102071457D01*
X132828187Y-102071457D02*
X132694023Y-101974571D01*
X132694023Y-101974571D02*
X132564258Y-101878378D01*
X132564258Y-101878378D02*
X132434447Y-101779685D01*
X132434447Y-101779685D02*
X132304624Y-101678490D01*
X132304624Y-101678490D02*
X132179293Y-101578405D01*
X132179293Y-101578405D02*
X132049529Y-101472274D01*
X132049529Y-101472274D02*
X131924309Y-101367411D01*
X131924309Y-101367411D02*
X131799180Y-101260194D01*
X131799180Y-101260194D02*
X131674173Y-101150618D01*
X131674173Y-101150618D02*
X131553771Y-101042717D01*
X131553771Y-101042717D02*
X131433526Y-100932613D01*
X131433526Y-100932613D02*
X131313465Y-100820303D01*
X131313465Y-100820303D02*
X131198047Y-100710063D01*
X131198047Y-100710063D02*
X131082841Y-100597768D01*
X131082841Y-100597768D02*
X130963453Y-100478977D01*
X130963453Y-100478977D02*
X130848746Y-100362480D01*
X130848746Y-100362480D02*
X130734315Y-100243918D01*
X130734315Y-100243918D02*
X130624568Y-100127965D01*
X130624568Y-100127965D02*
X130515112Y-100010094D01*
X130515112Y-100010094D02*
X130405971Y-99890303D01*
X130405971Y-99890303D02*
X130297161Y-99768586D01*
X130297161Y-99768586D02*
X130188700Y-99644940D01*
X130188700Y-99644940D02*
X130080608Y-99519362D01*
X130080608Y-99519362D02*
X129968602Y-99386707D01*
X129968602Y-99386707D02*
X129861321Y-99257179D01*
X129861321Y-99257179D02*
X129758730Y-99131002D01*
X129758730Y-99131002D02*
X129652299Y-98997662D01*
X129652299Y-98997662D02*
X129550560Y-98867823D01*
X129550560Y-98867823D02*
X129440841Y-98725132D01*
X129440841Y-98725132D02*
X129335853Y-98585936D01*
X129335853Y-98585936D02*
X129235552Y-98450462D01*
X129235552Y-98450462D02*
X129135742Y-98313179D01*
X129135742Y-98313179D02*
X129036442Y-98174081D01*
X129036442Y-98174081D02*
X128941777Y-98039077D01*
X128941777Y-98039077D02*
X128847607Y-97902401D01*
X128847607Y-97902401D02*
X128749894Y-97758003D01*
X128749894Y-97758003D02*
X128652752Y-97611777D01*
X128652752Y-97611777D02*
X128560215Y-97469929D01*
X128560215Y-97469929D02*
X128468236Y-97326401D01*
X128468236Y-97326401D02*
X128380791Y-97187537D01*
X128380791Y-97187537D02*
X128293885Y-97047131D01*
X128293885Y-97047131D02*
X128199702Y-96892196D01*
X128199702Y-96892196D02*
X128113956Y-96748555D01*
X128113956Y-96748555D02*
X128021072Y-96590085D01*
X128021072Y-96590085D02*
X127921241Y-96416324D01*
X127921241Y-96416324D02*
X127837428Y-96267597D01*
X127837428Y-96267597D02*
X127754234Y-96117315D01*
X127754234Y-96117315D02*
X127671668Y-95965470D01*
X127671668Y-95965470D02*
X127586036Y-95805051D01*
X127586036Y-95805051D02*
X127508478Y-95657090D01*
X127508478Y-95657090D02*
X127420584Y-95486238D01*
X127420584Y-95486238D02*
X127344345Y-95335211D01*
X127344345Y-95335211D02*
X127247253Y-95138928D01*
X127247253Y-95138928D02*
X127161848Y-94962460D01*
X127161848Y-94962460D02*
X127049314Y-94724246D01*
X127049314Y-94724246D02*
X126976315Y-94566101D01*
X126976315Y-94566101D02*
X126883471Y-94360649D01*
X126883471Y-94360649D02*
X126774940Y-94114054D01*
X126774940Y-94114054D02*
X126704620Y-93950398D01*
X126704620Y-93950398D02*
X126635030Y-93785291D01*
X126635030Y-93785291D02*
X126540149Y-93554896D01*
X126540149Y-93554896D02*
X126462717Y-93362123D01*
X126462717Y-93362123D02*
X126386289Y-93167447D01*
X126386289Y-93167447D02*
X126317124Y-92987316D01*
X126317124Y-92987316D02*
X126255004Y-92822168D01*
X126255004Y-92822168D02*
X126193611Y-92655689D01*
X126193611Y-92655689D02*
X126123924Y-92462592D01*
X126123924Y-92462592D02*
X126052264Y-92259223D01*
X126052264Y-92259223D02*
X125993382Y-92088279D01*
X125993382Y-92088279D02*
X125935271Y-91915998D01*
X125935271Y-91915998D02*
X125877941Y-91742380D01*
X125877941Y-91742380D02*
X125821401Y-91567419D01*
X125821401Y-91567419D02*
X125757366Y-91364556D01*
X125757366Y-91364556D02*
X125699837Y-91177780D01*
X125699837Y-91177780D02*
X125637866Y-90971514D01*
X125637866Y-90971514D02*
X125584870Y-90790700D01*
X125584870Y-90790700D02*
X125532714Y-90608537D01*
X125532714Y-90608537D02*
X125481411Y-90425024D01*
X125481411Y-90425024D02*
X125428466Y-90230876D01*
X125428466Y-90230876D02*
X125374029Y-90025881D01*
X125374029Y-90025881D02*
X125313465Y-89790937D01*
X125313465Y-89790937D02*
X125256632Y-89563393D01*
X125256632Y-89563393D02*
X125201102Y-89333886D01*
X125201102Y-89333886D02*
X125158075Y-89150802D01*
X125158075Y-89150802D02*
X125094011Y-88868979D01*
X125094011Y-88868979D02*
X125042486Y-88633571D01*
X125042486Y-88633571D02*
X124992325Y-88396187D01*
X124992325Y-88396187D02*
X124947561Y-88176851D01*
X124947561Y-88176851D02*
X124892292Y-87895289D01*
X124892292Y-87895289D02*
X124855884Y-87702691D01*
X124855884Y-87702691D02*
X124814852Y-87478129D01*
X124814852Y-87478129D02*
X124778603Y-87272531D01*
X124778603Y-87272531D02*
X124745105Y-87075933D01*
X124745105Y-87075933D02*
X124710843Y-86867635D01*
X124710843Y-86867635D02*
X124628173Y-86330203D01*
X124628173Y-86330203D02*
X124596121Y-86106280D01*
X124596121Y-86106280D02*
X124553797Y-85794528D01*
X124553797Y-85794528D02*
X124527296Y-85588686D01*
X124527296Y-85588686D02*
X124501779Y-85381581D01*
X124501779Y-85381581D02*
X124473474Y-85140201D01*
X124473474Y-85140201D02*
X124445320Y-84886035D01*
X124445320Y-84886035D02*
X124404234Y-84484487D01*
X124404234Y-84484487D02*
X124355195Y-83942000D01*
X124355195Y-83942000D02*
X124302544Y-83240863D01*
X124302544Y-83240863D02*
X124205343Y-80254171D01*
X124205343Y-80254171D02*
X124205904Y-80028830D01*
X124205904Y-80028830D02*
X124206000Y-80010000D01*
X145905964Y-43676195D02*
X149841042Y-44353901D01*
X149841042Y-44353901D02*
X150073467Y-44440789D01*
X150073467Y-44440789D02*
X150273600Y-44519690D01*
X150273600Y-44519690D02*
X150433538Y-44585459D01*
X150433538Y-44585459D02*
X150665171Y-44684978D01*
X150665171Y-44684978D02*
X150888477Y-44785697D01*
X150888477Y-44785697D02*
X151103475Y-44887092D01*
X151103475Y-44887092D02*
X151262507Y-44964887D01*
X151262507Y-44964887D02*
X151564113Y-45118949D01*
X151564113Y-45118949D02*
X151730456Y-45207572D01*
X151730456Y-45207572D02*
X151888649Y-45294269D01*
X151888649Y-45294269D02*
X152062396Y-45392201D01*
X152062396Y-45392201D02*
X152212211Y-45478924D01*
X152212211Y-45478924D02*
X152353934Y-45562913D01*
X152353934Y-45562913D02*
X152511161Y-45658308D01*
X152511161Y-45658308D02*
X152683801Y-45765747D01*
X152683801Y-45765747D02*
X152848286Y-45870737D01*
X152848286Y-45870737D02*
X153004648Y-45972922D01*
X153004648Y-45972922D02*
X153168512Y-46082509D01*
X153168512Y-46082509D02*
X153308705Y-46178297D01*
X153308705Y-46178297D02*
X153471946Y-46292203D01*
X153471946Y-46292203D02*
X153750974Y-46492825D01*
X153750974Y-46492825D02*
X153959543Y-46647691D01*
X153959543Y-46647691D02*
X154105941Y-46758912D01*
X154105941Y-46758912D02*
X154244341Y-46865975D01*
X154244341Y-46865975D02*
X154382451Y-46974678D01*
X154382451Y-46974678D02*
X154520266Y-47085012D01*
X154520266Y-47085012D02*
X154657779Y-47196969D01*
X154657779Y-47196969D02*
X154855862Y-47361528D01*
X154855862Y-47361528D02*
X155007787Y-47490383D01*
X155007787Y-47490383D02*
X155129038Y-47594878D01*
X155129038Y-47594878D02*
X155257583Y-47707273D01*
X155257583Y-47707273D02*
X155385831Y-47821070D01*
X155385831Y-47821070D02*
X155521292Y-47943080D01*
X155521292Y-47943080D02*
X155656404Y-48066639D01*
X155656404Y-48066639D02*
X155806117Y-48205738D01*
X155806117Y-48205738D02*
X155925569Y-48318383D01*
X155925569Y-48318383D02*
X156044734Y-48432229D01*
X156044734Y-48432229D02*
X156171024Y-48554504D01*
X156171024Y-48554504D02*
X156296981Y-48678123D01*
X156296981Y-48678123D02*
X156525789Y-48906978D01*
X156525789Y-48906978D02*
X156687465Y-49072062D01*
X156687465Y-49072062D02*
X156804674Y-49193502D01*
X156804674Y-49193502D02*
X156958028Y-49354646D01*
X156958028Y-49354646D02*
X157067222Y-49470956D01*
X157067222Y-49470956D02*
X157197872Y-49611852D01*
X157197872Y-49611852D02*
X157306427Y-49730360D01*
X157306427Y-49730360D02*
X157429097Y-49865868D01*
X157429097Y-49865868D02*
X157544198Y-49994556D01*
X157544198Y-49994556D02*
X157666111Y-50132509D01*
X157666111Y-50132509D02*
X157809034Y-50296404D01*
X157809034Y-50296404D02*
X157915860Y-50420451D01*
X157915860Y-50420451D02*
X158036545Y-50562195D01*
X158036545Y-50562195D02*
X158142692Y-50688279D01*
X158142692Y-50688279D02*
X158248514Y-50815312D01*
X158248514Y-50815312D02*
X158807285Y-51508593D01*
X158807285Y-51508593D02*
X158910973Y-51641498D01*
X158910973Y-51641498D02*
X159034937Y-51802181D01*
X159034937Y-51802181D02*
X159158394Y-51964163D01*
X159158394Y-51964163D02*
X159260879Y-52100131D01*
X159260879Y-52100131D02*
X159376593Y-52255300D01*
X159376593Y-52255300D02*
X159512125Y-52439304D01*
X159512125Y-52439304D02*
X159667174Y-52652834D01*
X159667174Y-52652834D02*
X159767817Y-52793188D01*
X159767817Y-52793188D02*
X159874751Y-52943850D01*
X159874751Y-52943850D02*
X159967963Y-53076479D01*
X159967963Y-53076479D02*
X160126969Y-53305563D01*
X160126969Y-53305563D02*
X160245567Y-53478790D01*
X160245567Y-53478790D02*
X160343964Y-53624066D01*
X160343964Y-53624066D02*
X160441962Y-53770171D01*
X160441962Y-53770171D02*
X160552538Y-53936751D01*
X160552538Y-53936751D02*
X160714201Y-54183632D01*
X160714201Y-54183632D02*
X160817064Y-54342814D01*
X160817064Y-54342814D02*
X160919455Y-54502912D01*
X160919455Y-54502912D02*
X161008654Y-54643741D01*
X161008654Y-54643741D02*
X161122796Y-54825820D01*
X161122796Y-54825820D02*
X161242612Y-55019242D01*
X161242612Y-55019242D02*
X161336715Y-55172826D01*
X161336715Y-55172826D02*
X161424150Y-55316868D01*
X161424150Y-55316868D02*
X161542202Y-55513423D01*
X161542202Y-55513423D02*
X161671852Y-55732089D01*
X161671852Y-55732089D02*
X161763923Y-55889184D01*
X161763923Y-55889184D02*
X161849450Y-56036482D01*
X161849450Y-56036482D02*
X161976995Y-56258638D01*
X161976995Y-56258638D02*
X162079587Y-56439537D01*
X162079587Y-56439537D02*
X162169613Y-56599929D01*
X162169613Y-56599929D02*
X162265128Y-56771813D01*
X162265128Y-56771813D02*
X162413294Y-57042014D01*
X162413294Y-57042014D02*
X162554291Y-57303258D01*
X162554291Y-57303258D02*
X162635970Y-57456480D01*
X162635970Y-57456480D02*
X162734581Y-57643348D01*
X162734581Y-57643348D02*
X162821071Y-57808968D01*
X162821071Y-57808968D02*
X163009605Y-58175720D01*
X163009605Y-58175720D02*
X163100147Y-58354714D01*
X163100147Y-58354714D02*
X163184509Y-58523210D01*
X163184509Y-58523210D02*
X163279502Y-58714966D01*
X163279502Y-58714966D02*
X163362777Y-58884861D01*
X163362777Y-58884861D02*
X163445535Y-59055405D01*
X163445535Y-59055405D02*
X163549619Y-59272349D01*
X163549619Y-59272349D02*
X163625774Y-59432855D01*
X163625774Y-59432855D02*
X163701471Y-59593909D01*
X163701471Y-59593909D02*
X163787418Y-59778642D01*
X163787418Y-59778642D02*
X163867442Y-59952467D01*
X163867442Y-59952467D02*
X163941645Y-60115257D01*
X163941645Y-60115257D02*
X164036360Y-60325339D01*
X164036360Y-60325339D02*
X164114688Y-60501071D01*
X164114688Y-60501071D02*
X164192470Y-60677399D01*
X164192470Y-60677399D02*
X164305552Y-60937082D01*
X164305552Y-60937082D02*
X164392113Y-61138607D01*
X164392113Y-61138607D02*
X164462859Y-61305126D01*
X164462859Y-61305126D02*
X164533114Y-61472144D01*
X164533114Y-61472144D02*
X164627670Y-61699600D01*
X164627670Y-61699600D02*
X164706584Y-61891839D01*
X164706584Y-61891839D02*
X164818877Y-62169287D01*
X164818877Y-62169287D02*
X164896191Y-62363054D01*
X164896191Y-62363054D02*
X164968066Y-62545266D01*
X164968066Y-62545266D02*
X165034623Y-62715816D01*
X165034623Y-62715816D02*
X165100663Y-62886825D01*
X165100663Y-62886825D02*
X165170845Y-63070557D01*
X165170845Y-63070557D02*
X165245048Y-63267109D01*
X165245048Y-63267109D02*
X165309414Y-63439573D01*
X165309414Y-63439573D02*
X165373255Y-63612478D01*
X165373255Y-63612478D02*
X165445566Y-63810620D01*
X165445566Y-63810620D02*
X165521634Y-64021766D01*
X165521634Y-64021766D02*
X165583685Y-64196125D01*
X165583685Y-64196125D02*
X165645196Y-64370905D01*
X165645196Y-64370905D02*
X165719161Y-64583705D01*
X165719161Y-64583705D02*
X165783756Y-64771974D01*
X165783756Y-64771974D02*
X165851962Y-64973311D01*
X165851962Y-64973311D02*
X165911052Y-65149914D01*
X165911052Y-65149914D02*
X165969588Y-65326917D01*
X165969588Y-65326917D02*
X166027567Y-65504316D01*
X166027567Y-65504316D02*
X166093141Y-65707531D01*
X166093141Y-65707531D02*
X166149914Y-65885759D01*
X166149914Y-65885759D02*
X166210115Y-66077139D01*
X166210115Y-66077139D02*
X166265714Y-66256151D01*
X166265714Y-66256151D02*
X166324648Y-66448361D01*
X166324648Y-66448361D02*
X166394499Y-66679568D01*
X166394499Y-66679568D02*
X166459589Y-66898479D01*
X166459589Y-66898479D02*
X166538810Y-67169623D01*
X166538810Y-67169623D02*
X166590890Y-67350822D01*
X166590890Y-67350822D02*
X166667904Y-67623262D01*
X166667904Y-67623262D02*
X166722097Y-67818329D01*
X166722097Y-67818329D02*
X166782688Y-68039868D01*
X166782688Y-68039868D02*
X166842394Y-68261890D01*
X166842394Y-68261890D02*
X166914919Y-68536809D01*
X166914919Y-68536809D02*
X166962510Y-68720483D01*
X166962510Y-68720483D02*
X167036061Y-69009741D01*
X167036061Y-69009741D02*
X167082075Y-69194206D01*
X167082075Y-69194206D02*
X167127473Y-69378970D01*
X167127473Y-69378970D02*
X167175423Y-69577260D01*
X167175423Y-69577260D02*
X167225780Y-69789136D01*
X167225780Y-69789136D02*
X167272246Y-69988110D01*
X167272246Y-69988110D02*
X167321013Y-70200704D01*
X167321013Y-70200704D02*
X167380809Y-70466953D01*
X167380809Y-70466953D02*
X167430610Y-70693694D01*
X167430610Y-70693694D02*
X167476620Y-70907453D01*
X167476620Y-70907453D02*
X167521788Y-71121553D01*
X167521788Y-71121553D02*
X167566111Y-71335983D01*
X167566111Y-71335983D02*
X167606892Y-71537305D01*
X167606892Y-71537305D02*
X167644278Y-71725460D01*
X167644278Y-71725460D02*
X167691379Y-71967723D01*
X167691379Y-71967723D02*
X167739916Y-72223867D01*
X167739916Y-72223867D02*
X167779837Y-72439890D01*
X167779837Y-72439890D02*
X167821299Y-72669734D01*
X167821299Y-72669734D02*
X167857063Y-72872803D01*
X167857063Y-72872803D02*
X167892054Y-73076118D01*
X167892054Y-73076118D02*
X167926265Y-73279670D01*
X167926265Y-73279670D02*
X167964098Y-73510644D01*
X167964098Y-73510644D02*
X167996641Y-73714685D01*
X167996641Y-73714685D02*
X168028398Y-73918950D01*
X168028398Y-73918950D02*
X168061398Y-74137068D01*
X168061398Y-74137068D02*
X168099411Y-74396396D01*
X168099411Y-74396396D02*
X168130427Y-74615028D01*
X168130427Y-74615028D02*
X168158675Y-74820201D01*
X168158675Y-74820201D02*
X168186115Y-75025563D01*
X168186115Y-75025563D02*
X168214493Y-75244824D01*
X168214493Y-75244824D02*
X168240254Y-75450567D01*
X168240254Y-75450567D02*
X168266835Y-75670220D01*
X168266835Y-75670220D02*
X168292477Y-75890062D01*
X168292477Y-75890062D02*
X168318696Y-76123851D01*
X168318696Y-76123851D02*
X168349614Y-76412925D01*
X168349614Y-76412925D02*
X168374814Y-76660937D01*
X168374814Y-76660937D02*
X168396202Y-76881567D01*
X168396202Y-76881567D02*
X168415382Y-77088549D01*
X168415382Y-77088549D02*
X168433717Y-77295662D01*
X168433717Y-77295662D02*
X168453472Y-77530541D01*
X168453472Y-77530541D02*
X168472130Y-77765575D01*
X168472130Y-77765575D02*
X168489690Y-78000754D01*
X168489690Y-78000754D02*
X168506143Y-78236072D01*
X168506143Y-78236072D02*
X168520613Y-78457668D01*
X168520613Y-78457668D02*
X168536513Y-78720952D01*
X168536513Y-78720952D02*
X168548819Y-78942775D01*
X168548819Y-78942775D02*
X168561471Y-79192441D01*
X168561471Y-79192441D02*
X168571650Y-79414457D01*
X168571650Y-79414457D02*
X168581365Y-79650438D01*
X168581365Y-79650438D02*
X168590872Y-79914277D01*
X168590872Y-79914277D02*
X168598165Y-80150422D01*
X168598165Y-80150422D02*
X168603975Y-80372737D01*
X168603975Y-80372737D02*
X168609027Y-80609003D01*
X168609027Y-80609003D02*
X168612916Y-80845319D01*
X168612916Y-80845319D02*
X168615036Y-81019110D01*
X168615036Y-81019110D02*
X168616510Y-81242805D01*
X168616510Y-81242805D02*
X168616140Y-81479773D01*
X168616140Y-81479773D02*
X168613914Y-81707208D01*
X168613914Y-81707208D02*
X168609669Y-81943286D01*
X168609669Y-81943286D02*
X168603467Y-82178890D01*
X168603467Y-82178890D02*
X168595663Y-82404966D01*
X168595663Y-82404966D02*
X168586071Y-82630578D01*
X168586071Y-82630578D02*
X168575188Y-82846716D01*
X168575188Y-82846716D02*
X168562673Y-83062403D01*
X168562673Y-83062403D02*
X168548538Y-83277626D01*
X168548538Y-83277626D02*
X168531403Y-83510247D01*
X168531403Y-83510247D02*
X168513152Y-83733383D01*
X168513152Y-83733383D02*
X168494007Y-83947087D01*
X168494007Y-83947087D02*
X168470575Y-84186895D01*
X168470575Y-84186895D02*
X168446126Y-84417195D01*
X168446126Y-84417195D02*
X168422968Y-84620402D01*
X168422968Y-84620402D02*
X168397279Y-84831909D01*
X168397279Y-84831909D02*
X168371211Y-85034083D01*
X168371211Y-85034083D02*
X168340038Y-85262000D01*
X168340038Y-85262000D02*
X168309675Y-85471783D01*
X168309675Y-85471783D02*
X168279150Y-85672270D01*
X168279150Y-85672270D02*
X168244398Y-85889567D01*
X168244398Y-85889567D02*
X168210986Y-86088893D01*
X168210986Y-86088893D02*
X168176205Y-86287648D01*
X168176205Y-86287648D02*
X168138460Y-86494425D01*
X168138460Y-86494425D02*
X168099243Y-86700557D01*
X168099243Y-86700557D02*
X168053369Y-86931669D01*
X168053369Y-86931669D02*
X168014628Y-87119360D01*
X168014628Y-87119360D02*
X167969130Y-87331953D01*
X167969130Y-87331953D02*
X167925895Y-87526879D01*
X167925895Y-87526879D02*
X167883312Y-87712724D01*
X167883312Y-87712724D02*
X167839535Y-87897976D01*
X167839535Y-87897976D02*
X167792500Y-88090996D01*
X167792500Y-88090996D02*
X167737780Y-88308386D01*
X167737780Y-88308386D02*
X167688009Y-88499964D01*
X167688009Y-88499964D02*
X167636968Y-88690850D01*
X167636968Y-88690850D02*
X167584665Y-88881033D01*
X167584665Y-88881033D02*
X167533459Y-89062280D01*
X167533459Y-89062280D02*
X167481111Y-89242867D01*
X167481111Y-89242867D02*
X167422713Y-89439108D01*
X167422713Y-89439108D02*
X167365488Y-89626415D01*
X167365488Y-89626415D02*
X167307040Y-89812969D01*
X167307040Y-89812969D02*
X167249994Y-89990699D01*
X167249994Y-89990699D02*
X167191844Y-90167727D01*
X167191844Y-90167727D02*
X167129876Y-90352035D01*
X167129876Y-90352035D02*
X167069485Y-90527590D01*
X167069485Y-90527590D02*
X167010830Y-90694487D01*
X167010830Y-90694487D02*
X166951193Y-90860708D01*
X166951193Y-90860708D02*
X166890579Y-91026247D01*
X166890579Y-91026247D02*
X166826040Y-91198931D01*
X166826040Y-91198931D02*
X166763448Y-91363053D01*
X166763448Y-91363053D02*
X166699900Y-91526471D01*
X166699900Y-91526471D02*
X166635402Y-91689178D01*
X166635402Y-91689178D02*
X166560533Y-91874248D01*
X166560533Y-91874248D02*
X166490826Y-92043062D01*
X166490826Y-92043062D02*
X166423334Y-92203447D01*
X166423334Y-92203447D02*
X166354917Y-92363090D01*
X166354917Y-92363090D02*
X166275600Y-92544621D01*
X166275600Y-92544621D02*
X166201848Y-92710155D01*
X166201848Y-92710155D02*
X166109975Y-92912159D01*
X166109975Y-92912159D02*
X166037490Y-93068386D01*
X166037490Y-93068386D02*
X165964112Y-93223830D01*
X165964112Y-93223830D02*
X165875606Y-93407850D01*
X165875606Y-93407850D02*
X165796690Y-93568851D01*
X165796690Y-93568851D02*
X165716817Y-93728964D01*
X165716817Y-93728964D02*
X165635994Y-93888184D01*
X165635994Y-93888184D02*
X165550487Y-94053672D01*
X165550487Y-94053672D02*
X165463958Y-94218162D01*
X165463958Y-94218162D02*
X165330339Y-94466540D01*
X165330339Y-94466540D02*
X165249050Y-94614430D01*
X165249050Y-94614430D02*
X165166934Y-94761463D01*
X165166934Y-94761463D02*
X165076050Y-94921501D01*
X165076050Y-94921501D02*
X164976152Y-95094266D01*
X164976152Y-95094266D02*
X164891352Y-95238422D01*
X164891352Y-95238422D02*
X164789351Y-95408872D01*
X164789351Y-95408872D02*
X164698656Y-95557810D01*
X164698656Y-95557810D02*
X164611274Y-95699049D01*
X164611274Y-95699049D02*
X164523110Y-95839373D01*
X164523110Y-95839373D02*
X164434165Y-95978772D01*
X164434165Y-95978772D02*
X164340159Y-96123811D01*
X164340159Y-96123811D02*
X164245312Y-96267821D01*
X164245312Y-96267821D02*
X164154001Y-96404315D01*
X164154001Y-96404315D02*
X164061935Y-96539857D01*
X164061935Y-96539857D02*
X163969125Y-96674435D01*
X163969125Y-96674435D02*
X163866623Y-96820719D01*
X163866623Y-96820719D02*
X163772266Y-96953259D01*
X163772266Y-96953259D02*
X163677181Y-97084814D01*
X163677181Y-97084814D02*
X163572214Y-97227760D01*
X163572214Y-97227760D02*
X163466387Y-97369507D01*
X163466387Y-97369507D02*
X163364364Y-97503956D01*
X163364364Y-97503956D02*
X163266263Y-97631256D01*
X163266263Y-97631256D02*
X163162743Y-97763518D01*
X163162743Y-97763518D02*
X163048947Y-97906514D01*
X163048947Y-97906514D02*
X162943854Y-98036400D01*
X162943854Y-98036400D02*
X162799346Y-98211660D01*
X162799346Y-98211660D02*
X162668127Y-98367550D01*
X162668127Y-98367550D02*
X162555484Y-98498951D01*
X162555484Y-98498951D02*
X162437109Y-98634690D01*
X162437109Y-98634690D02*
X162327859Y-98757874D01*
X162327859Y-98757874D02*
X162192818Y-98907412D01*
X162192818Y-98907412D02*
X162082012Y-99027910D01*
X162082012Y-99027910D02*
X161970522Y-99147192D01*
X161970522Y-99147192D02*
X161837883Y-99286577D01*
X161837883Y-99286577D02*
X161719768Y-99408439D01*
X161719768Y-99408439D02*
X161600926Y-99528940D01*
X161600926Y-99528940D02*
X161470936Y-99658363D01*
X161470936Y-99658363D02*
X161355852Y-99770905D01*
X161355852Y-99770905D02*
X161224298Y-99897246D01*
X161224298Y-99897246D02*
X161107852Y-100007057D01*
X161107852Y-100007057D02*
X160990782Y-100115577D01*
X160990782Y-100115577D02*
X160840883Y-100251808D01*
X160840883Y-100251808D02*
X160711612Y-100366888D01*
X160711612Y-100366888D02*
X160587054Y-100475699D01*
X160587054Y-100475699D02*
X160461845Y-100583055D01*
X160461845Y-100583055D02*
X160335994Y-100688950D01*
X160335994Y-100688950D02*
X160187443Y-100811379D01*
X160187443Y-100811379D02*
X160043580Y-100927342D01*
X160043580Y-100927342D02*
X159910086Y-101032688D01*
X159910086Y-101032688D02*
X159781530Y-101132107D01*
X159781530Y-101132107D02*
X159646746Y-101234232D01*
X159646746Y-101234232D02*
X159511318Y-101334695D01*
X159511318Y-101334695D02*
X159363885Y-101441643D01*
X159363885Y-101441643D02*
X159215720Y-101546614D01*
X159215720Y-101546614D02*
X159072570Y-101645668D01*
X159072570Y-101645668D02*
X158934530Y-101739017D01*
X158934530Y-101739017D02*
X158790102Y-101834426D01*
X158790102Y-101834426D02*
X158645036Y-101927958D01*
X158645036Y-101927958D02*
X158505183Y-102015969D01*
X158505183Y-102015969D02*
X158364760Y-102102227D01*
X158364760Y-102102227D02*
X158206115Y-102197157D01*
X158206115Y-102197157D02*
X158046775Y-102289837D01*
X158046775Y-102289837D02*
X157892690Y-102376942D01*
X157892690Y-102376942D02*
X157737984Y-102461933D01*
X157737984Y-102461933D02*
X157588653Y-102541646D01*
X157588653Y-102541646D02*
X157432762Y-102622448D01*
X157432762Y-102622448D02*
X157276282Y-102701090D01*
X157276282Y-102701090D02*
X157113174Y-102780458D01*
X157113174Y-102780458D02*
X156955536Y-102854663D01*
X156955536Y-102854663D02*
X156791245Y-102929389D01*
X156791245Y-102929389D02*
X156614141Y-103006991D01*
X156614141Y-103006991D02*
X156454797Y-103074206D01*
X156454797Y-103074206D02*
X156282619Y-103144080D01*
X156282619Y-103144080D02*
X156109860Y-103211333D01*
X156109860Y-103211333D02*
X155942730Y-103273686D01*
X155942730Y-103273686D02*
X155775086Y-103333570D01*
X155775086Y-103333570D02*
X155606933Y-103390964D01*
X155606933Y-103390964D02*
X155425784Y-103449827D01*
X155425784Y-103449827D02*
X155225257Y-103511405D01*
X155225257Y-103511405D02*
X155036672Y-103565898D01*
X155036672Y-103565898D02*
X154847536Y-103617236D01*
X154847536Y-103617236D02*
X154657867Y-103665399D01*
X154657867Y-103665399D02*
X154474029Y-103708917D01*
X154474029Y-103708917D02*
X154270633Y-103753445D01*
X154270633Y-103753445D02*
X154079452Y-103791841D01*
X154079452Y-103791841D02*
X153868621Y-103830305D01*
X153868621Y-103830305D02*
X153670080Y-103862816D01*
X153670080Y-103862816D02*
X153458231Y-103893539D01*
X153458231Y-103893539D02*
X153252334Y-103919478D01*
X153252334Y-103919478D02*
X153045997Y-103941596D01*
X153045997Y-103941596D02*
X152813372Y-103961880D01*
X152813372Y-103961880D02*
X152593214Y-103976534D01*
X152593214Y-103976534D02*
X152366141Y-103987015D01*
X152366141Y-103987015D02*
X152145161Y-103992691D01*
X152145161Y-103992691D02*
X151917300Y-103993861D01*
X151917300Y-103993861D02*
X151695607Y-103990429D01*
X151695607Y-103990429D02*
X151679295Y-103990000D01*
X168615036Y-81019110D02*
X168615036Y-81019110D01*
X124206000Y-80010000D02*
X124208165Y-79751853D01*
X124208165Y-79751853D02*
X124211451Y-79524991D01*
X124211451Y-79524991D02*
X124217215Y-79247476D01*
X124217215Y-79247476D02*
X124223352Y-79020234D01*
X124223352Y-79020234D02*
X124230764Y-78792839D01*
X124230764Y-78792839D02*
X124239440Y-78565299D01*
X124239440Y-78565299D02*
X124249377Y-78337629D01*
X124249377Y-78337629D02*
X124259912Y-78122491D01*
X124259912Y-78122491D02*
X124271561Y-77907255D01*
X124271561Y-77907255D02*
X124284320Y-77691927D01*
X124284320Y-77691927D02*
X124298181Y-77476514D01*
X124298181Y-77476514D02*
X124313139Y-77261028D01*
X124313139Y-77261028D02*
X124329190Y-77045475D01*
X124329190Y-77045475D02*
X124347370Y-76817182D01*
X124347370Y-76817182D02*
X124365652Y-76601521D01*
X124365652Y-76601521D02*
X124385014Y-76385821D01*
X124385014Y-76385821D02*
X124405444Y-76170093D01*
X124405444Y-76170093D02*
X124426941Y-75954342D01*
X124426941Y-75954342D02*
X124449497Y-75738577D01*
X124449497Y-75738577D02*
X124471693Y-75535501D01*
X124471693Y-75535501D02*
X124496294Y-75319736D01*
X124496294Y-75319736D02*
X124521941Y-75103987D01*
X124521941Y-75103987D02*
X124548627Y-74888257D01*
X124548627Y-74888257D02*
X124574690Y-74685245D01*
X124574690Y-74685245D02*
X124603379Y-74469582D01*
X124603379Y-74469582D02*
X124631318Y-74266649D01*
X124631318Y-74266649D02*
X124660159Y-74063766D01*
X124660159Y-74063766D02*
X124689899Y-73860938D01*
X124689899Y-73860938D02*
X124720535Y-73658174D01*
X124720535Y-73658174D02*
X124752061Y-73455483D01*
X124752061Y-73455483D02*
X124784470Y-73252868D01*
X124784470Y-73252868D02*
X124817762Y-73050338D01*
X124817762Y-73050338D02*
X124851931Y-72847903D01*
X124851931Y-72847903D02*
X124886972Y-72645568D01*
X124886972Y-72645568D02*
X124922881Y-72443339D01*
X124922881Y-72443339D02*
X124961983Y-72228598D01*
X124961983Y-72228598D02*
X125002055Y-72013997D01*
X125002055Y-72013997D02*
X125038212Y-71824763D01*
X125038212Y-71824763D02*
X125075116Y-71635649D01*
X125075116Y-71635649D02*
X125115301Y-71434069D01*
X125115301Y-71434069D02*
X125153740Y-71245223D01*
X125153740Y-71245223D02*
X125195553Y-71043942D01*
X125195553Y-71043942D02*
X125235510Y-70855391D01*
X125235510Y-70855391D02*
X125276196Y-70666991D01*
X125276196Y-70666991D02*
X125320394Y-70466205D01*
X125320394Y-70466205D02*
X125371099Y-70240544D01*
X125371099Y-70240544D02*
X125417034Y-70040162D01*
X125417034Y-70040162D02*
X125466732Y-69827477D01*
X125466732Y-69827477D02*
X125511338Y-69640011D01*
X125511338Y-69640011D02*
X125568854Y-69402828D01*
X125568854Y-69402828D02*
X125615056Y-69215800D01*
X125615056Y-69215800D02*
X125665105Y-69016529D01*
X125665105Y-69016529D02*
X125712744Y-68829931D01*
X125712744Y-68829931D02*
X125764321Y-68631130D01*
X125764321Y-68631130D02*
X125826581Y-68395384D01*
X125826581Y-68395384D02*
X125876507Y-68209529D01*
X125876507Y-68209529D02*
X125927111Y-68023909D01*
X125927111Y-68023909D02*
X125988727Y-67801487D01*
X125988727Y-67801487D02*
X126044305Y-67604079D01*
X126044305Y-67604079D02*
X126097100Y-67419274D01*
X126097100Y-67419274D02*
X126150557Y-67234730D01*
X126150557Y-67234730D02*
X126211939Y-67025905D01*
X126211939Y-67025905D02*
X126266795Y-66841937D01*
X126266795Y-66841937D02*
X126333485Y-66621550D01*
X126333485Y-66621550D02*
X126393548Y-66425998D01*
X126393548Y-66425998D02*
X126454343Y-66230781D01*
X126454343Y-66230781D02*
X126519732Y-66023736D01*
X126519732Y-66023736D02*
X126585939Y-65817086D01*
X126585939Y-65817086D02*
X126641072Y-65647209D01*
X126641072Y-65647209D02*
X126696752Y-65477608D01*
X126696752Y-65477608D02*
X126752975Y-65308291D01*
X126752975Y-65308291D02*
X126809740Y-65139262D01*
X126809740Y-65139262D02*
X126875273Y-64946445D01*
X126875273Y-64946445D02*
X126937346Y-64766036D01*
X126937346Y-64766036D02*
X127000028Y-64585974D01*
X127000028Y-64585974D02*
X127059078Y-64418237D01*
X127059078Y-64418237D02*
X127144348Y-64179158D01*
X127144348Y-64179158D02*
X127204672Y-64012195D01*
X127204672Y-64012195D02*
X127265510Y-63845554D01*
X127265510Y-63845554D02*
X127326866Y-63679245D01*
X127326866Y-63679245D02*
X127393176Y-63501428D01*
X127393176Y-63501428D02*
X127478006Y-63276759D01*
X127478006Y-63276759D02*
X127541108Y-63111620D01*
X127541108Y-63111620D02*
X127618407Y-62911570D01*
X127618407Y-62911570D02*
X127682619Y-62747219D01*
X127682619Y-62747219D02*
X127747326Y-62583235D01*
X127747326Y-62583235D02*
X127812527Y-62419616D01*
X127812527Y-62419616D02*
X127878218Y-62256370D01*
X127878218Y-62256370D02*
X127944397Y-62093502D01*
X127944397Y-62093502D02*
X128020624Y-61907836D01*
X128020624Y-61907836D02*
X128087838Y-61745796D01*
X128087838Y-61745796D02*
X128165238Y-61561086D01*
X128165238Y-61561086D02*
X128238365Y-61388397D01*
X128238365Y-61388397D02*
X128331769Y-61170321D01*
X128331769Y-61170321D02*
X128426034Y-60953003D01*
X128426034Y-60953003D02*
X128496040Y-60793364D01*
X128496040Y-60793364D02*
X128586723Y-60588735D01*
X128586723Y-60588735D02*
X128657777Y-60430069D01*
X128657777Y-60430069D02*
X128734412Y-60260551D01*
X128734412Y-60260551D02*
X128806402Y-60102787D01*
X128806402Y-60102787D02*
X128878844Y-59945470D01*
X128878844Y-59945470D02*
X128956951Y-59777410D01*
X128956951Y-59777410D02*
X129061886Y-59554143D01*
X129061886Y-59554143D02*
X129146475Y-59376205D01*
X129146475Y-59376205D02*
X129253011Y-59154639D01*
X129253011Y-59154639D02*
X129328109Y-59000118D01*
X129328109Y-59000118D02*
X129403634Y-58846075D01*
X129403634Y-58846075D02*
X129485026Y-58681563D01*
X129485026Y-58681563D02*
X129577853Y-58495796D01*
X129577853Y-58495796D02*
X129654763Y-58343359D01*
X129654763Y-58343359D02*
X129732087Y-58191419D01*
X129732087Y-58191419D02*
X129809822Y-58039983D01*
X129809822Y-58039983D02*
X129899163Y-57867535D01*
X129899163Y-57867535D02*
X129983401Y-57706477D01*
X129983401Y-57706477D02*
X130090768Y-57503326D01*
X130090768Y-57503326D02*
X130187455Y-57322380D01*
X130187455Y-57322380D02*
X130267515Y-57173955D01*
X130267515Y-57173955D02*
X130365260Y-56994447D01*
X130365260Y-56994447D02*
X130457779Y-56826230D01*
X130457779Y-56826230D02*
X130544971Y-56669175D01*
X130544971Y-56669175D02*
X130626747Y-56523164D01*
X130626747Y-56523164D02*
X130714783Y-56367345D01*
X130714783Y-56367345D02*
X130809166Y-56201851D01*
X130809166Y-56201851D02*
X130898091Y-56047377D01*
X130898091Y-56047377D02*
X130981471Y-55903794D01*
X130981471Y-55903794D02*
X131071212Y-55750599D01*
X131071212Y-55750599D02*
X131191518Y-55547386D01*
X131191518Y-55547386D02*
X131306485Y-55355450D01*
X131306485Y-55355450D02*
X131409906Y-55184652D01*
X131409906Y-55184652D02*
X131495466Y-55044663D01*
X131495466Y-55044663D02*
X131605984Y-54865575D01*
X131605984Y-54865575D02*
X131704700Y-54707237D01*
X131704700Y-54707237D02*
X131853610Y-54471253D01*
X131853610Y-54471253D02*
X131947183Y-54324703D01*
X131947183Y-54324703D02*
X132047415Y-54169183D01*
X132047415Y-54169183D02*
X132148079Y-54014500D01*
X132148079Y-54014500D02*
X132255501Y-53851075D01*
X132255501Y-53851075D02*
X132388859Y-53650524D01*
X132388859Y-53650524D02*
X132561368Y-53394852D01*
X132561368Y-53394852D02*
X132657712Y-53253885D01*
X132657712Y-53253885D02*
X132799662Y-53048534D01*
X132799662Y-53048534D02*
X132896878Y-52909484D01*
X132896878Y-52909484D02*
X132994440Y-52771222D01*
X132994440Y-52771222D02*
X133092346Y-52633756D01*
X133092346Y-52633756D02*
X133197154Y-52488007D01*
X133197154Y-52488007D02*
X133302343Y-52343175D01*
X133302343Y-52343175D02*
X133401303Y-52208235D01*
X133401303Y-52208235D02*
X133500590Y-52074114D01*
X133500590Y-52074114D02*
X133620164Y-51914259D01*
X133620164Y-51914259D02*
X133720162Y-51781960D01*
X133720162Y-51781960D02*
X133840576Y-51624308D01*
X133840576Y-51624308D02*
X133981631Y-51441921D01*
X133981631Y-51441921D02*
X134089506Y-51304083D01*
X134089506Y-51304083D02*
X134190953Y-51175747D01*
X134190953Y-51175747D02*
X134292700Y-51048276D01*
X134292700Y-51048276D02*
X134394743Y-50921679D01*
X134394743Y-50921679D02*
X134503914Y-50787612D01*
X134503914Y-50787612D02*
X134613411Y-50654549D01*
X134613411Y-50654549D02*
X134736985Y-50506064D01*
X134736985Y-50506064D02*
X134860964Y-50358874D01*
X134860964Y-50358874D02*
X134964584Y-50237212D01*
X134964584Y-50237212D02*
X135137888Y-50036466D01*
X135137888Y-50036466D02*
X135256160Y-49901421D01*
X135256160Y-49901421D02*
X135388748Y-49751899D01*
X135388748Y-49751899D02*
X135500722Y-49627149D01*
X135500722Y-49627149D02*
X135620011Y-49495778D01*
X135620011Y-49495778D02*
X135732575Y-49373248D01*
X135732575Y-49373248D02*
X135873680Y-49221616D01*
X135873680Y-49221616D02*
X136008125Y-49079148D01*
X136008125Y-49079148D02*
X136121638Y-48960387D01*
X136121638Y-48960387D02*
X136242537Y-48835419D01*
X136242537Y-48835419D02*
X136378009Y-48697247D01*
X136378009Y-48697247D02*
X136499524Y-48574967D01*
X136499524Y-48574967D02*
X136628498Y-48446889D01*
X136628498Y-48446889D02*
X136750594Y-48327261D01*
X136750594Y-48327261D02*
X136865756Y-48215857D01*
X136865756Y-48215857D02*
X137046169Y-48044112D01*
X137046169Y-48044112D02*
X137190909Y-47908773D01*
X137190909Y-47908773D02*
X137328734Y-47781908D01*
X137328734Y-47781908D02*
X137459592Y-47663265D01*
X137459592Y-47663265D02*
X137590723Y-47546138D01*
X137590723Y-47546138D02*
X137714813Y-47436919D01*
X137714813Y-47436919D02*
X137868418Y-47303889D01*
X137868418Y-47303889D02*
X138000355Y-47191541D01*
X138000355Y-47191541D02*
X138147241Y-47068535D01*
X138147241Y-47068535D02*
X138279689Y-46959486D01*
X138279689Y-46959486D02*
X138404995Y-46857944D01*
X138404995Y-46857944D02*
X138560063Y-46734467D01*
X138560063Y-46734467D02*
X138693219Y-46630365D01*
X138693219Y-46630365D02*
X138826587Y-46527875D01*
X138826587Y-46527875D02*
X139019596Y-46382698D01*
X139019596Y-46382698D02*
X139153461Y-46284191D01*
X139153461Y-46284191D02*
X139302426Y-46176670D01*
X139302426Y-46176670D02*
X139474018Y-46055554D01*
X139474018Y-46055554D02*
X139645900Y-45937167D01*
X139645900Y-45937167D02*
X139788100Y-45841443D01*
X139788100Y-45841443D02*
X139945478Y-45737844D01*
X139945478Y-45737844D02*
X140095560Y-45641340D01*
X140095560Y-45641340D02*
X140253343Y-45542293D01*
X140253343Y-45542293D02*
X140396264Y-45454711D01*
X140396264Y-45454711D02*
X140539339Y-45369073D01*
X140539339Y-45369073D02*
X140682556Y-45285388D01*
X140682556Y-45285388D02*
X140878755Y-45174058D01*
X140878755Y-45174058D02*
X141044956Y-45082759D01*
X141044956Y-45082759D02*
X141203746Y-44998103D01*
X141203746Y-44998103D02*
X141355101Y-44919764D01*
X141355101Y-44919764D02*
X141514145Y-44839920D01*
X141514145Y-44839920D02*
X141726379Y-44737336D01*
X141726379Y-44737336D02*
X141900851Y-44656409D01*
X141900851Y-44656409D02*
X142060245Y-44585165D01*
X142060245Y-44585165D02*
X142250104Y-44503671D01*
X142250104Y-44503671D02*
X142470462Y-44413693D01*
X142470462Y-44413693D02*
X142652905Y-44342957D01*
X142652905Y-44342957D02*
X142858222Y-44267450D01*
X142858222Y-44267450D02*
X145905964Y-43676195D01*
M02*
